<svg width="1440" height="1080" viewBox="0 0 1440 1080" fill="none" xmlns="http://www.w3.org/2000/svg">
<g clip-path="url(#clip0_0_53)">
<rect width="1440" height="1080" fill="white"/>
<path d="M0 0H1440V1080H0V0Z" fill="#141F39"/>
<path d="M441.469 0C441.469 0 577.781 57.2372 596.57 157.695C615.36 258.153 593.974 316.605 441.469 493.453C288.964 670.301 261.108 678.763 185 707C108.892 735.237 0 637 0 637V0H441.469Z" fill="#FFBA5F"/>
<path d="M627.859 1080C627.859 1080 658.003 922.221 780.383 852C902.763 781.779 1041.11 879 1131 879C1220.89 879 1234.97 729.748 1312.06 647.078C1389.16 564.408 1440 556 1440 556C1440 556 1440 466.211 1440 647.078C1440 827.945 1440 1080 1440 1080H627.859Z" fill="#182440"/>
<g clip-path="url(#clip1_0_53)">
<path d="M229.489 672.182C229.489 657.757 220.369 649.767 208.651 649.767C196.889 649.767 187.834 657.757 187.834 672.182C187.834 686.543 196.889 694.597 208.651 694.597C220.369 694.597 229.489 686.607 229.489 672.182ZM218.707 672.182C218.707 680.726 214.957 685.349 208.651 685.349C202.365 685.349 198.594 680.726 198.594 672.182C198.594 663.638 202.365 659.014 208.651 659.014C214.957 659.014 218.707 663.638 218.707 672.182ZM250.923 694.618C261.214 694.618 267.457 687.821 267.457 677.743C267.457 667.643 261.214 660.847 250.923 660.847C240.632 660.847 234.389 667.643 234.389 677.743C234.389 687.821 240.632 694.618 250.923 694.618ZM250.987 686.756C247.131 686.756 245 683.091 245 677.679C245 672.246 247.131 668.56 250.987 668.56C254.716 668.56 256.847 672.246 256.847 677.679C256.847 683.091 254.716 686.756 250.987 686.756ZM272.795 706.273H283.214V688.695H283.427C284.748 691.72 287.688 694.469 292.631 694.469C299.876 694.469 305.714 688.801 305.714 677.658C305.714 666.109 299.535 660.847 292.695 660.847C287.518 660.847 284.684 663.872 283.427 666.876H283.107V661.273H272.795V706.273ZM283.001 677.636C283.001 672.288 285.217 668.986 289.031 668.986C292.887 668.986 295.018 672.374 295.018 677.636C295.018 682.92 292.887 686.351 289.031 686.351C285.217 686.351 283.001 682.942 283.001 677.636ZM339.746 671.266C339.192 664.788 333.887 660.847 325.023 660.847C316.159 660.847 310.513 664.703 310.556 671.266C310.513 676.294 313.73 679.533 320.272 680.747L325.982 681.834C328.688 682.366 329.924 683.219 329.966 684.668C329.924 686.308 328.091 687.395 325.428 687.395C322.466 687.395 320.463 686.116 320.016 683.73L309.725 683.986C310.471 690.463 316.032 694.618 325.385 694.618C334.142 694.618 340.513 690.25 340.556 683.517C340.513 678.744 337.36 675.911 330.84 674.653L324.533 673.46C321.763 672.906 320.868 671.926 320.89 670.669C320.868 669.007 322.807 667.984 325.215 667.984C327.963 667.984 329.881 669.455 330.179 671.521L339.746 671.266ZM356.317 688.034H348.136L348.093 690.42C347.965 696.216 346.154 702.224 345.494 704.653H352.056C353.079 702.182 355.614 696.301 356.126 690.399L356.317 688.034ZM373.027 658.929H386.28V694H396.678V658.929H409.909V650.364H373.027V658.929ZM425.479 675.335C425.501 671.607 427.717 669.391 431.019 669.391C434.364 669.391 436.303 671.543 436.282 675.186V694H446.701V673.141C446.722 665.726 442.205 660.847 435.323 660.847C430.423 660.847 426.971 663.254 425.501 667.281H425.138V650.364H415.06V694H425.479V675.335ZM453.205 694H463.624V661.273H453.205V694ZM458.425 657.459C461.387 657.459 463.773 655.222 463.773 652.473C463.773 649.724 461.387 647.509 458.425 647.509C455.485 647.509 453.077 649.724 453.077 652.473C453.077 655.222 455.485 657.459 458.425 657.459ZM498.828 671.266C498.274 664.788 492.969 660.847 484.105 660.847C475.241 660.847 469.595 664.703 469.638 671.266C469.595 676.294 472.812 679.533 479.354 680.747L485.064 681.834C487.77 682.366 489.006 683.219 489.048 684.668C489.006 686.308 487.173 687.395 484.51 687.395C481.548 687.395 479.545 686.116 479.098 683.73L468.807 683.986C469.553 690.463 475.114 694.618 484.467 694.618C493.224 694.618 499.595 690.25 499.638 683.517C499.595 678.744 496.442 675.911 489.922 674.653L483.615 673.46C480.845 672.906 479.95 671.926 479.972 670.669C479.95 669.007 481.889 667.984 484.297 667.984C487.045 667.984 488.963 669.455 489.261 671.521L498.828 671.266ZM517.658 694H528.205V680.449H535.364C545.357 680.449 551.6 674.526 551.6 665.47C551.6 656.5 545.485 650.364 535.684 650.364H517.658V694ZM528.205 672.139V658.865H533.404C538.134 658.865 540.669 661.422 540.669 665.47C540.669 669.497 538.134 672.139 533.404 672.139H528.205ZM564.853 694.554C569.412 694.554 572.566 692.786 574.355 689.44H574.611V694H584.412V671.756C584.412 664.831 578.255 660.847 569.924 660.847C561.124 660.847 556.138 665.278 555.307 671.244L564.917 671.585C565.364 669.497 567.09 668.219 569.838 668.219C572.395 668.219 574.015 669.455 574.015 671.649V671.756C574.015 673.759 571.841 674.185 566.259 674.675C559.632 675.229 554.093 677.679 554.093 684.923C554.093 691.401 558.588 694.554 564.853 694.554ZM568.07 687.736C565.662 687.736 563.958 686.585 563.958 684.412C563.958 682.303 565.62 681.024 568.581 680.577C570.52 680.3 572.907 679.874 574.078 679.256V682.366C574.078 685.562 571.394 687.736 568.07 687.736ZM606.039 706.955C615.904 706.955 622.637 702.459 622.637 694.128V661.273H612.26V666.876H611.962C610.705 663.872 607.85 660.847 602.694 660.847C595.854 660.847 589.654 666.109 589.654 677.594C589.654 688.716 595.556 693.553 602.736 693.553C607.551 693.553 610.769 691.315 612.005 688.29H612.367V694.043C612.367 698.219 609.81 699.732 606.316 699.732C602.971 699.732 600.968 698.453 600.414 696.429L590.549 696.983C591.316 702.714 596.706 706.955 606.039 706.955ZM606.358 685.967C602.502 685.967 600.35 682.835 600.35 677.594C600.35 672.374 602.48 668.986 606.358 668.986C610.172 668.986 612.388 672.288 612.388 677.594C612.388 682.857 610.151 685.967 606.358 685.967ZM644.577 694.618C653.164 694.618 658.81 690.463 660.004 684.028L650.437 683.751C649.627 685.925 647.496 687.097 644.769 687.097C640.763 687.097 638.292 684.433 638.292 680.428V680.151H660.11V677.551C660.11 666.77 653.548 660.847 644.258 660.847C634.371 660.847 628.022 667.622 628.022 677.764C628.022 688.247 634.286 694.618 644.577 694.618ZM638.292 674.099C638.441 670.839 641.019 668.368 644.471 668.368C647.901 668.368 650.373 670.754 650.415 674.099H638.292ZM717.931 666.173C716.866 655.733 709.089 649.767 698.542 649.767C686.909 649.767 677.853 657.757 677.853 672.182C677.853 686.543 686.696 694.597 698.542 694.597C710.517 694.597 717.143 686.457 717.931 678.723L707.278 678.659C706.532 682.857 703.379 685.349 698.755 685.349C692.534 685.349 688.613 680.854 688.613 672.182C688.613 663.851 692.449 659.014 698.819 659.014C703.613 659.014 706.745 661.805 707.278 666.173H717.931ZM739.244 694.618C749.535 694.618 755.778 687.821 755.778 677.743C755.778 667.643 749.535 660.847 739.244 660.847C728.952 660.847 722.71 667.643 722.71 677.743C722.71 687.821 728.952 694.618 739.244 694.618ZM739.308 686.756C735.451 686.756 733.32 683.091 733.32 677.679C733.32 672.246 735.451 668.56 739.308 668.56C743.036 668.56 745.167 672.246 745.167 677.679C745.167 683.091 743.036 686.756 739.308 686.756ZM782.23 679.874C782.23 683.688 779.801 685.818 776.712 685.818C773.516 685.818 771.555 683.645 771.534 680.087V661.273H761.115V682.132C761.136 689.526 765.632 694.426 772.365 694.426C777.266 694.426 780.909 691.912 782.358 687.906H782.699V694H792.628V661.273H782.23V679.874ZM809.679 650.364H799.26V694H809.679V650.364ZM828.263 694.469C833.207 694.469 836.147 691.72 837.468 688.695H837.788V694H848.1V650.364H837.681V666.876H837.468C836.232 663.872 833.377 660.847 828.221 660.847C821.381 660.847 815.181 666.109 815.181 677.658C815.181 688.801 821.04 694.469 828.263 694.469ZM831.886 686.351C828.029 686.351 825.877 682.92 825.877 677.636C825.877 672.374 828.008 668.986 831.886 668.986C835.7 668.986 837.915 672.288 837.915 677.636C837.915 682.942 835.678 686.351 831.886 686.351ZM904.718 650.364H894.192V675.506H893.83L876.657 650.364H867.58V694H878.127V668.815H878.404L895.769 694H904.718V650.364ZM926.626 694.618C936.918 694.618 943.161 687.821 943.161 677.743C943.161 667.643 936.918 660.847 926.626 660.847C916.335 660.847 910.092 667.643 910.092 677.743C910.092 687.821 916.335 694.618 926.626 694.618ZM926.69 686.756C922.834 686.756 920.703 683.091 920.703 677.679C920.703 672.246 922.834 668.56 926.69 668.56C930.419 668.56 932.55 672.246 932.55 677.679C932.55 683.091 930.419 686.756 926.69 686.756ZM966.971 661.273H961.069V653.432H950.65V661.273H946.325V668.943H950.65V684.859C950.586 691.486 954.89 694.81 962.241 694.469C964.755 694.341 966.566 693.83 967.567 693.531L965.991 686.01C965.543 686.116 964.499 686.33 963.711 686.33C962.028 686.33 961.069 685.648 961.069 683.709V668.943H966.971V661.273ZM985.178 694H1004.76C1014.41 694 1019.95 688.844 1019.95 681.791C1019.95 675.484 1015.37 671.521 1010.09 671.287V670.861C1014.88 669.859 1018.25 666.386 1018.25 661.401C1018.25 654.817 1013.17 650.364 1003.37 650.364H985.178V694ZM995.724 685.499V675.101H1002.44C1006.46 675.101 1008.93 677.232 1008.93 680.577C1008.93 683.666 1006.8 685.499 1002.24 685.499H995.724ZM995.724 668.304V658.737H1001.73C1005.25 658.737 1007.49 660.548 1007.49 663.446C1007.49 666.514 1005.01 668.304 1001.56 668.304H995.724ZM1040.32 694.618C1048.91 694.618 1054.55 690.463 1055.75 684.028L1046.18 683.751C1045.37 685.925 1043.24 687.097 1040.51 687.097C1036.51 687.097 1034.03 684.433 1034.03 680.428V680.151H1055.85V677.551C1055.85 666.77 1049.29 660.847 1040 660.847C1030.11 660.847 1023.76 667.622 1023.76 677.764C1023.76 688.247 1030.03 694.618 1040.32 694.618ZM1034.03 674.099C1034.18 670.839 1036.76 668.368 1040.21 668.368C1043.64 668.368 1046.12 670.754 1046.16 674.099H1034.03ZM1074.06 694H1084.61V676.464H1101.95V667.878H1084.61V658.929H1103.85V650.364H1074.06V694ZM1122.04 694.618C1132.33 694.618 1138.57 687.821 1138.57 677.743C1138.57 667.643 1132.33 660.847 1122.04 660.847C1111.75 660.847 1105.5 667.643 1105.5 677.743C1105.5 687.821 1111.75 694.618 1122.04 694.618ZM1122.1 686.756C1118.24 686.756 1116.11 683.091 1116.11 677.679C1116.11 672.246 1118.24 668.56 1122.1 668.56C1125.83 668.56 1127.96 672.246 1127.96 677.679C1127.96 683.091 1125.83 686.756 1122.1 686.756ZM1165.02 679.874C1165.02 683.688 1162.59 685.818 1159.5 685.818C1156.31 685.818 1154.35 683.645 1154.33 680.087V661.273H1143.91V682.132C1143.93 689.526 1148.43 694.426 1155.16 694.426C1160.06 694.426 1163.7 691.912 1165.15 687.906H1165.49V694H1175.42V661.273H1165.02V679.874ZM1192.47 675.335C1192.49 671.607 1194.67 669.391 1197.97 669.391C1201.27 669.391 1203.23 671.564 1203.21 675.186V694H1213.63V673.141C1213.65 665.768 1209.15 660.847 1202.27 660.847C1197.44 660.847 1193.77 663.297 1192.32 667.281H1191.96V661.273H1182.05V694H1192.47V675.335ZM1232.03 694.469C1236.98 694.469 1239.92 691.72 1241.24 688.695H1241.56V694H1251.87V650.364H1241.45V666.876H1241.24C1240 663.872 1237.15 660.847 1231.99 660.847C1225.15 660.847 1218.95 666.109 1218.95 677.658C1218.95 688.801 1224.81 694.469 1232.03 694.469ZM1235.66 686.351C1231.8 686.351 1229.65 682.92 1229.65 677.636C1229.65 672.374 1231.78 668.986 1235.66 668.986C1239.47 668.986 1241.69 672.288 1241.69 677.636C1241.69 682.942 1239.45 686.351 1235.66 686.351ZM1264.32 694.618C1267.24 694.618 1269.82 692.146 1269.86 689.078C1269.82 686.053 1267.24 683.602 1264.32 683.602C1261.25 683.602 1258.74 686.053 1258.78 689.078C1258.74 692.146 1261.25 694.618 1264.32 694.618Z" fill="white"/>
<path d="M310.5 724.648H314.034V734H316.807V724.648H320.335V722.364H310.5V724.648ZM324.487 729.023C324.493 728.028 325.084 727.438 325.964 727.438C326.857 727.438 327.374 728.011 327.368 728.983V734H330.146V728.438C330.152 726.46 328.947 725.159 327.112 725.159C325.805 725.159 324.885 725.801 324.493 726.875H324.396V722.364H321.709V734H324.487V729.023ZM335.96 734.165C338.25 734.165 339.756 733.057 340.074 731.341L337.523 731.267C337.307 731.847 336.739 732.159 336.011 732.159C334.943 732.159 334.284 731.449 334.284 730.381V730.307H340.102V729.614C340.102 726.739 338.352 725.159 335.875 725.159C333.239 725.159 331.545 726.966 331.545 729.67C331.545 732.466 333.216 734.165 335.96 734.165ZM334.284 728.693C334.324 727.824 335.011 727.165 335.932 727.165C336.847 727.165 337.506 727.801 337.517 728.693H334.284ZM344.959 737.273H347.737V732.585H347.794C348.146 733.392 348.93 734.125 350.249 734.125C352.18 734.125 353.737 732.614 353.737 729.642C353.737 726.562 352.089 725.159 350.266 725.159C348.885 725.159 348.129 725.966 347.794 726.767H347.709V725.273H344.959V737.273ZM347.68 729.636C347.68 728.21 348.271 727.33 349.288 727.33C350.317 727.33 350.885 728.233 350.885 729.636C350.885 731.045 350.317 731.96 349.288 731.96C348.271 731.96 347.68 731.051 347.68 729.636ZM357.653 734.148C358.869 734.148 359.71 733.676 360.188 732.784H360.256V734H362.869V728.068C362.869 726.222 361.227 725.159 359.006 725.159C356.659 725.159 355.33 726.341 355.108 727.932L357.67 728.023C357.79 727.466 358.25 727.125 358.983 727.125C359.665 727.125 360.097 727.455 360.097 728.04V728.068C360.097 728.602 359.517 728.716 358.028 728.847C356.261 728.994 354.784 729.648 354.784 731.58C354.784 733.307 355.983 734.148 357.653 734.148ZM358.511 732.33C357.869 732.33 357.415 732.023 357.415 731.443C357.415 730.881 357.858 730.54 358.648 730.42C359.165 730.347 359.801 730.233 360.114 730.068V730.898C360.114 731.75 359.398 732.33 358.511 732.33ZM368.636 737.455C371.267 737.455 373.062 736.256 373.062 734.034V725.273H370.295V726.767H370.216C369.881 725.966 369.119 725.159 367.744 725.159C365.92 725.159 364.267 726.562 364.267 729.625C364.267 732.591 365.841 733.881 367.756 733.881C369.04 733.881 369.898 733.284 370.227 732.477H370.324V734.011C370.324 735.125 369.642 735.528 368.71 735.528C367.818 735.528 367.284 735.188 367.136 734.648L364.506 734.795C364.71 736.324 366.148 737.455 368.636 737.455ZM368.722 731.858C367.693 731.858 367.119 731.023 367.119 729.625C367.119 728.233 367.688 727.33 368.722 727.33C369.739 727.33 370.33 728.21 370.33 729.625C370.33 731.028 369.733 731.858 368.722 731.858ZM378.913 734.165C381.203 734.165 382.709 733.057 383.027 731.341L380.476 731.267C380.26 731.847 379.692 732.159 378.964 732.159C377.896 732.159 377.237 731.449 377.237 730.381V730.307H383.055V729.614C383.055 726.739 381.305 725.159 378.828 725.159C376.192 725.159 374.499 726.966 374.499 729.67C374.499 732.466 376.169 734.165 378.913 734.165ZM377.237 728.693C377.277 727.824 377.964 727.165 378.885 727.165C379.8 727.165 380.459 727.801 380.47 728.693H377.237ZM389.611 737.273C391.611 737.273 392.605 736.261 393.088 734.835L396.378 725.278L393.452 725.273L391.821 731.5H391.73L390.122 725.273H387.213L390.315 734.318L390.207 734.58C389.94 735.233 389.338 735.244 388.52 734.977L387.906 736.994C388.327 737.165 388.946 737.273 389.611 737.273ZM401.236 734.165C403.98 734.165 405.645 732.352 405.645 729.665C405.645 726.972 403.98 725.159 401.236 725.159C398.491 725.159 396.827 726.972 396.827 729.665C396.827 732.352 398.491 734.165 401.236 734.165ZM401.253 732.068C400.224 732.068 399.656 731.091 399.656 729.648C399.656 728.199 400.224 727.216 401.253 727.216C402.247 727.216 402.815 728.199 402.815 729.648C402.815 731.091 402.247 732.068 401.253 732.068ZM412.699 730.233C412.699 731.25 412.051 731.818 411.227 731.818C410.375 731.818 409.852 731.239 409.847 730.29V725.273H407.068V730.835C407.074 732.807 408.273 734.114 410.068 734.114C411.375 734.114 412.347 733.443 412.733 732.375H412.824V734H415.472V725.273H412.699V730.233ZM423.138 734.148C424.354 734.148 425.195 733.676 425.672 732.784H425.74V734H428.354V728.068C428.354 726.222 426.712 725.159 424.49 725.159C422.143 725.159 420.814 726.341 420.592 727.932L423.155 728.023C423.274 727.466 423.734 727.125 424.467 727.125C425.149 727.125 425.581 727.455 425.581 728.04V728.068C425.581 728.602 425.001 728.716 423.513 728.847C421.746 728.994 420.268 729.648 420.268 731.58C420.268 733.307 421.467 734.148 423.138 734.148ZM423.996 732.33C423.354 732.33 422.899 732.023 422.899 731.443C422.899 730.881 423.342 730.54 424.132 730.42C424.649 730.347 425.286 730.233 425.598 730.068V730.898C425.598 731.75 424.882 732.33 423.996 732.33ZM430.053 734H432.831V729.261C432.831 728.222 433.57 727.523 434.564 727.523C434.893 727.523 435.388 727.58 435.655 727.67V725.256C435.422 725.193 435.132 725.153 434.876 725.153C433.922 725.153 433.161 725.71 432.842 726.864H432.751V725.273H430.053V734ZM440.413 734.165C442.703 734.165 444.209 733.057 444.527 731.341L441.976 731.267C441.76 731.847 441.192 732.159 440.464 732.159C439.396 732.159 438.737 731.449 438.737 730.381V730.307H444.555V729.614C444.555 726.739 442.805 725.159 440.328 725.159C437.692 725.159 435.999 726.966 435.999 729.67C435.999 732.466 437.669 734.165 440.413 734.165ZM438.737 728.693C438.777 727.824 439.464 727.165 440.385 727.165C441.3 727.165 441.959 727.801 441.97 728.693H438.737ZM452.19 722.364H449.412V734H452.19V722.364ZM458.033 734.165C460.777 734.165 462.442 732.352 462.442 729.665C462.442 726.972 460.777 725.159 458.033 725.159C455.288 725.159 453.624 726.972 453.624 729.665C453.624 732.352 455.288 734.165 458.033 734.165ZM458.05 732.068C457.021 732.068 456.453 731.091 456.453 729.648C456.453 728.199 457.021 727.216 458.05 727.216C459.044 727.216 459.612 728.199 459.612 729.648C459.612 731.091 459.044 732.068 458.05 732.068ZM467.939 734.165C470.683 734.165 472.348 732.352 472.348 729.665C472.348 726.972 470.683 725.159 467.939 725.159C465.195 725.159 463.53 726.972 463.53 729.665C463.53 732.352 465.195 734.165 467.939 734.165ZM467.956 732.068C466.928 732.068 466.359 731.091 466.359 729.648C466.359 728.199 466.928 727.216 467.956 727.216C468.95 727.216 469.518 728.199 469.518 729.648C469.518 731.091 468.95 732.068 467.956 732.068ZM473.771 734H476.55V731.381L477.112 730.699L479.192 734H482.402L479.18 729.074L482.277 725.273H479.129L476.675 728.398H476.55V722.364H473.771V734ZM483.271 734H486.05V725.273H483.271V734ZM484.663 724.256C485.453 724.256 486.089 723.659 486.089 722.926C486.089 722.193 485.453 721.602 484.663 721.602C483.879 721.602 483.237 722.193 483.237 722.926C483.237 723.659 483.879 724.256 484.663 724.256ZM490.597 729.023C490.602 728.028 491.182 727.438 492.062 727.438C492.943 727.438 493.466 728.017 493.46 728.983V734H496.239V728.438C496.244 726.472 495.045 725.159 493.21 725.159C491.92 725.159 490.943 725.812 490.557 726.875H490.46V725.273H487.818V734H490.597V729.023ZM502.027 737.455C504.658 737.455 506.453 736.256 506.453 734.034V725.273H503.686V726.767H503.607C503.271 725.966 502.51 725.159 501.135 725.159C499.311 725.159 497.658 726.562 497.658 729.625C497.658 732.591 499.232 733.881 501.146 733.881C502.43 733.881 503.288 733.284 503.618 732.477H503.714V734.011C503.714 735.125 503.033 735.528 502.101 735.528C501.209 735.528 500.675 735.188 500.527 734.648L497.896 734.795C498.101 736.324 499.538 737.455 502.027 737.455ZM502.112 731.858C501.084 731.858 500.51 731.023 500.51 729.625C500.51 728.233 501.078 727.33 502.112 727.33C503.129 727.33 503.72 728.21 503.72 729.625C503.72 731.028 503.124 731.858 502.112 731.858ZM516.622 725.273H514.957V724.784C514.957 724.284 515.162 723.977 515.81 723.977C516.071 723.977 516.389 724.034 516.594 724.097L517.037 722.062C516.707 721.972 515.952 721.818 515.185 721.818C513.406 721.818 512.185 722.807 512.185 724.83V725.273H511.009V727.318H512.185V734H514.957V727.318H516.622V725.273ZM521.736 734.165C524.48 734.165 526.145 732.352 526.145 729.665C526.145 726.972 524.48 725.159 521.736 725.159C518.991 725.159 517.327 726.972 517.327 729.665C517.327 732.352 518.991 734.165 521.736 734.165ZM521.753 732.068C520.724 732.068 520.156 731.091 520.156 729.648C520.156 728.199 520.724 727.216 521.753 727.216C522.747 727.216 523.315 728.199 523.315 729.648C523.315 731.091 522.747 732.068 521.753 732.068ZM527.568 734H530.347V729.261C530.347 728.222 531.085 727.523 532.08 727.523C532.409 727.523 532.903 727.58 533.17 727.67V725.256C532.938 725.193 532.648 725.153 532.392 725.153C531.438 725.153 530.676 725.71 530.358 726.864H530.267V725.273H527.568V734ZM537.74 734H540.518V728.835C540.518 727.972 541.024 727.42 541.751 727.42C542.473 727.42 542.95 727.926 542.95 728.733V734H545.621V728.79C545.621 727.955 546.081 727.42 546.848 727.42C547.553 727.42 548.053 727.892 548.053 728.761V734H550.831V728.125C550.831 726.278 549.695 725.159 548.047 725.159C546.757 725.159 545.74 725.835 545.416 726.875H545.325C545.092 725.83 544.155 725.159 542.945 725.159C541.751 725.159 540.842 725.812 540.479 726.875H540.382V725.273H537.74V734ZM552.553 734H555.331V725.273H552.553V734ZM553.945 724.256C554.734 724.256 555.371 723.659 555.371 722.926C555.371 722.193 554.734 721.602 553.945 721.602C553.161 721.602 552.518 722.193 552.518 722.926C552.518 723.659 553.161 724.256 553.945 724.256ZM561.168 737.455C563.798 737.455 565.594 736.256 565.594 734.034V725.273H562.827V726.767H562.747C562.412 725.966 561.651 725.159 560.276 725.159C558.452 725.159 556.798 726.562 556.798 729.625C556.798 732.591 558.372 733.881 560.287 733.881C561.571 733.881 562.429 733.284 562.759 732.477H562.855V734.011C562.855 735.125 562.173 735.528 561.241 735.528C560.349 735.528 559.815 735.188 559.668 734.648L557.037 734.795C557.241 736.324 558.679 737.455 561.168 737.455ZM561.253 731.858C560.224 731.858 559.651 731.023 559.651 729.625C559.651 728.233 560.219 727.33 561.253 727.33C562.27 727.33 562.861 728.21 562.861 729.625C562.861 731.028 562.264 731.858 561.253 731.858ZM570.143 729.023C570.149 728.028 570.74 727.438 571.621 727.438C572.513 727.438 573.03 728.011 573.024 728.983V734H575.803V728.438C575.808 726.46 574.604 725.159 572.768 725.159C571.462 725.159 570.541 725.801 570.149 726.875H570.053V722.364H567.365V734H570.143V729.023ZM582.463 725.273H580.889V723.182H578.111V725.273H576.957V727.318H578.111V731.562C578.094 733.33 579.241 734.216 581.202 734.125C581.872 734.091 582.355 733.955 582.622 733.875L582.202 731.869C582.082 731.898 581.804 731.955 581.594 731.955C581.145 731.955 580.889 731.773 580.889 731.256V727.318H582.463V725.273ZM590.097 729.023C590.102 728.028 590.693 727.438 591.574 727.438C592.466 727.438 592.983 728.011 592.977 728.983V734H595.756V728.438C595.761 726.46 594.557 725.159 592.722 725.159C591.415 725.159 590.494 725.801 590.102 726.875H590.006V722.364H587.318V734H590.097V729.023ZM599.95 734.148C601.166 734.148 602.007 733.676 602.484 732.784H602.553V734H605.166V728.068C605.166 726.222 603.524 725.159 601.303 725.159C598.956 725.159 597.626 726.341 597.405 727.932L599.967 728.023C600.087 727.466 600.547 727.125 601.28 727.125C601.962 727.125 602.393 727.455 602.393 728.04V728.068C602.393 728.602 601.814 728.716 600.325 728.847C598.558 728.994 597.081 729.648 597.081 731.58C597.081 733.307 598.28 734.148 599.95 734.148ZM600.808 732.33C600.166 732.33 599.712 732.023 599.712 731.443C599.712 730.881 600.155 730.54 600.945 730.42C601.462 730.347 602.098 730.233 602.411 730.068V730.898C602.411 731.75 601.695 732.33 600.808 732.33ZM615.018 725.273H612.092L610.479 731.284H610.388L608.78 725.273H605.854L608.842 734H612.024L615.018 725.273ZM619.882 734.165C622.172 734.165 623.678 733.057 623.996 731.341L621.445 731.267C621.229 731.847 620.661 732.159 619.933 732.159C618.865 732.159 618.206 731.449 618.206 730.381V730.307H624.024V729.614C624.024 726.739 622.274 725.159 619.797 725.159C617.161 725.159 615.467 726.966 615.467 729.67C615.467 732.466 617.138 734.165 619.882 734.165ZM618.206 728.693C618.246 727.824 618.933 727.165 619.854 727.165C620.768 727.165 621.428 727.801 621.439 728.693H618.206ZM628.881 734H631.631V732.585H631.716C632.068 733.392 632.852 734.125 634.17 734.125C636.102 734.125 637.659 732.614 637.659 729.642C637.659 726.562 636.011 725.159 634.188 725.159C632.807 725.159 632.051 725.966 631.716 726.767H631.659V722.364H628.881V734ZM631.602 729.636C631.602 728.21 632.193 727.33 633.21 727.33C634.239 727.33 634.807 728.233 634.807 729.636C634.807 731.045 634.239 731.96 633.21 731.96C632.193 731.96 631.602 731.051 631.602 729.636ZM643.195 734.165C645.484 734.165 646.99 733.057 647.308 731.341L644.757 731.267C644.541 731.847 643.973 732.159 643.246 732.159C642.178 732.159 641.518 731.449 641.518 730.381V730.307H647.337V729.614C647.337 726.739 645.587 725.159 643.109 725.159C640.473 725.159 638.78 726.966 638.78 729.67C638.78 732.466 640.45 734.165 643.195 734.165ZM641.518 728.693C641.558 727.824 642.246 727.165 643.166 727.165C644.081 727.165 644.74 727.801 644.751 728.693H641.518ZM652.835 734.165C655.125 734.165 656.631 733.057 656.949 731.341L654.398 731.267C654.182 731.847 653.614 732.159 652.886 732.159C651.818 732.159 651.159 731.449 651.159 730.381V730.307H656.977V729.614C656.977 726.739 655.227 725.159 652.75 725.159C650.114 725.159 648.42 726.966 648.42 729.67C648.42 732.466 650.091 734.165 652.835 734.165ZM651.159 728.693C651.199 727.824 651.886 727.165 652.807 727.165C653.722 727.165 654.381 727.801 654.392 728.693H651.159ZM661.175 729.023C661.18 728.028 661.76 727.438 662.641 727.438C663.521 727.438 664.044 728.017 664.038 728.983V734H666.817V728.438C666.822 726.472 665.624 725.159 663.788 725.159C662.499 725.159 661.521 725.812 661.135 726.875H661.038V725.273H658.396V734H661.175V729.023ZM671.974 734H674.753V729.261C674.753 728.222 675.491 727.523 676.486 727.523C676.815 727.523 677.31 727.58 677.577 727.67V725.256C677.344 725.193 677.054 725.153 676.798 725.153C675.844 725.153 675.082 725.71 674.764 726.864H674.673V725.273H671.974V734ZM682.335 734.165C684.625 734.165 686.131 733.057 686.449 731.341L683.898 731.267C683.682 731.847 683.114 732.159 682.386 732.159C681.318 732.159 680.659 731.449 680.659 730.381V730.307H686.477V729.614C686.477 726.739 684.727 725.159 682.25 725.159C679.614 725.159 677.92 726.966 677.92 729.67C677.92 732.466 679.591 734.165 682.335 734.165ZM680.659 728.693C680.699 727.824 681.386 727.165 682.307 727.165C683.222 727.165 683.881 727.801 683.892 728.693H680.659ZM687.896 734H690.675V728.835C690.675 727.972 691.18 727.42 691.908 727.42C692.629 727.42 693.107 727.926 693.107 728.733V734H695.777V728.79C695.777 727.955 696.237 727.42 697.004 727.42C697.709 727.42 698.209 727.892 698.209 728.761V734H700.987V728.125C700.987 726.278 699.851 725.159 698.203 725.159C696.913 725.159 695.896 725.835 695.572 726.875H695.482C695.249 725.83 694.311 725.159 693.101 725.159C691.908 725.159 690.999 725.812 690.635 726.875H690.538V725.273H687.896V734ZM706.783 734.165C709.527 734.165 711.192 732.352 711.192 729.665C711.192 726.972 709.527 725.159 706.783 725.159C704.038 725.159 702.374 726.972 702.374 729.665C702.374 732.352 704.038 734.165 706.783 734.165ZM706.8 732.068C705.771 732.068 705.203 731.091 705.203 729.648C705.203 728.199 705.771 727.216 706.8 727.216C707.794 727.216 708.362 728.199 708.362 729.648C708.362 731.091 707.794 732.068 706.8 732.068ZM720.8 725.273H717.874L716.26 731.284H716.169L714.561 725.273H711.635L714.624 734H717.805L720.8 725.273ZM725.663 734.165C727.953 734.165 729.459 733.057 729.777 731.341L727.226 731.267C727.01 731.847 726.442 732.159 725.714 732.159C724.646 732.159 723.987 731.449 723.987 730.381V730.307H729.805V729.614C729.805 726.739 728.055 725.159 725.578 725.159C722.942 725.159 721.249 726.966 721.249 729.67C721.249 732.466 722.919 734.165 725.663 734.165ZM723.987 728.693C724.027 727.824 724.714 727.165 725.635 727.165C726.55 727.165 727.209 727.801 727.22 728.693H723.987ZM734.412 734.125C735.73 734.125 736.514 733.392 736.866 732.585H736.952V734H739.702V722.364H736.923V726.767H736.866C736.537 725.966 735.776 725.159 734.401 725.159C732.577 725.159 730.923 726.562 730.923 729.642C730.923 732.614 732.486 734.125 734.412 734.125ZM735.378 731.96C734.349 731.96 733.776 731.045 733.776 729.636C733.776 728.233 734.344 727.33 735.378 727.33C736.395 727.33 736.986 728.21 736.986 729.636C736.986 731.051 736.389 731.96 735.378 731.96ZM744.294 732.409H742.112L742.101 733.045C742.067 734.591 741.584 736.193 741.408 736.841H743.158C743.43 736.182 744.107 734.614 744.243 733.04L744.294 732.409ZM751.909 729.023C751.915 728.028 752.506 727.438 753.386 727.438C754.278 727.438 754.795 728.011 754.79 728.983V734H757.568V728.438C757.574 726.46 756.369 725.159 754.534 725.159C753.227 725.159 752.307 725.801 751.915 726.875H751.818V722.364H749.131V734H751.909V729.023ZM761.763 734.148C762.979 734.148 763.82 733.676 764.297 732.784H764.365V734H766.979V728.068C766.979 726.222 765.337 725.159 763.115 725.159C760.768 725.159 759.439 726.341 759.217 727.932L761.78 728.023C761.899 727.466 762.359 727.125 763.092 727.125C763.774 727.125 764.206 727.455 764.206 728.04V728.068C764.206 728.602 763.626 728.716 762.138 728.847C760.371 728.994 758.893 729.648 758.893 731.58C758.893 733.307 760.092 734.148 761.763 734.148ZM762.621 732.33C761.979 732.33 761.524 732.023 761.524 731.443C761.524 730.881 761.967 730.54 762.757 730.42C763.274 730.347 763.911 730.233 764.223 730.068V730.898C764.223 731.75 763.507 732.33 762.621 732.33ZM771.865 734.125C773.183 734.125 773.967 733.392 774.32 732.585H774.405V734H777.155V722.364H774.376V726.767H774.32C773.99 725.966 773.229 725.159 771.854 725.159C770.03 725.159 768.376 726.562 768.376 729.642C768.376 732.614 769.939 734.125 771.865 734.125ZM772.831 731.96C771.803 731.96 771.229 731.045 771.229 729.636C771.229 728.233 771.797 727.33 772.831 727.33C773.848 727.33 774.439 728.21 774.439 729.636C774.439 731.051 773.842 731.96 772.831 731.96ZM782.349 734H785.128V725.273H782.349V734ZM783.741 724.256C784.531 724.256 785.168 723.659 785.168 722.926C785.168 722.193 784.531 721.602 783.741 721.602C782.957 721.602 782.315 722.193 782.315 722.926C782.315 723.659 782.957 724.256 783.741 724.256ZM791.822 725.273H790.249V723.182H787.47V725.273H786.317V727.318H787.47V731.562C787.453 733.33 788.601 734.216 790.561 734.125C791.232 734.091 791.714 733.955 791.982 733.875L791.561 731.869C791.442 731.898 791.163 731.955 790.953 731.955C790.504 731.955 790.249 731.773 790.249 731.256V727.318H791.822V725.273ZM800.75 727.938C800.602 726.21 799.188 725.159 796.824 725.159C794.46 725.159 792.955 726.188 792.966 727.938C792.955 729.278 793.812 730.142 795.557 730.466L797.08 730.756C797.801 730.898 798.131 731.125 798.142 731.511C798.131 731.949 797.642 732.239 796.932 732.239C796.142 732.239 795.608 731.898 795.489 731.261L792.744 731.33C792.943 733.057 794.426 734.165 796.92 734.165C799.256 734.165 800.955 733 800.966 731.205C800.955 729.932 800.114 729.176 798.375 728.841L796.693 728.523C795.955 728.375 795.716 728.114 795.722 727.778C795.716 727.335 796.233 727.062 796.875 727.062C797.608 727.062 798.119 727.455 798.199 728.006L800.75 727.938ZM808.55 729.023C808.555 728.028 809.135 727.438 810.016 727.438C810.896 727.438 811.419 728.017 811.413 728.983V734H814.192V728.438C814.197 726.472 812.999 725.159 811.163 725.159C809.874 725.159 808.896 725.812 808.51 726.875H808.413V725.273H805.771V734H808.55V729.023ZM818.372 734.148C819.588 734.148 820.429 733.676 820.906 732.784H820.974V734H823.588V728.068C823.588 726.222 821.946 725.159 819.724 725.159C817.378 725.159 816.048 726.341 815.827 727.932L818.389 728.023C818.509 727.466 818.969 727.125 819.702 727.125C820.384 727.125 820.815 727.455 820.815 728.04V728.068C820.815 728.602 820.236 728.716 818.747 728.847C816.98 728.994 815.503 729.648 815.503 731.58C815.503 733.307 816.702 734.148 818.372 734.148ZM819.23 732.33C818.588 732.33 818.134 732.023 818.134 731.443C818.134 730.881 818.577 730.54 819.366 730.42C819.884 730.347 820.52 730.233 820.832 730.068V730.898C820.832 731.75 820.116 732.33 819.23 732.33ZM825.287 734H828.065V728.835C828.065 727.972 828.571 727.42 829.298 727.42C830.02 727.42 830.497 727.926 830.497 728.733V734H833.168V728.79C833.168 727.955 833.628 727.42 834.395 727.42C835.099 727.42 835.599 727.892 835.599 728.761V734H838.378V728.125C838.378 726.278 837.241 725.159 835.594 725.159C834.304 725.159 833.287 725.835 832.963 726.875H832.872C832.639 725.83 831.702 725.159 830.491 725.159C829.298 725.159 828.389 725.812 828.026 726.875H827.929V725.273H825.287V734ZM844.179 734.165C846.469 734.165 847.974 733.057 848.293 731.341L845.741 731.267C845.526 731.847 844.957 732.159 844.23 732.159C843.162 732.159 842.503 731.449 842.503 730.381V730.307H848.321V729.614C848.321 726.739 846.571 725.159 844.094 725.159C841.457 725.159 839.764 726.966 839.764 729.67C839.764 732.466 841.435 734.165 844.179 734.165ZM842.503 728.693C842.543 727.824 843.23 727.165 844.151 727.165C845.065 727.165 845.724 727.801 845.736 728.693H842.503ZM857.251 734.165C859.706 734.165 861.229 732.739 861.303 730.58H858.706C858.604 731.506 858.047 732.011 857.286 732.011C856.308 732.011 855.672 731.188 855.672 729.636C855.672 728.097 856.314 727.273 857.286 727.273C858.081 727.273 858.598 727.812 858.706 728.705H861.303C861.24 726.557 859.672 725.159 857.246 725.159C854.501 725.159 852.842 726.989 852.842 729.665C852.842 732.33 854.49 734.165 857.251 734.165ZM865.503 729.023C865.509 728.028 866.099 727.438 866.98 727.438C867.872 727.438 868.389 728.011 868.384 728.983V734H871.162V728.438C871.168 726.46 869.963 725.159 868.128 725.159C866.821 725.159 865.901 725.801 865.509 726.875H865.412V722.364H862.724V734H865.503V729.023ZM875.357 734.148C876.572 734.148 877.413 733.676 877.891 732.784H877.959V734H880.572V728.068C880.572 726.222 878.93 725.159 876.709 725.159C874.362 725.159 873.033 726.341 872.811 727.932L875.374 728.023C875.493 727.466 875.953 727.125 876.686 727.125C877.368 727.125 877.8 727.455 877.8 728.04V728.068C877.8 728.602 877.22 728.716 875.732 728.847C873.964 728.994 872.487 729.648 872.487 731.58C872.487 733.307 873.686 734.148 875.357 734.148ZM876.214 732.33C875.572 732.33 875.118 732.023 875.118 731.443C875.118 730.881 875.561 730.54 876.351 730.42C876.868 730.347 877.504 730.233 877.817 730.068V730.898C877.817 731.75 877.101 732.33 876.214 732.33ZM885.05 729.023C885.055 728.028 885.635 727.438 886.516 727.438C887.396 727.438 887.919 728.017 887.913 728.983V734H890.692V728.438C890.697 726.472 889.499 725.159 887.663 725.159C886.374 725.159 885.396 725.812 885.01 726.875H884.913V725.273H882.271V734H885.05V729.023ZM896.48 737.455C899.111 737.455 900.906 736.256 900.906 734.034V725.273H898.139V726.767H898.06C897.724 725.966 896.963 725.159 895.588 725.159C893.764 725.159 892.111 726.562 892.111 729.625C892.111 732.591 893.685 733.881 895.599 733.881C896.884 733.881 897.741 733.284 898.071 732.477H898.168V734.011C898.168 735.125 897.486 735.528 896.554 735.528C895.662 735.528 895.128 735.188 894.98 734.648L892.349 734.795C892.554 736.324 893.991 737.455 896.48 737.455ZM896.565 731.858C895.537 731.858 894.963 731.023 894.963 729.625C894.963 728.233 895.531 727.33 896.565 727.33C897.582 727.33 898.173 728.21 898.173 729.625C898.173 731.028 897.577 731.858 896.565 731.858ZM906.757 734.165C909.047 734.165 910.553 733.057 910.871 731.341L908.32 731.267C908.104 731.847 907.536 732.159 906.808 732.159C905.74 732.159 905.081 731.449 905.081 730.381V730.307H910.899V729.614C910.899 726.739 909.149 725.159 906.672 725.159C904.036 725.159 902.342 726.966 902.342 729.67C902.342 732.466 904.013 734.165 906.757 734.165ZM905.081 728.693C905.121 727.824 905.808 727.165 906.729 727.165C907.643 727.165 908.303 727.801 908.314 728.693H905.081ZM915.506 734.125C916.824 734.125 917.608 733.392 917.96 732.585H918.045V734H920.795V722.364H918.017V726.767H917.96C917.631 725.966 916.869 725.159 915.494 725.159C913.67 725.159 912.017 726.562 912.017 729.642C912.017 732.614 913.58 734.125 915.506 734.125ZM916.472 731.96C915.443 731.96 914.869 731.045 914.869 729.636C914.869 728.233 915.438 727.33 916.472 727.33C917.489 727.33 918.08 728.21 918.08 729.636C918.08 731.051 917.483 731.96 916.472 731.96ZM925.388 732.409H923.206L923.195 733.045C923.161 734.591 922.678 736.193 922.501 736.841H924.251C924.524 736.182 925.2 734.614 925.337 733.04L925.388 732.409ZM934.298 734.165C937.043 734.165 938.707 732.352 938.707 729.665C938.707 726.972 937.043 725.159 934.298 725.159C931.554 725.159 929.889 726.972 929.889 729.665C929.889 732.352 931.554 734.165 934.298 734.165ZM934.315 732.068C933.287 732.068 932.719 731.091 932.719 729.648C932.719 728.199 933.287 727.216 934.315 727.216C935.31 727.216 935.878 728.199 935.878 729.648C935.878 731.091 935.31 732.068 934.315 732.068ZM940.131 734H942.909V729.261C942.909 728.222 943.648 727.523 944.642 727.523C944.972 727.523 945.466 727.58 945.733 727.67V725.256C945.5 725.193 945.21 725.153 944.955 725.153C944 725.153 943.239 725.71 942.92 726.864H942.83V725.273H940.131V734ZM950.303 734H953.081V725.273H950.303V734ZM951.695 724.256C952.484 724.256 953.121 723.659 953.121 722.926C953.121 722.193 952.484 721.602 951.695 721.602C950.911 721.602 950.268 722.193 950.268 722.926C950.268 723.659 950.911 724.256 951.695 724.256ZM962.469 727.938C962.321 726.21 960.906 725.159 958.543 725.159C956.179 725.159 954.673 726.188 954.685 727.938C954.673 729.278 955.531 730.142 957.276 730.466L958.798 730.756C959.52 730.898 959.849 731.125 959.861 731.511C959.849 731.949 959.361 732.239 958.651 732.239C957.861 732.239 957.327 731.898 957.207 731.261L954.463 731.33C954.662 733.057 956.145 734.165 958.639 734.165C960.974 734.165 962.673 733 962.685 731.205C962.673 729.932 961.832 729.176 960.094 728.841L958.412 728.523C957.673 728.375 957.435 728.114 957.44 727.778C957.435 727.335 957.952 727.062 958.594 727.062C959.327 727.062 959.838 727.455 959.918 728.006L962.469 727.938ZM972.416 725.273H970.842V723.182H968.064V725.273H966.911V727.318H968.064V731.562C968.047 733.33 969.195 734.216 971.155 734.125C971.825 734.091 972.308 733.955 972.575 733.875L972.155 731.869C972.036 731.898 971.757 731.955 971.547 731.955C971.098 731.955 970.842 731.773 970.842 731.256V727.318H972.416V725.273ZM977.82 734.165C980.109 734.165 981.615 733.057 981.933 731.341L979.382 731.267C979.166 731.847 978.598 732.159 977.871 732.159C976.803 732.159 976.143 731.449 976.143 730.381V730.307H981.962V729.614C981.962 726.739 980.212 725.159 977.734 725.159C975.098 725.159 973.405 726.966 973.405 729.67C973.405 732.466 975.075 734.165 977.82 734.165ZM976.143 728.693C976.183 727.824 976.871 727.165 977.791 727.165C978.706 727.165 979.365 727.801 979.376 728.693H976.143ZM983.381 734H986.159V728.835C986.159 727.972 986.665 727.42 987.392 727.42C988.114 727.42 988.591 727.926 988.591 728.733V734H991.261V728.79C991.261 727.955 991.722 727.42 992.489 727.42C993.193 727.42 993.693 727.892 993.693 728.761V734H996.472V728.125C996.472 726.278 995.335 725.159 993.688 725.159C992.398 725.159 991.381 725.835 991.057 726.875H990.966C990.733 725.83 989.795 725.159 988.585 725.159C987.392 725.159 986.483 725.812 986.119 726.875H986.023V725.273H983.381V734ZM998.193 737.273H1000.97V732.585H1001.03C1001.38 733.392 1002.16 734.125 1003.48 734.125C1005.41 734.125 1006.97 732.614 1006.97 729.642C1006.97 726.562 1005.32 725.159 1003.5 725.159C1002.12 725.159 1001.36 725.966 1001.03 726.767H1000.94V725.273H998.193V737.273ZM1000.91 729.636C1000.91 728.21 1001.51 727.33 1002.52 727.33C1003.55 727.33 1004.12 728.233 1004.12 729.636C1004.12 731.045 1003.55 731.96 1002.52 731.96C1001.51 731.96 1000.91 731.051 1000.91 729.636ZM1012.5 734.165C1015.25 734.165 1016.91 732.352 1016.91 729.665C1016.91 726.972 1015.25 725.159 1012.5 725.159C1009.76 725.159 1008.09 726.972 1008.09 729.665C1008.09 732.352 1009.76 734.165 1012.5 734.165ZM1012.52 732.068C1011.49 732.068 1010.92 731.091 1010.92 729.648C1010.92 728.199 1011.49 727.216 1012.52 727.216C1013.51 727.216 1014.08 728.199 1014.08 729.648C1014.08 731.091 1013.51 732.068 1012.52 732.068ZM1018.33 734H1021.11V729.261C1021.11 728.222 1021.85 727.523 1022.85 727.523C1023.17 727.523 1023.67 727.58 1023.94 727.67V725.256C1023.7 725.193 1023.41 725.153 1023.16 725.153C1022.2 725.153 1021.44 725.71 1021.12 726.864H1021.03V725.273H1018.33V734ZM1027.2 734.148C1028.42 734.148 1029.26 733.676 1029.73 732.784H1029.8V734H1032.42V728.068C1032.42 726.222 1030.77 725.159 1028.55 725.159C1026.21 725.159 1024.88 726.341 1024.65 727.932L1027.22 728.023C1027.34 727.466 1027.8 727.125 1028.53 727.125C1029.21 727.125 1029.64 727.455 1029.64 728.04V728.068C1029.64 728.602 1029.06 728.716 1027.58 728.847C1025.81 728.994 1024.33 729.648 1024.33 731.58C1024.33 733.307 1025.53 734.148 1027.2 734.148ZM1028.06 732.33C1027.42 732.33 1026.96 732.023 1026.96 731.443C1026.96 730.881 1027.4 730.54 1028.19 730.42C1028.71 730.347 1029.35 730.233 1029.66 730.068V730.898C1029.66 731.75 1028.94 732.33 1028.06 732.33ZM1034.12 734H1036.89V729.261C1036.89 728.222 1037.63 727.523 1038.63 727.523C1038.96 727.523 1039.45 727.58 1039.72 727.67V725.256C1039.48 725.193 1039.19 725.153 1038.94 725.153C1037.98 725.153 1037.22 725.71 1036.9 726.864H1036.81V725.273H1034.12V734ZM1040.85 734H1043.63V725.273H1040.85V734ZM1042.24 724.256C1043.03 724.256 1043.67 723.659 1043.67 722.926C1043.67 722.193 1043.03 721.602 1042.24 721.602C1041.46 721.602 1040.82 722.193 1040.82 722.926C1040.82 723.659 1041.46 724.256 1042.24 724.256ZM1048.17 722.364H1045.4V734H1048.17V722.364ZM1051.64 737.273C1053.64 737.273 1054.64 736.261 1055.12 734.835L1058.41 725.278L1055.48 725.273L1053.85 731.5H1053.76L1052.15 725.273H1049.24L1052.35 734.318L1052.24 734.58C1051.97 735.233 1051.37 735.244 1050.55 734.977L1049.94 736.994C1050.36 737.165 1050.98 737.273 1051.64 737.273ZM1068.54 730.233C1068.54 731.25 1067.89 731.818 1067.07 731.818C1066.22 731.818 1065.7 731.239 1065.69 730.29V725.273H1062.91V730.835C1062.92 732.807 1064.12 734.114 1065.91 734.114C1067.22 734.114 1068.19 733.443 1068.58 732.375H1068.67V734H1071.32V725.273H1068.54V730.233ZM1075.86 729.023C1075.87 728.028 1076.45 727.438 1077.33 727.438C1078.21 727.438 1078.73 728.017 1078.73 728.983V734H1081.5V728.438C1081.51 726.472 1080.31 725.159 1078.48 725.159C1077.19 725.159 1076.21 725.812 1075.82 726.875H1075.73V725.273H1073.08V734H1075.86V729.023ZM1085.68 734.148C1086.9 734.148 1087.74 733.676 1088.22 732.784H1088.29V734H1090.9V728.068C1090.9 726.222 1089.26 725.159 1087.04 725.159C1084.69 725.159 1083.36 726.341 1083.14 727.932L1085.7 728.023C1085.82 727.466 1086.28 727.125 1087.01 727.125C1087.7 727.125 1088.13 727.455 1088.13 728.04V728.068C1088.13 728.602 1087.55 728.716 1086.06 728.847C1084.29 728.994 1082.82 729.648 1082.82 731.58C1082.82 733.307 1084.01 734.148 1085.68 734.148ZM1086.54 732.33C1085.9 732.33 1085.45 732.023 1085.45 731.443C1085.45 730.881 1085.89 730.54 1086.68 730.42C1087.2 730.347 1087.83 730.233 1088.14 730.068V730.898C1088.14 731.75 1087.43 732.33 1086.54 732.33ZM1100.75 725.273H1097.83L1096.21 731.284H1096.12L1094.51 725.273H1091.59L1094.58 734H1097.76L1100.75 725.273ZM1104.04 734.148C1105.26 734.148 1106.1 733.676 1106.58 732.784H1106.65V734H1109.26V728.068C1109.26 726.222 1107.62 725.159 1105.4 725.159C1103.05 725.159 1101.72 726.341 1101.5 727.932L1104.06 728.023C1104.18 727.466 1104.64 727.125 1105.37 727.125C1106.06 727.125 1106.49 727.455 1106.49 728.04V728.068C1106.49 728.602 1105.91 728.716 1104.42 728.847C1102.65 728.994 1101.17 729.648 1101.17 731.58C1101.17 733.307 1102.37 734.148 1104.04 734.148ZM1104.9 732.33C1104.26 732.33 1103.81 732.023 1103.81 731.443C1103.81 730.881 1104.25 730.54 1105.04 730.42C1105.56 730.347 1106.19 730.233 1106.5 730.068V730.898C1106.5 731.75 1105.79 732.33 1104.9 732.33ZM1110.96 734H1113.74V725.273H1110.96V734ZM1112.35 724.256C1113.14 724.256 1113.78 723.659 1113.78 722.926C1113.78 722.193 1113.14 721.602 1112.35 721.602C1111.57 721.602 1110.92 722.193 1110.92 722.926C1110.92 723.659 1111.57 724.256 1112.35 724.256ZM1118.28 722.364H1115.51V734H1118.28V722.364ZM1122.51 734.148C1123.73 734.148 1124.57 733.676 1125.05 732.784H1125.12V734H1127.73V728.068C1127.73 726.222 1126.09 725.159 1123.87 725.159C1121.52 725.159 1120.19 726.341 1119.97 727.932L1122.53 728.023C1122.65 727.466 1123.11 727.125 1123.84 727.125C1124.52 727.125 1124.96 727.455 1124.96 728.04V728.068C1124.96 728.602 1124.38 728.716 1122.89 728.847C1121.12 728.994 1119.64 729.648 1119.64 731.58C1119.64 733.307 1120.84 734.148 1122.51 734.148ZM1123.37 732.33C1122.73 732.33 1122.27 732.023 1122.27 731.443C1122.27 730.881 1122.72 730.54 1123.51 730.42C1124.02 730.347 1124.66 730.233 1124.97 730.068V730.898C1124.97 731.75 1124.26 732.33 1123.37 732.33ZM1129.43 734H1132.18V732.585H1132.26C1132.62 733.392 1133.4 734.125 1134.72 734.125C1136.65 734.125 1138.21 732.614 1138.21 729.642C1138.21 726.562 1136.56 725.159 1134.73 725.159C1133.35 725.159 1132.6 725.966 1132.26 726.767H1132.21V722.364H1129.43V734ZM1132.15 729.636C1132.15 728.21 1132.74 727.33 1133.76 727.33C1134.79 727.33 1135.35 728.233 1135.35 729.636C1135.35 731.045 1134.79 731.96 1133.76 731.96C1132.74 731.96 1132.15 731.051 1132.15 729.636ZM1142.44 722.364H1139.66V734H1142.44V722.364ZM1148.29 734.165C1150.58 734.165 1152.08 733.057 1152.4 731.341L1149.85 731.267C1149.63 731.847 1149.07 732.159 1148.34 732.159C1147.27 732.159 1146.61 731.449 1146.61 730.381V730.307H1152.43V729.614C1152.43 726.739 1150.68 725.159 1148.2 725.159C1145.57 725.159 1143.87 726.966 1143.87 729.67C1143.87 732.466 1145.54 734.165 1148.29 734.165ZM1146.61 728.693C1146.65 727.824 1147.34 727.165 1148.26 727.165C1149.17 727.165 1149.83 727.801 1149.85 728.693H1146.61ZM1155.41 734.165C1156.19 734.165 1156.88 733.506 1156.89 732.688C1156.88 731.881 1156.19 731.227 1155.41 731.227C1154.59 731.227 1153.92 731.881 1153.93 732.688C1153.92 733.506 1154.59 734.165 1155.41 734.165Z" fill="white"/>
</g>
<g clip-path="url(#clip2_0_53)">
<rect x="559" y="797" width="322" height="82" rx="41" fill="#E26C56"/>
<path d="M679.438 845H684.456C687.499 845 688.873 843.485 688.873 841.478C688.873 839.452 687.454 838.308 686.156 838.237V838.109C687.358 837.803 688.362 836.984 688.362 835.348C688.362 833.411 687.019 831.909 684.232 831.909H679.438V845ZM681.413 843.306V839.113H684.335C685.92 839.113 686.911 840.136 686.911 841.382C686.911 842.482 686.163 843.306 684.264 843.306H681.413ZM681.413 837.572V833.59H684.111C685.677 833.59 686.425 834.415 686.425 835.501C686.425 836.767 685.389 837.572 684.06 837.572H681.413ZM693.919 845.217C695.543 845.217 696.457 844.393 696.821 843.658H696.898V845H698.765V838.48C698.765 835.623 696.515 835.054 694.955 835.054C693.178 835.054 691.542 835.77 690.902 837.56L692.699 837.969C692.98 837.272 693.696 836.601 694.98 836.601C696.214 836.601 696.847 837.246 696.847 838.359V838.403C696.847 839.1 696.131 839.087 694.367 839.292C692.507 839.509 690.602 839.995 690.602 842.226C690.602 844.156 692.053 845.217 693.919 845.217ZM694.335 843.683C693.255 843.683 692.475 843.197 692.475 842.251C692.475 841.229 693.382 840.864 694.488 840.717C695.108 840.634 696.578 840.468 696.853 840.193V841.459C696.853 842.622 695.926 843.683 694.335 843.683ZM705.446 845.198C707.766 845.198 709.268 843.805 709.479 841.893H707.619C707.376 842.955 706.552 843.581 705.459 843.581C703.841 843.581 702.8 842.232 702.8 840.091C702.8 837.988 703.861 836.665 705.459 836.665C706.673 836.665 707.415 837.432 707.619 838.352H709.479C709.275 836.371 707.657 835.054 705.427 835.054C702.659 835.054 700.869 837.138 700.869 840.136C700.869 843.095 702.595 845.198 705.446 845.198ZM711.523 845H713.434V841.516L714.387 840.564L717.723 845H720.069L715.825 839.394L719.801 835.182H717.512L713.6 839.337H713.434V831.909H711.523V845ZM730.889 835.182H728.876V832.83H726.965V835.182H725.526V836.716H726.965V842.513C726.958 844.297 728.32 845.16 729.828 845.128C730.436 845.121 730.845 845.006 731.068 844.923L730.723 843.344C730.595 843.37 730.359 843.428 730.052 843.428C729.432 843.428 728.876 843.223 728.876 842.117V836.716H730.889V835.182ZM737.034 845.198C739.801 845.198 741.61 843.172 741.61 840.136C741.61 837.08 739.801 835.054 737.034 835.054C734.266 835.054 732.457 837.08 732.457 840.136C732.457 843.172 734.266 845.198 737.034 845.198ZM737.04 843.594C735.231 843.594 734.387 842.015 734.387 840.129C734.387 838.25 735.231 836.652 737.04 836.652C738.836 836.652 739.68 838.25 739.68 840.129C739.68 842.015 738.836 843.594 737.04 843.594ZM750.419 839.17C750.419 837.604 751.409 836.71 752.771 836.71C754.088 836.71 754.874 837.547 754.874 838.985V845H756.785V838.755C756.785 836.307 755.443 835.054 753.423 835.054C751.895 835.054 750.975 835.719 750.515 836.78H750.393V831.909H748.507V845H750.419V839.17ZM763.471 845.198C766.239 845.198 768.048 843.172 768.048 840.136C768.048 837.08 766.239 835.054 763.471 835.054C760.703 835.054 758.895 837.08 758.895 840.136C758.895 843.172 760.703 845.198 763.471 845.198ZM763.478 843.594C761.669 843.594 760.825 842.015 760.825 840.129C760.825 838.25 761.669 836.652 763.478 836.652C765.274 836.652 766.118 838.25 766.118 840.129C766.118 842.015 765.274 843.594 763.478 843.594ZM770.181 845H772.093V838.947C772.093 837.624 773.019 836.703 774.106 836.703C775.167 836.703 775.902 837.406 775.902 838.474V845H777.807V838.742C777.807 837.56 778.529 836.703 779.776 836.703C780.786 836.703 781.617 837.266 781.617 838.595V845H783.528V838.416C783.528 836.173 782.275 835.054 780.498 835.054C779.085 835.054 778.024 835.732 777.551 836.78H777.449C777.021 835.706 776.119 835.054 774.809 835.054C773.512 835.054 772.546 835.7 772.137 836.78H772.016V835.182H770.181V845ZM790.321 845.198C792.462 845.198 793.977 844.143 794.412 842.545L792.603 842.219C792.258 843.146 791.427 843.619 790.34 843.619C788.704 843.619 787.604 842.558 787.553 840.666H794.533V839.989C794.533 836.441 792.411 835.054 790.187 835.054C787.451 835.054 785.648 837.138 785.648 840.155C785.648 843.204 787.425 845.198 790.321 845.198ZM787.56 839.234C787.636 837.841 788.646 836.633 790.2 836.633C791.683 836.633 792.654 837.732 792.661 839.234H787.56Z" fill="white"/>
<path d="M649.132 837.528L654.537 832.132C654.625 832.044 654.73 832 654.854 832C654.977 832 655.082 832.044 655.17 832.132C655.258 832.22 655.302 832.325 655.302 832.448C655.302 832.571 655.258 832.677 655.17 832.765L650.538 837.396H665.198C665.327 837.396 665.436 837.44 665.523 837.528C665.611 837.616 665.655 837.725 665.655 837.854C665.655 837.977 665.611 838.082 665.523 838.17C665.436 838.258 665.327 838.302 665.198 838.302H650.538L655.17 842.934C655.258 843.021 655.302 843.127 655.302 843.25C655.302 843.373 655.258 843.479 655.17 843.566C655.129 843.613 655.081 843.647 655.025 843.667C654.969 843.688 654.912 843.698 654.854 843.698C654.795 843.698 654.738 843.688 654.682 843.667C654.626 843.647 654.578 843.613 654.537 843.566L649.132 838.17C649.044 838.082 649 837.975 649 837.849C649 837.723 649.044 837.616 649.132 837.528Z" fill="white"/>
</g>
<path d="M391.545 406.323C460.315 457.636 542.753 450.595 533.248 504.811C523.742 559.027 402.1 636.53 303.685 599.193C205.271 561.855 156.194 326.281 228.554 281.048C300.914 235.814 322.776 355.009 391.545 406.323Z" stroke="#6A9360" stroke-width="4"/>
<path d="M385.874 413.297C440.485 453.984 505.951 448.401 498.403 491.389C490.854 534.377 394.256 595.829 316.103 566.224C237.95 536.619 198.978 349.833 256.44 313.967C313.903 278.101 331.263 372.611 385.874 413.297Z" stroke="#6A9360" stroke-width="3"/>
<path d="M379.069 421.667C416.69 449.601 461.788 445.768 456.588 475.282C451.388 504.796 384.843 546.987 331.004 526.661C277.166 506.335 250.318 378.094 289.903 353.47C329.488 328.845 341.448 393.733 379.069 421.667Z" stroke="#6A9360" stroke-width="2"/>
<path d="M371.778 430.634C391.195 444.905 414.471 442.946 411.788 458.024C409.104 473.102 374.758 494.656 346.97 484.273C319.182 473.889 305.325 408.374 325.756 395.794C346.188 383.215 352.36 416.364 371.778 430.634Z" stroke="#6A9360"/>
<path d="M411.068 532.364H523.455V571H577.205V532.364H605.045V488.045H577.205V338.273H506.409L411.068 488.5V532.364ZM524.591 488.045H466.977V486.227L522.773 397.818H524.591V488.045ZM837.943 532.364H950.33V571H1004.08V532.364H1031.92V488.045H1004.08V338.273H933.284L837.943 488.5V532.364ZM951.466 488.045H893.852V486.227L949.648 397.818H951.466V488.045Z" fill="white"/>
<circle cx="720.5" cy="442.5" r="113.5" fill="#223051"/>
<circle cx="807.5" cy="384.5" r="55.5" fill="#FFBA5F"/>
<path d="M912.555 240.281C886 284 961.522 326.236 1016.45 399.5C1071.37 472.764 1099.8 529.367 1172.01 540C1244.22 550.633 1329.31 498.669 1334.55 428.68C1339.8 358.69 1211.2 296.603 1129.21 260C1047.22 223.397 939.109 196.562 912.555 240.281Z" stroke="#E26C56" stroke-width="4"/>
<path d="M960.123 271.993C939.632 305.755 997.91 338.371 1040.29 394.949C1082.68 451.526 1104.61 495.237 1160.34 503.448C1216.06 511.66 1281.72 471.531 1285.77 417.482C1289.81 363.434 1190.58 315.488 1127.31 287.221C1064.04 258.954 980.615 238.232 960.123 271.993Z" stroke="#E26C56" stroke-width="3"/>
<path d="M1023.45 314.142C1011.04 334.669 1046.36 354.5 1072.04 388.899C1097.73 423.298 1111.02 449.875 1144.8 454.867C1178.57 459.86 1218.36 435.461 1220.82 402.6C1223.27 369.738 1163.13 340.587 1124.78 323.401C1086.44 306.215 1035.87 293.615 1023.45 314.142Z" stroke="#E26C56" stroke-width="2"/>
<path d="M1068.27 344.249C1061.57 355.323 1080.64 366.021 1094.51 384.578C1108.38 403.136 1115.56 417.473 1133.8 420.166C1152.03 422.859 1173.52 409.697 1174.85 391.969C1176.17 374.241 1143.7 358.515 1122.99 349.244C1102.28 339.972 1074.98 333.175 1068.27 344.249Z" stroke="#E26C56"/>
</g>
<defs>
<clipPath id="clip0_0_53">
<rect width="1440" height="1080" fill="white"/>
</clipPath>
<clipPath id="clip1_0_53">
<rect width="1070" height="104" fill="white" transform="translate(185 637)"/>
</clipPath>
<clipPath id="clip2_0_53">
<rect width="322" height="82" fill="white" transform="translate(559 797)"/>
</clipPath>
</defs>
</svg>
