<svg width="1439" height="241" viewBox="0 0 1439 241" fill="none" xmlns="http://www.w3.org/2000/svg">
<g opacity="0.1">
<path d="M20.5326 69.0369L0.829712 34.9083L20.5326 0.779785H59.9406L79.6456 34.9083L59.9406 69.0369H20.5326Z" stroke="#0095FF" stroke-width="0.51779"/>
<path d="M79.6684 103.174L59.9655 69.0452L79.6684 34.9166H119.076L138.779 69.0452L119.076 103.174H79.6684Z" stroke="#0095FF" stroke-width="0.51779"/>
<path d="M138.678 69.0369L118.973 34.9083L138.678 0.779785H178.086L197.789 34.9083L178.086 69.0369H138.678Z" stroke="#0095FF" stroke-width="0.51779"/>
<path d="M197.811 103.174L178.109 69.0452L197.811 34.9166H237.219L256.922 69.0452L237.219 103.174H197.811Z" stroke="#0095FF" stroke-width="0.51779"/>
<path d="M256.821 69.0369L237.116 34.9083L256.821 0.779785H296.229L315.932 34.9083L296.229 69.0369H256.821Z" stroke="#0095FF" stroke-width="0.51779"/>
<path d="M315.955 103.174L296.252 69.0452L315.955 34.9166H355.362L375.067 69.0452L355.362 103.174H315.955Z" stroke="#0095FF" stroke-width="0.51779"/>
<path d="M374.964 69.0369L355.259 34.9083L374.964 0.779785H414.372L434.075 34.9083L414.372 69.0369H374.964Z" stroke="#0095FF" stroke-width="0.51779"/>
<path d="M434.1 103.174L414.395 69.0452L434.1 34.9166H473.508L493.211 69.0452L473.508 103.174H434.1Z" stroke="#0095FF" stroke-width="0.51779"/>
<path d="M493.107 69.0369L473.402 34.9083L493.107 0.779785H532.515L552.218 34.9083L532.515 69.0369H493.107Z" stroke="#0095FF" stroke-width="0.51779"/>
<path d="M552.243 103.174L532.54 69.0452L552.243 34.9166H591.649L611.354 69.0452L591.649 103.174H552.243Z" stroke="#0095FF" stroke-width="0.51779"/>
<path d="M611.252 69.0369L591.545 34.9083L611.252 0.779785H650.658L670.361 34.9083L650.658 69.0369H611.252Z" stroke="#0095FF" stroke-width="0.51779"/>
<path d="M670.386 103.174L650.683 69.0452L670.386 34.9166H709.792L729.497 69.0452L709.792 103.174H670.386Z" stroke="#0095FF" stroke-width="0.51779"/>
<path d="M729.395 69.0369L709.69 34.9083L729.395 0.779785H768.801L788.506 34.9083L768.801 69.0369H729.395Z" stroke="#0095FF" stroke-width="0.51779"/>
<path d="M788.529 103.174L768.826 69.0452L788.529 34.9166H827.937L847.642 69.0452L827.937 103.174H788.529Z" stroke="#0095FF" stroke-width="0.51779"/>
<path d="M847.538 69.0369L827.833 34.9083L847.538 0.779785H886.944L906.649 34.9083L886.944 69.0369H847.538Z" stroke="#0095FF" stroke-width="0.51779"/>
<path d="M906.672 103.174L886.971 69.0452L906.672 34.9166H946.08L965.783 69.0452L946.08 103.174H906.672Z" stroke="#0095FF" stroke-width="0.51779"/>
<path d="M965.683 69.0369L945.976 34.9083L965.683 0.779785H1005.09L1024.79 34.9083L1005.09 69.0369H965.683Z" stroke="#0095FF" stroke-width="0.51779"/>
<path d="M1024.82 103.174L1005.11 69.0452L1024.82 34.9166H1064.22L1083.93 69.0452L1064.22 103.174H1024.82Z" stroke="#0095FF" stroke-width="0.51779"/>
<path d="M1083.83 69.0369L1064.12 34.9083L1083.83 0.779785H1123.23L1142.94 34.9083L1123.23 69.0369H1083.83Z" stroke="#0095FF" stroke-width="0.51779"/>
<path d="M1142.96 103.174L1123.26 69.0452L1142.96 34.9166H1182.37L1202.07 69.0452L1182.37 103.174H1142.96Z" stroke="#0095FF" stroke-width="0.51779"/>
<path d="M1201.97 69.0369L1182.26 34.9083L1201.97 0.779785H1241.37L1261.08 34.9083L1241.37 69.0369H1201.97Z" stroke="#0095FF" stroke-width="0.51779"/>
<path d="M1261.1 103.174L1241.4 69.0452L1261.1 34.9166H1300.51L1320.21 69.0452L1300.51 103.174H1261.1Z" stroke="#0095FF" stroke-width="0.51779"/>
<path d="M1320.11 69.0369L1300.41 34.9083L1320.11 0.779785H1359.52L1379.22 34.9083L1359.52 69.0369H1320.11Z" stroke="#0095FF" stroke-width="0.51779"/>
<path d="M1379.25 103.174L1359.54 69.0452L1379.25 34.9166H1418.65L1438.36 69.0452L1418.65 103.174H1379.25Z" stroke="#0095FF" stroke-width="0.51779"/>
</g>
<g opacity="0.1">
<path d="M20.5326 137.58L0.829712 103.451L20.5326 69.3228H59.9406L79.6456 103.451L59.9406 137.58H20.5326Z" stroke="#0095FF" stroke-width="0.51779"/>
<path d="M79.6684 171.719L59.9655 137.59L79.6684 103.462H119.076L138.779 137.59L119.076 171.719H79.6684Z" stroke="#0095FF" stroke-width="0.51779"/>
<path d="M138.678 137.58L118.973 103.451L138.678 69.3227H178.086L197.789 103.451L178.086 137.58H138.678Z" stroke="#0095FF" stroke-width="0.51779"/>
<path d="M197.811 171.719L178.109 137.59L197.811 103.462H237.219L256.922 137.59L237.219 171.719H197.811Z" stroke="#0095FF" stroke-width="0.51779"/>
<path d="M256.821 137.58L237.116 103.451L256.821 69.3227H296.229L315.932 103.451L296.229 137.58H256.821Z" stroke="#0095FF" stroke-width="0.51779"/>
<path d="M315.955 171.719L296.252 137.59L315.955 103.462H355.362L375.067 137.59L355.362 171.719H315.955Z" stroke="#0095FF" stroke-width="0.51779"/>
<path d="M374.964 137.58L355.259 103.451L374.964 69.3227H414.372L434.075 103.451L414.372 137.58H374.964Z" stroke="#0095FF" stroke-width="0.51779"/>
<path d="M434.1 171.719L414.395 137.59L434.1 103.462H473.508L493.211 137.59L473.508 171.719H434.1Z" stroke="#0095FF" stroke-width="0.51779"/>
<path d="M493.107 137.58L473.402 103.451L493.107 69.3227H532.515L552.218 103.451L532.515 137.58H493.107Z" stroke="#0095FF" stroke-width="0.51779"/>
<path d="M552.243 171.719L532.54 137.59L552.243 103.462H591.649L611.354 137.59L591.649 171.719H552.243Z" stroke="#0095FF" stroke-width="0.51779"/>
<path d="M611.252 137.58L591.545 103.451L611.252 69.3227H650.658L670.361 103.451L650.658 137.58H611.252Z" stroke="#0095FF" stroke-width="0.51779"/>
<path d="M670.386 171.719L650.683 137.59L670.386 103.462H709.792L729.497 137.59L709.792 171.719H670.386Z" stroke="#0095FF" stroke-width="0.51779"/>
<path d="M729.395 137.58L709.69 103.451L729.395 69.3227H768.801L788.506 103.451L768.801 137.58H729.395Z" stroke="#0095FF" stroke-width="0.51779"/>
<path d="M788.529 171.719L768.826 137.59L788.529 103.462H827.937L847.642 137.59L827.937 171.719H788.529Z" stroke="#0095FF" stroke-width="0.51779"/>
<path d="M847.538 137.58L827.833 103.451L847.538 69.3227H886.944L906.649 103.451L886.944 137.58H847.538Z" stroke="#0095FF" stroke-width="0.51779"/>
<path d="M906.672 171.719L886.971 137.59L906.672 103.462H946.08L965.783 137.59L946.08 171.719H906.672Z" stroke="#0095FF" stroke-width="0.51779"/>
<path d="M965.683 137.58L945.976 103.451L965.683 69.3227H1005.09L1024.79 103.451L1005.09 137.58H965.683Z" stroke="#0095FF" stroke-width="0.51779"/>
<path d="M1024.82 171.719L1005.11 137.59L1024.82 103.462H1064.22L1083.93 137.59L1064.22 171.719H1024.82Z" stroke="#0095FF" stroke-width="0.51779"/>
<path d="M1083.83 137.58L1064.12 103.451L1083.83 69.3227H1123.23L1142.94 103.451L1123.23 137.58H1083.83Z" stroke="#0095FF" stroke-width="0.51779"/>
<path d="M1142.96 171.719L1123.26 137.59L1142.96 103.462H1182.37L1202.07 137.59L1182.37 171.719H1142.96Z" stroke="#0095FF" stroke-width="0.51779"/>
<path d="M1201.97 137.58L1182.26 103.451L1201.97 69.3227H1241.37L1261.08 103.451L1241.37 137.58H1201.97Z" stroke="#0095FF" stroke-width="0.51779"/>
<path d="M1261.1 171.719L1241.4 137.59L1261.1 103.462H1300.51L1320.21 137.59L1300.51 171.719H1261.1Z" stroke="#0095FF" stroke-width="0.51779"/>
<path d="M1320.11 137.58L1300.41 103.451L1320.11 69.3227H1359.52L1379.22 103.451L1359.52 137.58H1320.11Z" stroke="#0095FF" stroke-width="0.51779"/>
<path d="M1379.25 171.719L1359.54 137.59L1379.25 103.462H1418.65L1438.36 137.59L1418.65 171.719H1379.25Z" stroke="#0095FF" stroke-width="0.51779"/>
</g>
<g opacity="0.1">
<path d="M20.5326 206.125L0.829712 171.996L20.5326 137.868H59.9406L79.6456 171.996L59.9406 206.125H20.5326Z" stroke="#0095FF" stroke-width="0.51779"/>
<path d="M79.6684 240.262L59.9655 206.133L79.6684 172.005H119.076L138.779 206.133L119.076 240.262H79.6684Z" stroke="#0095FF" stroke-width="0.51779"/>
<path d="M138.678 206.125L118.973 171.996L138.678 137.868H178.086L197.789 171.996L178.086 206.125H138.678Z" stroke="#0095FF" stroke-width="0.51779"/>
<path d="M197.811 240.262L178.109 206.133L197.811 172.005H237.219L256.922 206.133L237.219 240.262H197.811Z" stroke="#0095FF" stroke-width="0.51779"/>
<path d="M256.821 206.125L237.116 171.996L256.821 137.868H296.229L315.932 171.996L296.229 206.125H256.821Z" stroke="#0095FF" stroke-width="0.51779"/>
<path d="M315.955 240.262L296.252 206.133L315.955 172.005H355.362L375.067 206.133L355.362 240.262H315.955Z" stroke="#0095FF" stroke-width="0.51779"/>
<path d="M374.964 206.125L355.259 171.996L374.964 137.868H414.372L434.075 171.996L414.372 206.125H374.964Z" stroke="#0095FF" stroke-width="0.51779"/>
<path d="M434.1 240.262L414.395 206.133L434.1 172.005H473.508L493.211 206.133L473.508 240.262H434.1Z" stroke="#0095FF" stroke-width="0.51779"/>
<path d="M493.107 206.125L473.402 171.996L493.107 137.868H532.515L552.218 171.996L532.515 206.125H493.107Z" stroke="#0095FF" stroke-width="0.51779"/>
<path d="M552.243 240.262L532.54 206.133L552.243 172.005H591.649L611.354 206.133L591.649 240.262H552.243Z" stroke="#0095FF" stroke-width="0.51779"/>
<path d="M611.252 206.125L591.545 171.996L611.252 137.868H650.658L670.361 171.996L650.658 206.125H611.252Z" stroke="#0095FF" stroke-width="0.51779"/>
<path d="M670.386 240.262L650.683 206.133L670.386 172.005H709.792L729.497 206.133L709.792 240.262H670.386Z" stroke="#0095FF" stroke-width="0.51779"/>
<path d="M729.395 206.125L709.69 171.996L729.395 137.868H768.801L788.506 171.996L768.801 206.125H729.395Z" stroke="#0095FF" stroke-width="0.51779"/>
<path d="M788.529 240.262L768.826 206.133L788.529 172.005H827.937L847.642 206.133L827.937 240.262H788.529Z" stroke="#0095FF" stroke-width="0.51779"/>
<path d="M847.538 206.125L827.833 171.996L847.538 137.868H886.944L906.649 171.996L886.944 206.125H847.538Z" stroke="#0095FF" stroke-width="0.51779"/>
<path d="M906.672 240.262L886.971 206.133L906.672 172.005H946.08L965.783 206.133L946.08 240.262H906.672Z" stroke="#0095FF" stroke-width="0.51779"/>
<path d="M965.683 206.125L945.976 171.996L965.683 137.868H1005.09L1024.79 171.996L1005.09 206.125H965.683Z" stroke="#0095FF" stroke-width="0.51779"/>
<path d="M1024.82 240.262L1005.11 206.133L1024.82 172.005H1064.22L1083.93 206.133L1064.22 240.262H1024.82Z" stroke="#0095FF" stroke-width="0.51779"/>
<path d="M1083.83 206.125L1064.12 171.996L1083.83 137.868H1123.23L1142.94 171.996L1123.23 206.125H1083.83Z" stroke="#0095FF" stroke-width="0.51779"/>
<path d="M1142.96 240.262L1123.26 206.133L1142.96 172.005H1182.37L1202.07 206.133L1182.37 240.262H1142.96Z" stroke="#0095FF" stroke-width="0.51779"/>
<path d="M1201.97 206.125L1182.26 171.996L1201.97 137.868H1241.37L1261.08 171.996L1241.37 206.125H1201.97Z" stroke="#0095FF" stroke-width="0.51779"/>
<path d="M1261.1 240.262L1241.4 206.133L1261.1 172.005H1300.51L1320.21 206.133L1300.51 240.262H1261.1Z" stroke="#0095FF" stroke-width="0.51779"/>
<path d="M1320.11 206.125L1300.41 171.996L1320.11 137.868H1359.52L1379.22 171.996L1359.52 206.125H1320.11Z" stroke="#0095FF" stroke-width="0.51779"/>
<path d="M1379.25 240.262L1359.54 206.133L1379.25 172.005H1418.65L1438.36 206.133L1418.65 240.262H1379.25Z" stroke="#0095FF" stroke-width="0.51779"/>
</g>
</svg>
