<svg width="1397" height="241" viewBox="0 0 1397 241" fill="none" xmlns="http://www.w3.org/2000/svg">
<g opacity="0.2">
<path d="M20.7029 69.2571L1 35.1286L20.7029 1H60.1109L79.8159 35.1286L60.1109 69.2571H20.7029Z" stroke="#FD7000" stroke-width="0.51779"/>
<path d="M79.8387 103.394L60.1357 69.2654L79.8387 35.1368H119.247L138.95 69.2654L119.247 103.394H79.8387Z" stroke="#FD7000" stroke-width="0.51779"/>
<path d="M138.848 69.2571L119.143 35.1286L138.848 1H178.256L197.959 35.1286L178.256 69.2571H138.848Z" stroke="#FD7000" stroke-width="0.51779"/>
<path d="M197.982 103.394L178.279 69.2654L197.982 35.1368H237.39L257.093 69.2654L237.39 103.394H197.982Z" stroke="#FD7000" stroke-width="0.51779"/>
<path d="M256.991 69.2571L237.286 35.1286L256.991 1H296.399L316.102 35.1286L296.399 69.2571H256.991Z" stroke="#FD7000" stroke-width="0.51779"/>
<path d="M316.125 103.394L296.422 69.2654L316.125 35.1368H355.533L375.238 69.2654L355.533 103.394H316.125Z" stroke="#FD7000" stroke-width="0.51779"/>
<path d="M375.134 69.2571L355.429 35.1286L375.134 1H414.542L434.245 35.1286L414.542 69.2571H375.134Z" stroke="#FD7000" stroke-width="0.51779"/>
<path d="M434.27 103.394L414.565 69.2654L434.27 35.1368H473.678L493.381 69.2654L473.678 103.394H434.27Z" stroke="#FD7000" stroke-width="0.51779"/>
<path d="M493.277 69.2571L473.572 35.1286L493.277 1H532.685L552.388 35.1286L532.685 69.2571H493.277Z" stroke="#FD7000" stroke-width="0.51779"/>
<path d="M552.413 103.394L532.71 69.2654L552.413 35.1368H591.819L611.524 69.2654L591.819 103.394H552.413Z" stroke="#FD7000" stroke-width="0.51779"/>
<path d="M611.422 69.2571L591.715 35.1286L611.422 1H650.828L670.531 35.1286L650.828 69.2571H611.422Z" stroke="#FD7000" stroke-width="0.51779"/>
<path d="M670.556 103.394L650.853 69.2654L670.556 35.1368H709.962L729.667 69.2654L709.962 103.394H670.556Z" stroke="#FD7000" stroke-width="0.51779"/>
<path d="M729.565 69.2571L709.86 35.1286L729.565 1H768.971L788.676 35.1286L768.971 69.2571H729.565Z" stroke="#FD7000" stroke-width="0.51779"/>
<path d="M788.699 103.394L768.996 69.2654L788.699 35.1368H828.107L847.812 69.2654L828.107 103.394H788.699Z" stroke="#FD7000" stroke-width="0.51779"/>
<path d="M847.709 69.2571L828.004 35.1286L847.709 1H887.114L906.819 35.1286L887.114 69.2571H847.709Z" stroke="#FD7000" stroke-width="0.51779"/>
<path d="M906.842 103.394L887.141 69.2654L906.842 35.1368H946.25L965.953 69.2654L946.25 103.394H906.842Z" stroke="#FD7000" stroke-width="0.51779"/>
<path d="M965.854 69.2571L946.147 35.1286L965.854 1H1005.26L1024.96 35.1286L1005.26 69.2571H965.854Z" stroke="#FD7000" stroke-width="0.51779"/>
<path d="M1024.99 103.394L1005.28 69.2654L1024.99 35.1368H1064.39L1084.1 69.2654L1064.39 103.394H1024.99Z" stroke="#FD7000" stroke-width="0.51779"/>
<path d="M1084 69.2571L1064.29 35.1286L1084 1H1123.4L1143.11 35.1286L1123.4 69.2571H1084Z" stroke="#FD7000" stroke-width="0.51779"/>
<path d="M1143.13 103.394L1123.43 69.2654L1143.13 35.1368H1182.54L1202.24 69.2654L1182.54 103.394H1143.13Z" stroke="#FD7000" stroke-width="0.51779"/>
<path d="M1202.14 69.2571L1182.43 35.1286L1202.14 1H1241.54L1261.25 35.1286L1241.54 69.2571H1202.14Z" stroke="#FD7000" stroke-width="0.51779"/>
<path d="M1261.27 103.394L1241.57 69.2654L1261.27 35.1368H1300.68L1320.38 69.2654L1300.68 103.394H1261.27Z" stroke="#FD7000" stroke-width="0.51779"/>
<path d="M1320.28 69.2571L1300.58 35.1286L1320.28 1H1359.69L1379.39 35.1286L1359.69 69.2571H1320.28Z" stroke="#FD7000" stroke-width="0.51779"/>
<path d="M1379.42 103.394L1359.71 69.2654L1379.42 35.1368H1418.82L1438.53 69.2654L1418.82 103.394H1379.42Z" stroke="#FD7000" stroke-width="0.51779"/>
</g>
<g opacity="0.2">
<path d="M20.7029 137.8L1 103.672L20.7029 69.543H60.1109L79.8159 103.672L60.1109 137.8H20.7029Z" stroke="#FD7000" stroke-width="0.51779"/>
<path d="M79.8387 171.939L60.1357 137.81L79.8387 103.682H119.247L138.95 137.81L119.247 171.939H79.8387Z" stroke="#FD7000" stroke-width="0.51779"/>
<path d="M138.848 137.8L119.143 103.672L138.848 69.543H178.256L197.959 103.672L178.256 137.8H138.848Z" stroke="#FD7000" stroke-width="0.51779"/>
<path d="M197.982 171.939L178.279 137.81L197.982 103.682H237.39L257.093 137.81L237.39 171.939H197.982Z" stroke="#FD7000" stroke-width="0.51779"/>
<path d="M256.991 137.8L237.286 103.672L256.991 69.543H296.399L316.102 103.672L296.399 137.8H256.991Z" stroke="#FD7000" stroke-width="0.51779"/>
<path d="M316.125 171.939L296.422 137.81L316.125 103.682H355.533L375.238 137.81L355.533 171.939H316.125Z" stroke="#FD7000" stroke-width="0.51779"/>
<path d="M375.134 137.8L355.429 103.672L375.134 69.543H414.542L434.245 103.672L414.542 137.8H375.134Z" stroke="#FD7000" stroke-width="0.51779"/>
<path d="M434.27 171.939L414.565 137.81L434.27 103.682H473.678L493.381 137.81L473.678 171.939H434.27Z" stroke="#FD7000" stroke-width="0.51779"/>
<path d="M493.277 137.8L473.572 103.672L493.277 69.543H532.685L552.388 103.672L532.685 137.8H493.277Z" stroke="#FD7000" stroke-width="0.51779"/>
<path d="M552.413 171.939L532.71 137.81L552.413 103.682H591.819L611.524 137.81L591.819 171.939H552.413Z" stroke="#FD7000" stroke-width="0.51779"/>
<path d="M611.422 137.8L591.715 103.672L611.422 69.543H650.828L670.531 103.672L650.828 137.8H611.422Z" stroke="#FD7000" stroke-width="0.51779"/>
<path d="M670.556 171.939L650.853 137.81L670.556 103.682H709.962L729.667 137.81L709.962 171.939H670.556Z" stroke="#FD7000" stroke-width="0.51779"/>
<path d="M729.565 137.8L709.86 103.672L729.565 69.543H768.971L788.676 103.672L768.971 137.8H729.565Z" stroke="#FD7000" stroke-width="0.51779"/>
<path d="M788.699 171.939L768.996 137.81L788.699 103.682H828.107L847.812 137.81L828.107 171.939H788.699Z" stroke="#FD7000" stroke-width="0.51779"/>
<path d="M847.709 137.8L828.004 103.672L847.709 69.543H887.114L906.819 103.672L887.114 137.8H847.709Z" stroke="#FD7000" stroke-width="0.51779"/>
<path d="M906.842 171.939L887.141 137.81L906.842 103.682H946.25L965.953 137.81L946.25 171.939H906.842Z" stroke="#FD7000" stroke-width="0.51779"/>
<path d="M965.854 137.8L946.147 103.672L965.854 69.543H1005.26L1024.96 103.672L1005.26 137.8H965.854Z" stroke="#FD7000" stroke-width="0.51779"/>
<path d="M1024.99 171.939L1005.28 137.81L1024.99 103.682H1064.39L1084.1 137.81L1064.39 171.939H1024.99Z" stroke="#FD7000" stroke-width="0.51779"/>
<path d="M1084 137.8L1064.29 103.672L1084 69.543H1123.4L1143.11 103.672L1123.4 137.8H1084Z" stroke="#FD7000" stroke-width="0.51779"/>
<path d="M1143.13 171.939L1123.43 137.81L1143.13 103.682H1182.54L1202.24 137.81L1182.54 171.939H1143.13Z" stroke="#FD7000" stroke-width="0.51779"/>
<path d="M1202.14 137.8L1182.43 103.672L1202.14 69.543H1241.54L1261.25 103.672L1241.54 137.8H1202.14Z" stroke="#FD7000" stroke-width="0.51779"/>
<path d="M1261.27 171.939L1241.57 137.81L1261.27 103.682H1300.68L1320.38 137.81L1300.68 171.939H1261.27Z" stroke="#FD7000" stroke-width="0.51779"/>
<path d="M1320.28 137.8L1300.58 103.672L1320.28 69.543H1359.69L1379.39 103.672L1359.69 137.8H1320.28Z" stroke="#FD7000" stroke-width="0.51779"/>
<path d="M1379.42 171.939L1359.71 137.81L1379.42 103.682H1418.82L1438.53 137.81L1418.82 171.939H1379.42Z" stroke="#FD7000" stroke-width="0.51779"/>
</g>
<g opacity="0.2">
<path d="M20.7029 206.345L1 172.216L20.7029 138.088H60.1109L79.8159 172.216L60.1109 206.345H20.7029Z" stroke="#FD7000" stroke-width="0.51779"/>
<path d="M79.8387 240.482L60.1357 206.353L79.8387 172.225H119.247L138.95 206.353L119.247 240.482H79.8387Z" stroke="#FD7000" stroke-width="0.51779"/>
<path d="M138.848 206.345L119.143 172.216L138.848 138.088H178.256L197.959 172.216L178.256 206.345H138.848Z" stroke="#FD7000" stroke-width="0.51779"/>
<path d="M197.982 240.482L178.279 206.353L197.982 172.225H237.39L257.093 206.353L237.39 240.482H197.982Z" stroke="#FD7000" stroke-width="0.51779"/>
<path d="M256.991 206.345L237.286 172.216L256.991 138.088H296.399L316.102 172.216L296.399 206.345H256.991Z" stroke="#FD7000" stroke-width="0.51779"/>
<path d="M316.125 240.482L296.422 206.353L316.125 172.225H355.533L375.238 206.353L355.533 240.482H316.125Z" stroke="#FD7000" stroke-width="0.51779"/>
<path d="M375.134 206.345L355.429 172.216L375.134 138.088H414.542L434.245 172.216L414.542 206.345H375.134Z" stroke="#FD7000" stroke-width="0.51779"/>
<path d="M434.27 240.482L414.565 206.353L434.27 172.225H473.678L493.381 206.353L473.678 240.482H434.27Z" stroke="#FD7000" stroke-width="0.51779"/>
<path d="M493.277 206.345L473.572 172.216L493.277 138.088H532.685L552.388 172.216L532.685 206.345H493.277Z" stroke="#FD7000" stroke-width="0.51779"/>
<path d="M552.413 240.482L532.71 206.353L552.413 172.225H591.819L611.524 206.353L591.819 240.482H552.413Z" stroke="#FD7000" stroke-width="0.51779"/>
<path d="M611.422 206.345L591.715 172.216L611.422 138.088H650.828L670.531 172.216L650.828 206.345H611.422Z" stroke="#FD7000" stroke-width="0.51779"/>
<path d="M670.556 240.482L650.853 206.353L670.556 172.225H709.962L729.667 206.353L709.962 240.482H670.556Z" stroke="#FD7000" stroke-width="0.51779"/>
<path d="M729.565 206.345L709.86 172.216L729.565 138.088H768.971L788.676 172.216L768.971 206.345H729.565Z" stroke="#FD7000" stroke-width="0.51779"/>
<path d="M788.699 240.482L768.996 206.353L788.699 172.225H828.107L847.812 206.353L828.107 240.482H788.699Z" stroke="#FD7000" stroke-width="0.51779"/>
<path d="M847.709 206.345L828.004 172.216L847.709 138.088H887.114L906.819 172.216L887.114 206.345H847.709Z" stroke="#FD7000" stroke-width="0.51779"/>
<path d="M906.842 240.482L887.141 206.353L906.842 172.225H946.25L965.953 206.353L946.25 240.482H906.842Z" stroke="#FD7000" stroke-width="0.51779"/>
<path d="M965.854 206.345L946.147 172.216L965.854 138.088H1005.26L1024.96 172.216L1005.26 206.345H965.854Z" stroke="#FD7000" stroke-width="0.51779"/>
<path d="M1024.99 240.482L1005.28 206.353L1024.99 172.225H1064.39L1084.1 206.353L1064.39 240.482H1024.99Z" stroke="#FD7000" stroke-width="0.51779"/>
<path d="M1084 206.345L1064.29 172.216L1084 138.088H1123.4L1143.11 172.216L1123.4 206.345H1084Z" stroke="#FD7000" stroke-width="0.51779"/>
<path d="M1143.13 240.482L1123.43 206.353L1143.13 172.225H1182.54L1202.24 206.353L1182.54 240.482H1143.13Z" stroke="#FD7000" stroke-width="0.51779"/>
<path d="M1202.14 206.345L1182.43 172.216L1202.14 138.088H1241.54L1261.25 172.216L1241.54 206.345H1202.14Z" stroke="#FD7000" stroke-width="0.51779"/>
<path d="M1261.27 240.482L1241.57 206.353L1261.27 172.225H1300.68L1320.38 206.353L1300.68 240.482H1261.27Z" stroke="#FD7000" stroke-width="0.51779"/>
<path d="M1320.28 206.345L1300.58 172.216L1320.28 138.088H1359.69L1379.39 172.216L1359.69 206.345H1320.28Z" stroke="#FD7000" stroke-width="0.51779"/>
<path d="M1379.42 240.482L1359.71 206.353L1379.42 172.225H1418.82L1438.53 206.353L1418.82 240.482H1379.42Z" stroke="#FD7000" stroke-width="0.51779"/>
</g>
</svg>
