<svg width="446" height="106" viewBox="0 0 446 106" fill="none" xmlns="http://www.w3.org/2000/svg">
<path d="M5.05517 42.1949C5.72011 40.9506 5.25044 39.4029 4.00614 38.7379C2.76184 38.073 1.2141 38.5427 0.549165 39.787L5.05517 42.1949ZM218.937 47.582L218.525 50.103L218.937 47.582ZM283.422 65.5781L284.697 67.7916L283.422 65.5781ZM357.287 42.8928C358.052 41.7074 357.711 40.1263 356.526 39.3613L337.208 26.8955C336.023 26.1305 334.442 26.4714 333.677 27.6568C332.912 28.8422 333.253 30.4233 334.438 31.1883L351.609 42.269L340.529 59.4404C339.764 60.6258 340.105 62.2069 341.29 62.9719C342.475 63.7368 344.057 63.396 344.822 62.2105L357.287 42.8928ZM0.549165 39.787C-5.03497 50.2365 -7.19958 58.6013 -5.78065 65.0734C-4.28929 71.8758 0.938571 75.8101 7.9813 77.7785C14.9423 79.7241 24.1156 79.9102 34.585 79.0397C45.1051 78.1649 57.1701 76.1998 70.0261 73.6877C82.8877 71.1746 96.6045 68.101 110.425 64.998C124.26 61.8918 138.201 58.7557 151.568 56.1015C178.429 50.7678 202.518 47.4849 218.525 50.103L219.35 45.0609C202.297 42.2718 177.327 45.778 150.573 51.0903C137.132 53.7591 123.126 56.9102 109.306 60.0131C95.4721 63.1191 81.8258 66.1764 69.0463 68.6735C56.2613 71.1717 44.4076 73.0963 34.1617 73.9482C23.8652 74.8044 15.4253 74.5542 9.35654 72.858C3.36949 71.1847 0.150954 68.2718 -0.790134 63.9793C-1.80365 59.3564 -0.386742 52.3784 5.05517 42.1949L0.549165 39.787ZM218.525 50.103C259.878 56.8668 290.089 63.8318 306.05 71.0019C310.022 72.7859 312.977 74.5254 314.973 76.1894C316.994 77.8745 317.776 79.2658 317.945 80.3159C318.095 81.2538 317.839 82.4515 316.438 84.0345C315 85.6587 312.529 87.4716 308.766 89.417L311.113 93.9553C315.128 91.8795 318.228 89.7208 320.264 87.4206C322.336 85.0791 323.454 82.3994 322.989 79.5046C322.541 76.7221 320.715 74.3256 318.244 72.2653C315.748 70.1838 312.326 68.2204 308.144 66.3415C291.489 58.86 260.644 51.815 219.35 45.0609L218.525 50.103ZM308.766 89.417C293.9 97.1036 282.733 93.7952 278.017 88.1796C275.642 85.3514 274.741 81.8355 275.598 78.3297C276.459 74.8102 279.182 70.9689 284.697 67.7916L282.146 63.3647C275.722 67.0657 271.902 71.9376 270.635 77.1161C269.366 82.3084 270.754 87.4755 274.105 91.4652C280.84 99.4855 294.871 102.353 311.113 93.9553L308.766 89.417ZM284.697 67.7916C293.992 62.4366 307.71 57.3455 321.223 53.1445C334.693 48.9568 347.773 45.7093 355.679 44.0049L354.603 39.0106C346.562 40.7441 333.333 44.0291 319.706 48.2658C306.122 52.4891 291.954 57.7143 282.146 63.3647L284.697 67.7916Z" fill="url(#paint0_linear_307_5223)"/>
<path d="M45.2812 51.207H56.5117C56.1523 55.4896 54.9544 59.3079 52.918 62.6621C50.8815 65.9863 48.0215 68.6068 44.3379 70.5234C40.6543 72.4401 36.1771 73.3984 30.9062 73.3984C26.8633 73.3984 23.2246 72.6797 19.9902 71.2422C16.7559 69.7747 13.9857 67.7083 11.6797 65.043C9.3737 62.3477 7.60677 59.0983 6.37891 55.2949C5.18099 51.4915 4.58203 47.2389 4.58203 42.5371V37.1016C4.58203 32.3997 5.19596 28.1471 6.42383 24.3438C7.68164 20.5404 9.47852 17.291 11.8145 14.5957C14.1504 11.8704 16.9505 9.78906 20.2148 8.35156C23.5091 6.91406 27.2077 6.19531 31.3105 6.19531C36.5215 6.19531 40.9238 7.15365 44.5176 9.07031C48.1113 10.987 50.8965 13.6374 52.873 17.0215C54.8796 20.4056 56.1074 24.2839 56.5566 28.6562H45.3262C45.0267 25.8411 44.3678 23.4303 43.3496 21.4238C42.3613 19.4173 40.8939 17.89 38.9473 16.8418C37.0007 15.7637 34.4551 15.2246 31.3105 15.2246C28.735 15.2246 26.4889 15.7038 24.5723 16.6621C22.6556 17.6204 21.0534 19.028 19.7656 20.8848C18.4779 22.7415 17.5046 25.0326 16.8457 27.7578C16.2168 30.4531 15.9023 33.5378 15.9023 37.0117V42.5371C15.9023 45.8314 16.1868 48.8262 16.7559 51.5215C17.3548 54.1868 18.2533 56.4779 19.4512 58.3945C20.679 60.3112 22.2363 61.7936 24.123 62.8418C26.0098 63.89 28.2708 64.4141 30.9062 64.4141C34.1107 64.4141 36.7012 63.9049 38.6777 62.8867C40.6842 61.8685 42.1966 60.3861 43.2148 58.4395C44.263 56.4629 44.9518 54.0521 45.2812 51.207ZM63.6094 48.7363V47.7031C63.6094 44.1992 64.1185 40.9499 65.1367 37.9551C66.1549 34.9303 67.6224 32.3099 69.5391 30.0938C71.4857 27.8477 73.8516 26.1107 76.6367 24.8828C79.4518 23.625 82.6263 22.9961 86.1602 22.9961C89.724 22.9961 92.8984 23.625 95.6836 24.8828C98.4987 26.1107 100.88 27.8477 102.826 30.0938C104.773 32.3099 106.255 34.9303 107.273 37.9551C108.292 40.9499 108.801 44.1992 108.801 47.7031V48.7363C108.801 52.2402 108.292 55.4896 107.273 58.4844C106.255 61.4792 104.773 64.0996 102.826 66.3457C100.88 68.5618 98.5137 70.2988 95.7285 71.5566C92.9434 72.7845 89.7839 73.3984 86.25 73.3984C82.6862 73.3984 79.4967 72.7845 76.6816 71.5566C73.8965 70.2988 71.5306 68.5618 69.584 66.3457C67.6374 64.0996 66.1549 61.4792 65.1367 58.4844C64.1185 55.4896 63.6094 52.2402 63.6094 48.7363ZM74.4355 47.7031V48.7363C74.4355 50.9225 74.6602 52.9889 75.1094 54.9355C75.5586 56.8822 76.2624 58.5892 77.2207 60.0566C78.179 61.5241 79.4069 62.6771 80.9043 63.5156C82.4017 64.3542 84.1836 64.7734 86.25 64.7734C88.2565 64.7734 89.9935 64.3542 91.4609 63.5156C92.9583 62.6771 94.1862 61.5241 95.1445 60.0566C96.1029 58.5892 96.8066 56.8822 97.2559 54.9355C97.735 52.9889 97.9746 50.9225 97.9746 48.7363V47.7031C97.9746 45.5469 97.735 43.5104 97.2559 41.5938C96.8066 39.6471 96.0879 37.9251 95.0996 36.4277C94.1413 34.9303 92.9134 33.7624 91.416 32.9238C89.9486 32.0553 88.1966 31.6211 86.1602 31.6211C84.1237 31.6211 82.3568 32.0553 80.8594 32.9238C79.3919 33.7624 78.179 34.9303 77.2207 36.4277C76.2624 37.9251 75.5586 39.6471 75.1094 41.5938C74.6602 43.5104 74.4355 45.5469 74.4355 47.7031ZM128.611 34.2715V72.5H117.785V23.8945H127.982L128.611 34.2715ZM126.68 46.4004L123.176 46.3555C123.206 42.9115 123.685 39.752 124.613 36.877C125.572 34.002 126.889 31.5312 128.566 29.4648C130.273 27.3984 132.31 25.8112 134.676 24.7031C137.042 23.5651 139.677 22.9961 142.582 22.9961C144.918 22.9961 147.029 23.3255 148.916 23.9844C150.833 24.6133 152.465 25.6465 153.812 27.084C155.19 28.5215 156.238 30.3932 156.957 32.6992C157.676 34.9753 158.035 37.7754 158.035 41.0996V72.5H147.164V41.0547C147.164 38.7188 146.82 36.877 146.131 35.5293C145.472 34.1517 144.499 33.1784 143.211 32.6094C141.953 32.0104 140.381 31.7109 138.494 31.7109C136.637 31.7109 134.975 32.1003 133.508 32.8789C132.04 33.6576 130.798 34.7207 129.779 36.0684C128.791 37.416 128.027 38.9733 127.488 40.7402C126.949 42.5072 126.68 44.3939 126.68 46.4004ZM191.367 23.8945V31.8008H163.965V23.8945H191.367ZM171.871 11.9902H182.697V59.0684C182.697 60.5658 182.907 61.7188 183.326 62.5273C183.775 63.306 184.389 63.8301 185.168 64.0996C185.947 64.3691 186.86 64.5039 187.908 64.5039C188.657 64.5039 189.376 64.459 190.064 64.3691C190.753 64.2793 191.307 64.1895 191.727 64.0996L191.771 72.3652C190.873 72.6348 189.825 72.8743 188.627 73.084C187.459 73.2936 186.111 73.3984 184.584 73.3984C182.098 73.3984 179.897 72.9642 177.98 72.0957C176.064 71.1973 174.566 69.7448 173.488 67.7383C172.41 65.7318 171.871 63.0664 171.871 59.7422V11.9902ZM227.125 62.752V39.5723C227.125 37.8353 226.811 36.3379 226.182 35.0801C225.553 33.8223 224.594 32.849 223.307 32.1602C222.049 31.4714 220.462 31.127 218.545 31.127C216.778 31.127 215.251 31.4264 213.963 32.0254C212.675 32.6243 211.672 33.4329 210.953 34.4512C210.234 35.4694 209.875 36.6224 209.875 37.9102H199.094C199.094 35.9935 199.558 34.1367 200.486 32.3398C201.415 30.543 202.762 28.9408 204.529 27.5332C206.296 26.1257 208.408 25.0176 210.863 24.209C213.319 23.4004 216.074 22.9961 219.129 22.9961C222.783 22.9961 226.017 23.61 228.832 24.8379C231.677 26.0658 233.908 27.9225 235.525 30.4082C237.173 32.8639 237.996 35.9486 237.996 39.6621V61.2695C237.996 63.4857 238.146 65.4772 238.445 67.2441C238.775 68.9811 239.239 70.4935 239.838 71.7812V72.5H228.742C228.233 71.332 227.829 69.8496 227.529 68.0527C227.26 66.2259 227.125 64.459 227.125 62.752ZM228.697 42.9414L228.787 49.6348H221.016C219.009 49.6348 217.242 49.8294 215.715 50.2188C214.188 50.5781 212.915 51.1172 211.896 51.8359C210.878 52.5547 210.115 53.4232 209.605 54.4414C209.096 55.4596 208.842 56.6126 208.842 57.9004C208.842 59.1882 209.141 60.3711 209.74 61.4492C210.339 62.4974 211.208 63.321 212.346 63.9199C213.514 64.5189 214.921 64.8184 216.568 64.8184C218.785 64.8184 220.716 64.3691 222.363 63.4707C224.04 62.5423 225.358 61.4193 226.316 60.1016C227.275 58.7539 227.784 57.4811 227.844 56.2832L231.348 61.0898C230.988 62.3177 230.374 63.6354 229.506 65.043C228.637 66.4505 227.499 67.7982 226.092 69.0859C224.714 70.3438 223.052 71.377 221.105 72.1855C219.189 72.9941 216.973 73.3984 214.457 73.3984C211.283 73.3984 208.452 72.7695 205.967 71.5117C203.481 70.224 201.535 68.502 200.127 66.3457C198.719 64.1595 198.016 61.6888 198.016 58.9336C198.016 56.3581 198.495 54.082 199.453 52.1055C200.441 50.099 201.879 48.4219 203.766 47.0742C205.682 45.7266 208.018 44.7083 210.773 44.0195C213.529 43.3008 216.673 42.9414 220.207 42.9414H228.697ZM271.598 23.8945V31.8008H244.195V23.8945H271.598ZM252.102 11.9902H262.928V59.0684C262.928 60.5658 263.137 61.7188 263.557 62.5273C264.006 63.306 264.62 63.8301 265.398 64.0996C266.177 64.3691 267.09 64.5039 268.139 64.5039C268.887 64.5039 269.606 64.459 270.295 64.3691C270.984 64.2793 271.538 64.1895 271.957 64.0996L272.002 72.3652C271.104 72.6348 270.055 72.8743 268.857 73.084C267.689 73.2936 266.342 73.3984 264.814 73.3984C262.329 73.3984 260.128 72.9642 258.211 72.0957C256.294 71.1973 254.797 69.7448 253.719 67.7383C252.641 65.7318 252.102 63.0664 252.102 59.7422V11.9902ZM276.809 48.7363V47.7031C276.809 44.1992 277.318 40.9499 278.336 37.9551C279.354 34.9303 280.822 32.3099 282.738 30.0938C284.685 27.8477 287.051 26.1107 289.836 24.8828C292.651 23.625 295.826 22.9961 299.359 22.9961C302.923 22.9961 306.098 23.625 308.883 24.8828C311.698 26.1107 314.079 27.8477 316.025 30.0938C317.972 32.3099 319.454 34.9303 320.473 37.9551C321.491 40.9499 322 44.1992 322 47.7031V48.7363C322 52.2402 321.491 55.4896 320.473 58.4844C319.454 61.4792 317.972 64.0996 316.025 66.3457C314.079 68.5618 311.713 70.2988 308.928 71.5566C306.143 72.7845 302.983 73.3984 299.449 73.3984C295.885 73.3984 292.696 72.7845 289.881 71.5566C287.096 70.2988 284.73 68.5618 282.783 66.3457C280.837 64.0996 279.354 61.4792 278.336 58.4844C277.318 55.4896 276.809 52.2402 276.809 48.7363ZM287.635 47.7031V48.7363C287.635 50.9225 287.859 52.9889 288.309 54.9355C288.758 56.8822 289.462 58.5892 290.42 60.0566C291.378 61.5241 292.606 62.6771 294.104 63.5156C295.601 64.3542 297.383 64.7734 299.449 64.7734C301.456 64.7734 303.193 64.3542 304.66 63.5156C306.158 62.6771 307.385 61.5241 308.344 60.0566C309.302 58.5892 310.006 56.8822 310.455 54.9355C310.934 52.9889 311.174 50.9225 311.174 48.7363V47.7031C311.174 45.5469 310.934 43.5104 310.455 41.5938C310.006 39.6471 309.287 37.9251 308.299 36.4277C307.34 34.9303 306.113 33.7624 304.615 32.9238C303.148 32.0553 301.396 31.6211 299.359 31.6211C297.323 31.6211 295.556 32.0553 294.059 32.9238C292.591 33.7624 291.378 34.9303 290.42 36.4277C289.462 37.9251 288.758 39.6471 288.309 41.5938C287.859 43.5104 287.635 45.5469 287.635 47.7031Z" fill="#111827"/>
<defs>
<linearGradient id="paint0_linear_307_5223" x1="-273.144" y1="106.371" x2="323.803" y2="-25.2536" gradientUnits="userSpaceOnUse">
<stop stop-color="#FFF278"/>
<stop offset="1" stop-color="#F28D2F"/>
</linearGradient>
</defs>
</svg>
