<svg width="49" height="49" viewBox="0 0 49 49" fill="none" xmlns="http://www.w3.org/2000/svg">
<path d="M24.1563 48.3467C37.4975 48.3467 48.3126 37.5315 48.3126 24.1904C48.3126 10.8492 37.4975 0.0340576 24.1563 0.0340576C10.8151 0.0340576 0 10.8492 0 24.1904C0 37.5315 10.8151 48.3467 24.1563 48.3467Z" fill="#4C4C4C"/>
<path d="M39.4262 24.2055C39.4262 27.0298 39.4226 29.854 39.4327 32.6783C39.4334 32.936 39.3424 33.0703 39.1266 33.1952C34.2657 36.0072 29.407 38.8242 24.5541 41.6499C24.3166 41.7878 24.144 41.7784 23.9173 41.6484C19.9683 39.3794 16.0156 37.1175 12.0652 34.8521C11.1006 34.299 10.1426 33.7359 9.17665 33.1858C8.97884 33.0732 8.87921 32.9533 8.87921 32.7043C8.8886 27.0688 8.89004 21.4332 8.88138 15.7985C8.88138 15.4685 8.99039 15.2902 9.27412 15.127C12.7423 13.1381 16.2041 11.1369 19.6665 9.1385C21.0339 8.34942 22.4049 7.56611 23.7643 6.7633C24.0394 6.60087 24.2401 6.58209 24.531 6.75103C29.3666 9.55507 34.2094 12.3461 39.0544 15.1335C39.3179 15.2852 39.437 15.4505 39.4356 15.7732C39.4211 18.5844 39.4276 21.3957 39.4276 24.207L39.4262 24.2055ZM33.0637 24.2055H33.0687C33.0687 22.6252 33.0615 21.0441 33.0752 19.4638C33.0774 19.1663 32.9828 18.9895 32.72 18.8487C32.1843 18.5621 31.6631 18.2473 31.1368 17.9426C28.9183 16.6605 26.7026 15.374 24.4769 14.1048C24.3267 14.0196 24.0581 13.9777 23.9238 14.0542C21.1371 15.644 18.3627 17.2553 15.5818 18.8559C15.3536 18.9873 15.2461 19.1418 15.2468 19.4096C15.2533 22.5963 15.2547 25.7837 15.2482 28.9704C15.2482 29.2418 15.3551 29.3826 15.5839 29.5133C18.3446 31.0979 21.101 32.6913 23.8538 34.2911C24.0682 34.416 24.2206 34.4333 24.448 34.3012C27.2094 32.692 29.9774 31.0929 32.7504 29.5024C32.9872 29.3667 33.0709 29.2086 33.0695 28.9473C33.0615 27.3669 33.0651 25.7866 33.0651 24.2055H33.0637Z" fill="white"/>
</svg>
