<svg width="212" height="98" viewBox="0 0 212 98" fill="none" xmlns="http://www.w3.org/2000/svg">
<path d="M41.8867 19.3242V29.8359C41.4531 30.3164 40.7852 30.832 39.8828 31.3828C38.9922 31.9219 37.8672 32.3848 36.5078 32.7715C35.1484 33.1582 33.5488 33.3516 31.709 33.3516C30.0098 33.3516 28.4688 33.082 27.0859 32.543C25.7031 31.9922 24.5137 31.1895 23.5176 30.1348C22.5332 29.0684 21.7715 27.7676 21.2324 26.2324C20.7051 24.6855 20.4414 22.916 20.4414 20.9238V19.5C20.4414 17.5078 20.7109 15.7383 21.25 14.1914C21.7891 12.6445 22.5449 11.3438 23.5176 10.2891C24.502 9.22266 25.6562 8.41406 26.9805 7.86328C28.3164 7.3125 29.7812 7.03711 31.375 7.03711C33.7305 7.03711 35.6465 7.41211 37.123 8.16211C38.5996 8.90039 39.7188 9.92578 40.4805 11.2383C41.2422 12.5391 41.7051 14.0449 41.8691 15.7559H35.9453C35.8281 14.9121 35.6055 14.1973 35.2773 13.6113C34.9609 13.0137 34.5039 12.5625 33.9062 12.2578C33.3086 11.9414 32.5352 11.7832 31.5859 11.7832C30.8477 11.7832 30.1738 11.9414 29.5645 12.2578C28.9668 12.5742 28.457 13.0547 28.0352 13.6992C27.6133 14.332 27.2852 15.1289 27.0508 16.0898C26.8281 17.0508 26.7168 18.1758 26.7168 19.4648V20.9238C26.7168 22.2012 26.8223 23.3203 27.0332 24.2812C27.2559 25.2422 27.584 26.0449 28.0176 26.6895C28.4629 27.3223 29.0254 27.8027 29.7051 28.1309C30.3965 28.4473 31.2109 28.6055 32.1484 28.6055C32.8047 28.6055 33.3672 28.5527 33.8359 28.4473C34.3047 28.3301 34.6914 28.1895 34.9961 28.0254C35.3125 27.8496 35.5527 27.6855 35.7168 27.5332V23.5605H31.4277V19.3242H41.8867ZM51.4668 13.9805V33H45.5254V13.9805H51.4668ZM45.1738 9.07617C45.1738 8.23242 45.4785 7.54102 46.0879 7.00195C46.6973 6.46289 47.4883 6.19336 48.4609 6.19336C49.4336 6.19336 50.2246 6.46289 50.834 7.00195C51.4434 7.54102 51.748 8.23242 51.748 9.07617C51.748 9.91992 51.4434 10.6113 50.834 11.1504C50.2246 11.6895 49.4336 11.959 48.4609 11.959C47.4883 11.959 46.6973 11.6895 46.0879 11.1504C45.4785 10.6113 45.1738 9.91992 45.1738 9.07617ZM65.1426 13.9805V18.0938H53.6816V13.9805H65.1426ZM56.0898 9.25195H62.0137V26.7949C62.0137 27.2988 62.0723 27.6914 62.1895 27.9727C62.3066 28.2422 62.5059 28.4355 62.7871 28.5527C63.0801 28.6582 63.4668 28.7109 63.9473 28.7109C64.2871 28.7109 64.5684 28.7051 64.791 28.6934C65.0137 28.6699 65.2246 28.6406 65.4238 28.6055V32.8418C64.9199 33.0059 64.3926 33.1289 63.8418 33.2109C63.291 33.3047 62.7051 33.3516 62.084 33.3516C60.8184 33.3516 59.7344 33.1523 58.832 32.7539C57.9414 32.3555 57.2617 31.7285 56.793 30.873C56.3242 30.0176 56.0898 28.9043 56.0898 27.5332V9.25195ZM73.2988 6V33H67.375V6H73.2988ZM72.5957 22.8398L71.207 22.875C71.207 21.5391 71.3711 20.3086 71.6992 19.1836C72.0273 18.0586 72.4961 17.0801 73.1055 16.248C73.7148 15.416 74.4473 14.7715 75.3027 14.3145C76.1582 13.8574 77.1074 13.6289 78.1504 13.6289C79.0879 13.6289 79.9434 13.7637 80.7168 14.0332C81.502 14.3027 82.1758 14.7363 82.7383 15.334C83.3125 15.9316 83.752 16.7109 84.0566 17.6719C84.373 18.6328 84.5312 19.8047 84.5312 21.1875V33H78.5723V21.1523C78.5723 20.3789 78.4609 19.7812 78.2383 19.3594C78.0273 18.9258 77.7227 18.627 77.3242 18.4629C76.9258 18.2871 76.4395 18.1992 75.8652 18.1992C75.1738 18.1992 74.6113 18.3164 74.1777 18.5508C73.7441 18.7852 73.4102 19.1133 73.1758 19.5352C72.9531 19.9453 72.8008 20.4316 72.7188 20.9941C72.6367 21.5566 72.5957 22.1719 72.5957 22.8398ZM98.9277 28.377V13.9805H104.869V33H99.3145L98.9277 28.377ZM99.4902 24.5098L101.037 24.4746C101.037 25.752 100.885 26.9355 100.58 28.0254C100.275 29.1035 99.8242 30.041 99.2266 30.8379C98.6406 31.6348 97.9141 32.2559 97.0469 32.7012C96.1914 33.1348 95.2012 33.3516 94.0762 33.3516C93.1387 33.3516 92.2773 33.2227 91.4922 32.9648C90.7188 32.6953 90.0508 32.2793 89.4883 31.7168C88.9258 31.1426 88.4863 30.4102 88.1699 29.5195C87.8652 28.6172 87.7129 27.5391 87.7129 26.2852V13.9805H93.6367V26.3203C93.6367 26.7422 93.6895 27.1055 93.7949 27.4102C93.9004 27.7148 94.0527 27.9727 94.252 28.1836C94.4512 28.3828 94.6973 28.5352 94.9902 28.6406C95.2949 28.7344 95.6406 28.7812 96.0273 28.7812C96.918 28.7812 97.6152 28.5938 98.1191 28.2188C98.623 27.8438 98.9746 27.334 99.1738 26.6895C99.3848 26.0449 99.4902 25.3184 99.4902 24.5098ZM108.191 6H114.115V28.3242L113.5 33H108.191V6ZM125.787 23.2793V23.6484C125.787 25.0898 125.641 26.4023 125.348 27.5859C125.055 28.7695 124.604 29.7949 123.994 30.6621C123.385 31.5176 122.617 32.1797 121.691 32.6484C120.766 33.1172 119.67 33.3516 118.404 33.3516C117.256 33.3516 116.271 33.1055 115.451 32.6133C114.631 32.1094 113.945 31.418 113.395 30.5391C112.844 29.6484 112.398 28.623 112.059 27.4629C111.719 26.291 111.449 25.0371 111.25 23.7012V23.2617C111.449 21.9375 111.719 20.6953 112.059 19.5352C112.398 18.3633 112.844 17.3379 113.395 16.459C113.945 15.5684 114.625 14.877 115.434 14.3848C116.254 13.8809 117.232 13.6289 118.369 13.6289C119.646 13.6289 120.748 13.8691 121.674 14.3496C122.611 14.8301 123.385 15.5039 123.994 16.3711C124.604 17.2383 125.055 18.2578 125.348 19.4297C125.641 20.6016 125.787 21.8848 125.787 23.2793ZM119.863 23.6484V23.2793C119.863 22.5879 119.822 21.9375 119.74 21.3281C119.658 20.7188 119.512 20.1797 119.301 19.7109C119.09 19.2422 118.791 18.873 118.404 18.6035C118.018 18.334 117.514 18.1992 116.893 18.1992C116.26 18.1992 115.727 18.3047 115.293 18.5156C114.871 18.7266 114.531 19.0312 114.273 19.4297C114.027 19.8164 113.852 20.2969 113.746 20.8711C113.641 21.4336 113.594 22.0723 113.605 22.7871V24.1758C113.582 25.1484 113.67 25.9805 113.869 26.6719C114.068 27.3633 114.414 27.8906 114.906 28.2539C115.398 28.6172 116.072 28.7988 116.928 28.7988C117.561 28.7988 118.07 28.6758 118.457 28.4297C118.855 28.1836 119.154 27.832 119.354 27.375C119.553 26.918 119.688 26.373 119.758 25.7402C119.828 25.1074 119.863 24.4102 119.863 23.6484Z" fill="#445964"/>
<path d="M32.8107 65.6402L21.1834 58.8588C19.2199 57.7137 16.7802 57.7138 14.8166 58.8588L3.1894 65.6402C1.22207 66.7874 0 68.927 0 71.2239V84.776C0 87.0729 1.22207 89.2125 3.18932 90.3598L14.8166 97.1411C16.7805 98.2865 19.2201 98.2861 21.1834 97.1411L32.8106 90.3598C34.7779 89.2125 36 87.0729 36 84.776V71.2239C36 68.9271 34.7779 66.7875 32.8107 65.6402ZM32.9099 84.776C32.9099 85.9592 32.2804 87.0613 31.267 87.6522L19.6397 94.4335C18.6282 95.0235 17.3717 95.0235 16.3602 94.4335L4.73292 87.6522C3.71959 87.0612 3.09013 85.9592 3.09013 84.776V71.2239C3.09013 70.0409 3.71959 68.9388 4.733 68.3478L16.3602 61.5665C17.3718 60.9765 18.6287 60.9767 19.6398 61.5665L31.2671 68.3477C32.2804 68.9388 32.9099 70.0408 32.9099 71.2239V84.776Z" fill="#445964"/>
<path d="M76.8107 65.6402L65.1834 58.8588C63.2199 57.7137 60.7802 57.7138 58.8166 58.8588L47.1894 65.6402C45.2221 66.7874 44 68.927 44 71.2239V84.776C44 87.0729 45.2221 89.2125 47.1893 90.3598L58.8166 97.1411C60.7805 98.2865 63.2201 98.2861 65.1834 97.1411L76.8106 90.3598C78.7779 89.2125 80 87.0729 80 84.776V71.2239C80 68.9271 78.7779 66.7875 76.8107 65.6402ZM76.9099 84.776C76.9099 85.9592 76.2804 87.0613 75.267 87.6522L63.6397 94.4335C62.6282 95.0235 61.3717 95.0235 60.3602 94.4335L48.7329 87.6522C47.7196 87.0612 47.0901 85.9592 47.0901 84.776V71.2239C47.0901 70.0409 47.7196 68.9388 48.733 68.3478L60.3602 61.5665C61.3718 60.9765 62.6287 60.9767 63.6398 61.5665L75.2671 68.3477C76.2804 68.9388 76.9099 70.0408 76.9099 71.2239V84.776Z" fill="#445964"/>
<path d="M120.811 65.6402L109.183 58.8588C107.22 57.7137 104.78 57.7138 102.817 58.8588L91.1894 65.6402C89.2221 66.7874 88 68.927 88 71.2239V84.776C88 87.0729 89.2221 89.2125 91.1893 90.3598L102.817 97.1411C104.78 98.2865 107.22 98.2861 109.183 97.1411L120.811 90.3598C122.778 89.2125 124 87.0729 124 84.776V71.2239C124 68.9271 122.778 66.7875 120.811 65.6402ZM120.91 84.776C120.91 85.9592 120.28 87.0613 119.267 87.6522L107.64 94.4335C106.628 95.0235 105.372 95.0235 104.36 94.4335L92.7329 87.6522C91.7196 87.0612 91.0901 85.9592 91.0901 84.776V71.2239C91.0901 70.0409 91.7196 68.9388 92.733 68.3478L104.36 61.5665C105.372 60.9765 106.629 60.9767 107.64 61.5665L119.267 68.3477C120.28 68.9388 120.91 70.0408 120.91 71.2239V84.776Z" fill="#445964"/>
<path d="M164.811 65.6402L153.183 58.8588C151.22 57.7137 148.78 57.7138 146.817 58.8588L135.189 65.6402C133.222 66.7874 132 68.927 132 71.2239V84.776C132 87.0729 133.222 89.2125 135.189 90.3598L146.817 97.1411C148.78 98.2865 151.22 98.2861 153.183 97.1411L164.811 90.3598C166.778 89.2125 168 87.0729 168 84.776V71.2239C168 68.9271 166.778 66.7875 164.811 65.6402ZM164.91 84.776C164.91 85.9592 164.28 87.0613 163.267 87.6522L151.64 94.4335C150.628 95.0235 149.372 95.0235 148.36 94.4335L136.733 87.6522C135.72 87.0612 135.09 85.9592 135.09 84.776V71.2239C135.09 70.0409 135.72 68.9388 136.733 68.3478L148.36 61.5665C149.372 60.9765 150.629 60.9767 151.64 61.5665L163.267 68.3477C164.28 68.9388 164.91 70.0408 164.91 71.2239V84.776Z" fill="#445964" fill-opacity="0.2"/>
<path d="M208.811 65.6402L197.183 58.8588C195.22 57.7137 192.78 57.7138 190.817 58.8588L179.189 65.6402C177.222 66.7874 176 68.927 176 71.2239V84.776C176 87.0729 177.222 89.2125 179.189 90.3598L190.817 97.1411C192.78 98.2865 195.22 98.2861 197.183 97.1411L208.811 90.3598C210.778 89.2125 212 87.0729 212 84.776V71.2239C212 68.9271 210.778 66.7875 208.811 65.6402ZM208.91 84.776C208.91 85.9592 208.28 87.0613 207.267 87.6522L195.64 94.4335C194.628 95.0235 193.372 95.0235 192.36 94.4335L180.733 87.6522C179.72 87.0612 179.09 85.9592 179.09 84.776V71.2239C179.09 70.0409 179.72 68.9388 180.733 68.3478L192.36 61.5665C193.372 60.9765 194.629 60.9767 195.64 61.5665L207.267 68.3477C208.28 68.9388 208.91 70.0408 208.91 71.2239V84.776Z" fill="#445964" fill-opacity="0.2"/>
</svg>
