<svg width="1410" height="241" viewBox="0 0 1410 241" fill="none" xmlns="http://www.w3.org/2000/svg">
<g opacity="0.1">
<path d="M-8.29706 69.2571L-28 35.1286L-8.29706 1H31.1109L50.8159 35.1286L31.1109 69.2571H-8.29706Z" stroke="#0095FF" stroke-width="0.51779"/>
<path d="M50.8387 103.394L31.1357 69.2654L50.8387 35.1368H90.2466L109.95 69.2654L90.2466 103.394H50.8387Z" stroke="#0095FF" stroke-width="0.51779"/>
<path d="M109.848 69.2571L90.1431 35.1286L109.848 1H149.256L168.959 35.1286L149.256 69.2571H109.848Z" stroke="#0095FF" stroke-width="0.51779"/>
<path d="M168.982 103.394L149.279 69.2654L168.982 35.1368H208.39L228.093 69.2654L208.39 103.394H168.982Z" stroke="#0095FF" stroke-width="0.51779"/>
<path d="M227.991 69.2571L208.286 35.1286L227.991 1H267.399L287.102 35.1286L267.399 69.2571H227.991Z" stroke="#0095FF" stroke-width="0.51779"/>
<path d="M287.125 103.394L267.422 69.2654L287.125 35.1368H326.533L346.238 69.2654L326.533 103.394H287.125Z" stroke="#0095FF" stroke-width="0.51779"/>
<path d="M346.134 69.2571L326.429 35.1286L346.134 1H385.542L405.245 35.1286L385.542 69.2571H346.134Z" stroke="#0095FF" stroke-width="0.51779"/>
<path d="M405.27 103.394L385.565 69.2654L405.27 35.1368H444.678L464.381 69.2654L444.678 103.394H405.27Z" stroke="#0095FF" stroke-width="0.51779"/>
<path d="M464.277 69.2571L444.572 35.1286L464.277 1H503.685L523.388 35.1286L503.685 69.2571H464.277Z" stroke="#0095FF" stroke-width="0.51779"/>
<path d="M523.413 103.394L503.71 69.2654L523.413 35.1368H562.819L582.524 69.2654L562.819 103.394H523.413Z" stroke="#0095FF" stroke-width="0.51779"/>
<path d="M582.422 69.2571L562.715 35.1286L582.422 1H621.828L641.531 35.1286L621.828 69.2571H582.422Z" stroke="#0095FF" stroke-width="0.51779"/>
<path d="M641.556 103.394L621.853 69.2654L641.556 35.1368H680.962L700.667 69.2654L680.962 103.394H641.556Z" stroke="#0095FF" stroke-width="0.51779"/>
<path d="M700.565 69.2571L680.86 35.1286L700.565 1H739.971L759.676 35.1286L739.971 69.2571H700.565Z" stroke="#0095FF" stroke-width="0.51779"/>
<path d="M759.699 103.394L739.996 69.2654L759.699 35.1368H799.107L818.812 69.2654L799.107 103.394H759.699Z" stroke="#0095FF" stroke-width="0.51779"/>
<path d="M818.709 69.2571L799.004 35.1286L818.709 1H858.114L877.819 35.1286L858.114 69.2571H818.709Z" stroke="#0095FF" stroke-width="0.51779"/>
<path d="M877.842 103.394L858.141 69.2654L877.842 35.1368H917.25L936.953 69.2654L917.25 103.394H877.842Z" stroke="#0095FF" stroke-width="0.51779"/>
<path d="M936.854 69.2571L917.147 35.1286L936.854 1H976.257L995.962 35.1286L976.257 69.2571H936.854Z" stroke="#0095FF" stroke-width="0.51779"/>
<path d="M995.987 103.394L976.284 69.2654L995.987 35.1368H1035.39L1055.1 69.2654L1035.39 103.394H995.987Z" stroke="#0095FF" stroke-width="0.51779"/>
<path d="M1055 69.2571L1035.29 35.1286L1055 1H1094.4L1114.11 35.1286L1094.4 69.2571H1055Z" stroke="#0095FF" stroke-width="0.51779"/>
<path d="M1114.13 103.394L1094.43 69.2654L1114.13 35.1368H1153.54L1173.24 69.2654L1153.54 103.394H1114.13Z" stroke="#0095FF" stroke-width="0.51779"/>
<path d="M1173.14 69.2571L1153.43 35.1286L1173.14 1H1212.54L1232.25 35.1286L1212.54 69.2571H1173.14Z" stroke="#0095FF" stroke-width="0.51779"/>
<path d="M1232.27 103.394L1212.57 69.2654L1232.27 35.1368H1271.68L1291.38 69.2654L1271.68 103.394H1232.27Z" stroke="#0095FF" stroke-width="0.51779"/>
<path d="M1291.28 69.2571L1271.58 35.1286L1291.28 1H1330.69L1350.39 35.1286L1330.69 69.2571H1291.28Z" stroke="#0095FF" stroke-width="0.51779"/>
<path d="M1350.42 103.394L1330.71 69.2654L1350.42 35.1368H1389.82L1409.53 69.2654L1389.82 103.394H1350.42Z" stroke="#0095FF" stroke-width="0.51779"/>
</g>
<g opacity="0.1">
<path d="M-8.29706 137.8L-28 103.672L-8.29706 69.543H31.1109L50.8159 103.672L31.1109 137.8H-8.29706Z" stroke="#0095FF" stroke-width="0.51779"/>
<path d="M50.8387 171.939L31.1357 137.81L50.8387 103.682H90.2466L109.95 137.81L90.2466 171.939H50.8387Z" stroke="#0095FF" stroke-width="0.51779"/>
<path d="M109.848 137.8L90.1431 103.672L109.848 69.543H149.256L168.959 103.672L149.256 137.8H109.848Z" stroke="#0095FF" stroke-width="0.51779"/>
<path d="M168.982 171.939L149.279 137.81L168.982 103.682H208.39L228.093 137.81L208.39 171.939H168.982Z" stroke="#0095FF" stroke-width="0.51779"/>
<path d="M227.991 137.8L208.286 103.672L227.991 69.543H267.399L287.102 103.672L267.399 137.8H227.991Z" stroke="#0095FF" stroke-width="0.51779"/>
<path d="M287.125 171.939L267.422 137.81L287.125 103.682H326.533L346.238 137.81L326.533 171.939H287.125Z" stroke="#0095FF" stroke-width="0.51779"/>
<path d="M346.134 137.8L326.429 103.672L346.134 69.543H385.542L405.245 103.672L385.542 137.8H346.134Z" stroke="#0095FF" stroke-width="0.51779"/>
<path d="M405.27 171.939L385.565 137.81L405.27 103.682H444.678L464.381 137.81L444.678 171.939H405.27Z" stroke="#0095FF" stroke-width="0.51779"/>
<path d="M464.277 137.8L444.572 103.672L464.277 69.543H503.685L523.388 103.672L503.685 137.8H464.277Z" stroke="#0095FF" stroke-width="0.51779"/>
<path d="M523.413 171.939L503.71 137.81L523.413 103.682H562.819L582.524 137.81L562.819 171.939H523.413Z" stroke="#0095FF" stroke-width="0.51779"/>
<path d="M582.422 137.8L562.715 103.672L582.422 69.543H621.828L641.531 103.672L621.828 137.8H582.422Z" stroke="#0095FF" stroke-width="0.51779"/>
<path d="M641.556 171.939L621.853 137.81L641.556 103.682H680.962L700.667 137.81L680.962 171.939H641.556Z" stroke="#0095FF" stroke-width="0.51779"/>
<path d="M700.565 137.8L680.86 103.672L700.565 69.543H739.971L759.676 103.672L739.971 137.8H700.565Z" stroke="#0095FF" stroke-width="0.51779"/>
<path d="M759.699 171.939L739.996 137.81L759.699 103.682H799.107L818.812 137.81L799.107 171.939H759.699Z" stroke="#0095FF" stroke-width="0.51779"/>
<path d="M818.709 137.8L799.004 103.672L818.709 69.543H858.114L877.819 103.672L858.114 137.8H818.709Z" stroke="#0095FF" stroke-width="0.51779"/>
<path d="M877.842 171.939L858.141 137.81L877.842 103.682H917.25L936.953 137.81L917.25 171.939H877.842Z" stroke="#0095FF" stroke-width="0.51779"/>
<path d="M936.854 137.8L917.147 103.672L936.854 69.543H976.257L995.962 103.672L976.257 137.8H936.854Z" stroke="#0095FF" stroke-width="0.51779"/>
<path d="M995.987 171.939L976.284 137.81L995.987 103.682H1035.39L1055.1 137.81L1035.39 171.939H995.987Z" stroke="#0095FF" stroke-width="0.51779"/>
<path d="M1055 137.8L1035.29 103.672L1055 69.543H1094.4L1114.11 103.672L1094.4 137.8H1055Z" stroke="#0095FF" stroke-width="0.51779"/>
<path d="M1114.13 171.939L1094.43 137.81L1114.13 103.682H1153.54L1173.24 137.81L1153.54 171.939H1114.13Z" stroke="#0095FF" stroke-width="0.51779"/>
<path d="M1173.14 137.8L1153.43 103.672L1173.14 69.543H1212.54L1232.25 103.672L1212.54 137.8H1173.14Z" stroke="#0095FF" stroke-width="0.51779"/>
<path d="M1232.27 171.939L1212.57 137.81L1232.27 103.682H1271.68L1291.38 137.81L1271.68 171.939H1232.27Z" stroke="#0095FF" stroke-width="0.51779"/>
<path d="M1291.28 137.8L1271.58 103.672L1291.28 69.543H1330.69L1350.39 103.672L1330.69 137.8H1291.28Z" stroke="#0095FF" stroke-width="0.51779"/>
<path d="M1350.42 171.939L1330.71 137.81L1350.42 103.682H1389.82L1409.53 137.81L1389.82 171.939H1350.42Z" stroke="#0095FF" stroke-width="0.51779"/>
</g>
<g opacity="0.1">
<path d="M-8.29706 206.345L-28 172.216L-8.29706 138.088H31.1109L50.8159 172.216L31.1109 206.345H-8.29706Z" stroke="#0095FF" stroke-width="0.51779"/>
<path d="M50.8387 240.482L31.1357 206.353L50.8387 172.225H90.2466L109.95 206.353L90.2466 240.482H50.8387Z" stroke="#0095FF" stroke-width="0.51779"/>
<path d="M109.848 206.345L90.1431 172.216L109.848 138.088H149.256L168.959 172.216L149.256 206.345H109.848Z" stroke="#0095FF" stroke-width="0.51779"/>
<path d="M168.982 240.482L149.279 206.353L168.982 172.225H208.39L228.093 206.353L208.39 240.482H168.982Z" stroke="#0095FF" stroke-width="0.51779"/>
<path d="M227.991 206.345L208.286 172.216L227.991 138.088H267.399L287.102 172.216L267.399 206.345H227.991Z" stroke="#0095FF" stroke-width="0.51779"/>
<path d="M287.125 240.482L267.422 206.353L287.125 172.225H326.533L346.238 206.353L326.533 240.482H287.125Z" stroke="#0095FF" stroke-width="0.51779"/>
<path d="M346.134 206.345L326.429 172.216L346.134 138.088H385.542L405.245 172.216L385.542 206.345H346.134Z" stroke="#0095FF" stroke-width="0.51779"/>
<path d="M405.27 240.482L385.565 206.353L405.27 172.225H444.678L464.381 206.353L444.678 240.482H405.27Z" stroke="#0095FF" stroke-width="0.51779"/>
<path d="M464.277 206.345L444.572 172.216L464.277 138.088H503.685L523.388 172.216L503.685 206.345H464.277Z" stroke="#0095FF" stroke-width="0.51779"/>
<path d="M523.413 240.482L503.71 206.353L523.413 172.225H562.819L582.524 206.353L562.819 240.482H523.413Z" stroke="#0095FF" stroke-width="0.51779"/>
<path d="M582.422 206.345L562.715 172.216L582.422 138.088H621.828L641.531 172.216L621.828 206.345H582.422Z" stroke="#0095FF" stroke-width="0.51779"/>
<path d="M641.556 240.482L621.853 206.353L641.556 172.225H680.962L700.667 206.353L680.962 240.482H641.556Z" stroke="#0095FF" stroke-width="0.51779"/>
<path d="M700.565 206.345L680.86 172.216L700.565 138.088H739.971L759.676 172.216L739.971 206.345H700.565Z" stroke="#0095FF" stroke-width="0.51779"/>
<path d="M759.699 240.482L739.996 206.353L759.699 172.225H799.107L818.812 206.353L799.107 240.482H759.699Z" stroke="#0095FF" stroke-width="0.51779"/>
<path d="M818.709 206.345L799.004 172.216L818.709 138.088H858.114L877.819 172.216L858.114 206.345H818.709Z" stroke="#0095FF" stroke-width="0.51779"/>
<path d="M877.842 240.482L858.141 206.353L877.842 172.225H917.25L936.953 206.353L917.25 240.482H877.842Z" stroke="#0095FF" stroke-width="0.51779"/>
<path d="M936.854 206.345L917.147 172.216L936.854 138.088H976.257L995.962 172.216L976.257 206.345H936.854Z" stroke="#0095FF" stroke-width="0.51779"/>
<path d="M995.987 240.482L976.284 206.353L995.987 172.225H1035.39L1055.1 206.353L1035.39 240.482H995.987Z" stroke="#0095FF" stroke-width="0.51779"/>
<path d="M1055 206.345L1035.29 172.216L1055 138.088H1094.4L1114.11 172.216L1094.4 206.345H1055Z" stroke="#0095FF" stroke-width="0.51779"/>
<path d="M1114.13 240.482L1094.43 206.353L1114.13 172.225H1153.54L1173.24 206.353L1153.54 240.482H1114.13Z" stroke="#0095FF" stroke-width="0.51779"/>
<path d="M1173.14 206.345L1153.43 172.216L1173.14 138.088H1212.54L1232.25 172.216L1212.54 206.345H1173.14Z" stroke="#0095FF" stroke-width="0.51779"/>
<path d="M1232.27 240.482L1212.57 206.353L1232.27 172.225H1271.68L1291.38 206.353L1271.68 240.482H1232.27Z" stroke="#0095FF" stroke-width="0.51779"/>
<path d="M1291.28 206.345L1271.58 172.216L1291.28 138.088H1330.69L1350.39 172.216L1330.69 206.345H1291.28Z" stroke="#0095FF" stroke-width="0.51779"/>
<path d="M1350.42 240.482L1330.71 206.353L1350.42 172.225H1389.82L1409.53 206.353L1389.82 240.482H1350.42Z" stroke="#0095FF" stroke-width="0.51779"/>
</g>
</svg>
