<svg width="51" height="57" viewBox="0 0 51 57" fill="none" xmlns="http://www.w3.org/2000/svg">
<path d="M45.6238 10.8077L29.4558 1.31589C26.7256 -0.286987 23.3331 -0.286877 20.6028 1.31589L4.43491 10.8077C1.69931 12.4135 0 15.4084 0 18.6233V37.5922C0 40.8071 1.69931 43.8019 4.4348 45.4078L20.6028 54.8996C23.3335 56.5028 26.7259 56.5023 29.4558 54.8996L45.6237 45.4078C48.3593 43.8019 50.0586 40.8071 50.0586 37.5922V18.6233C50.0586 15.4085 48.3593 12.4137 45.6238 10.8077ZM45.7617 37.5922C45.7617 39.2482 44.8864 40.7908 43.4773 41.618L27.3093 51.1098C25.9029 51.9356 24.1556 51.9356 22.7492 51.1098L6.5812 41.618C5.17215 40.7907 4.29688 39.2482 4.29688 37.5922V18.6233C4.29688 16.9674 5.17215 15.4248 6.58131 14.5976L22.7492 5.1058C24.1557 4.27997 25.9035 4.2803 27.3094 5.1058L43.4774 14.5975C44.8864 15.4248 45.7617 16.9673 45.7617 18.6233V37.5922Z" fill="#445964"/>
<path d="M22.9877 26.4379L15.0082 19.5637C14.1026 18.7834 12.7468 18.8983 11.9803 19.8206C11.2139 20.7429 11.3269 22.123 12.2327 22.9033L18.2739 28.1078L12.2327 33.3122C11.3269 34.0925 11.214 35.4726 11.9803 36.3949C12.7486 37.3191 14.1047 37.4301 15.0082 36.6517L22.9877 29.7775C24.0028 28.903 23.9999 27.31 22.9877 26.4379Z" fill="#445964"/>
<path d="M36.4382 32.7945H26.7707C25.5841 32.7945 24.6223 33.7737 24.6223 34.9819C24.6223 36.19 25.5841 37.1692 26.7707 37.1692H36.4382C37.6246 37.1692 38.5866 36.19 38.5866 34.9819C38.5866 33.7737 37.6247 32.7945 36.4382 32.7945Z" fill="#445964"/>
</svg>
