<svg width="212" height="98" viewBox="0 0 212 98" fill="none" xmlns="http://www.w3.org/2000/svg">
<path d="M65.3262 7.40625V33H59.1738L50.1211 17.0742V33H43.9512V7.40625H50.1211L59.1738 23.332V7.40625H65.3262ZM78.1582 33.3516C76.6113 33.3516 75.2285 33.1113 74.0098 32.6309C72.791 32.1387 71.7598 31.4648 70.916 30.6094C70.084 29.7539 69.4453 28.7695 69 27.6562C68.5664 26.543 68.3496 25.3652 68.3496 24.123V23.4551C68.3496 22.0605 68.543 20.7715 68.9297 19.5879C69.3164 18.3926 69.8906 17.3496 70.6523 16.459C71.4141 15.5684 72.3691 14.877 73.5176 14.3848C74.666 13.8809 76.002 13.6289 77.5254 13.6289C78.873 13.6289 80.0801 13.8457 81.1465 14.2793C82.2129 14.7129 83.1152 15.334 83.8535 16.1426C84.6035 16.9512 85.1719 17.9297 85.5586 19.0781C85.957 20.2266 86.1562 21.5156 86.1562 22.9453V25.3535H70.6172V21.6445H80.373V21.1875C80.3848 20.5547 80.2734 20.0156 80.0391 19.5703C79.8164 19.125 79.4883 18.7852 79.0547 18.5508C78.6211 18.3164 78.0938 18.1992 77.4727 18.1992C76.8281 18.1992 76.2949 18.3398 75.873 18.6211C75.4629 18.9023 75.1406 19.2891 74.9062 19.7812C74.6836 20.2617 74.5254 20.8184 74.4316 21.4512C74.3379 22.084 74.291 22.752 74.291 23.4551V24.123C74.291 24.8262 74.3848 25.4648 74.5723 26.0391C74.7715 26.6133 75.0527 27.1055 75.416 27.5156C75.791 27.9141 76.2363 28.2246 76.752 28.4473C77.2793 28.6699 77.877 28.7812 78.5449 28.7812C79.3535 28.7812 80.1504 28.6289 80.9355 28.3242C81.7207 28.0195 82.3945 27.5156 82.957 26.8125L85.6465 30.0117C85.2598 30.5625 84.709 31.0957 83.9941 31.6113C83.291 32.127 82.4473 32.5488 81.4629 32.877C80.4785 33.1934 79.377 33.3516 78.1582 33.3516ZM93.5918 13.9805L96.2637 19.2188L99.0234 13.9805H105.176L100.184 23.2441L105.439 33H99.2344L96.2637 27.375L93.3105 33H87.1055L92.3613 23.2441L87.3867 13.9805H93.5918ZM117.146 13.9805V18.0938H105.686V13.9805H117.146ZM108.094 9.25195H114.018V26.7949C114.018 27.2988 114.076 27.6914 114.193 27.9727C114.311 28.2422 114.51 28.4355 114.791 28.5527C115.084 28.6582 115.471 28.7109 115.951 28.7109C116.291 28.7109 116.572 28.7051 116.795 28.6934C117.018 28.6699 117.229 28.6406 117.428 28.6055V32.8418C116.924 33.0059 116.396 33.1289 115.846 33.2109C115.295 33.3047 114.709 33.3516 114.088 33.3516C112.822 33.3516 111.738 33.1523 110.836 32.7539C109.945 32.3555 109.266 31.7285 108.797 30.873C108.328 30.0176 108.094 28.9043 108.094 27.5332V9.25195ZM138.926 24.9668V7.40625H145.078V24.9668C145.078 26.6777 144.686 28.1602 143.9 29.4141C143.127 30.668 142.072 31.6406 140.736 32.332C139.412 33.0117 137.924 33.3516 136.271 33.3516C134.561 33.3516 133.037 33.0645 131.701 32.4902C130.377 31.916 129.334 31.0312 128.572 29.8359C127.822 28.6406 127.447 27.1172 127.447 25.2656H133.635C133.635 26.1328 133.734 26.8125 133.934 27.3047C134.133 27.7852 134.426 28.125 134.812 28.3242C135.211 28.5117 135.697 28.6055 136.271 28.6055C136.834 28.6055 137.309 28.4648 137.695 28.1836C138.094 27.8906 138.398 27.4746 138.609 26.9355C138.82 26.3848 138.926 25.7285 138.926 24.9668ZM162.182 26.1973C162.182 25.7988 162.123 25.4414 162.006 25.125C161.889 24.7969 161.672 24.4922 161.355 24.2109C161.039 23.9297 160.582 23.6484 159.984 23.3672C159.398 23.0742 158.625 22.7695 157.664 22.4531C156.539 22.0781 155.455 21.6562 154.412 21.1875C153.369 20.707 152.438 20.1504 151.617 19.5176C150.797 18.873 150.146 18.123 149.666 17.2676C149.186 16.4004 148.945 15.3926 148.945 14.2441C148.945 13.1426 149.191 12.1523 149.684 11.2734C150.176 10.3828 150.861 9.62695 151.74 9.00586C152.631 8.37305 153.674 7.89258 154.869 7.56445C156.064 7.22461 157.371 7.05469 158.789 7.05469C160.664 7.05469 162.316 7.38281 163.746 8.03906C165.188 8.68359 166.312 9.60352 167.121 10.7988C167.941 11.9824 168.352 13.3828 168.352 15H162.217C162.217 14.3555 162.082 13.7871 161.812 13.2949C161.555 12.8027 161.162 12.416 160.635 12.1348C160.107 11.8535 159.445 11.7129 158.648 11.7129C157.875 11.7129 157.225 11.8301 156.697 12.0645C156.17 12.2988 155.771 12.6152 155.502 13.0137C155.232 13.4004 155.098 13.8281 155.098 14.2969C155.098 14.6836 155.203 15.0352 155.414 15.3516C155.637 15.6562 155.947 15.9434 156.346 16.2129C156.756 16.4824 157.248 16.7402 157.822 16.9863C158.408 17.2324 159.064 17.4727 159.791 17.707C161.15 18.1406 162.357 18.627 163.412 19.166C164.479 19.6934 165.375 20.2969 166.102 20.9766C166.84 21.6445 167.396 22.4062 167.771 23.2617C168.158 24.1172 168.352 25.084 168.352 26.1621C168.352 27.3105 168.129 28.3301 167.684 29.2207C167.238 30.1113 166.6 30.8672 165.768 31.4883C164.936 32.0977 163.939 32.5605 162.779 32.877C161.619 33.1934 160.324 33.3516 158.895 33.3516C157.582 33.3516 156.287 33.1875 155.01 32.8594C153.744 32.5195 152.596 32.0039 151.564 31.3125C150.533 30.6094 149.707 29.7129 149.086 28.623C148.477 27.5215 148.172 26.2148 148.172 24.7031H154.359C154.359 25.4531 154.459 26.0859 154.658 26.6016C154.857 27.1172 155.15 27.5332 155.537 27.8496C155.924 28.1543 156.398 28.377 156.961 28.5176C157.523 28.6465 158.168 28.7109 158.895 28.7109C159.68 28.7109 160.312 28.5996 160.793 28.377C161.273 28.1426 161.625 27.8379 161.848 27.4629C162.07 27.0762 162.182 26.6543 162.182 26.1973Z" fill="#445964"/>
<path d="M32.8107 65.6402L21.1834 58.8588C19.2199 57.7137 16.7802 57.7138 14.8166 58.8588L3.1894 65.6402C1.22207 66.7874 0 68.927 0 71.2239V84.776C0 87.0729 1.22207 89.2125 3.18932 90.3598L14.8166 97.1411C16.7805 98.2865 19.2201 98.2861 21.1834 97.1411L32.8106 90.3598C34.7779 89.2125 36 87.0729 36 84.776V71.2239C36 68.9271 34.7779 66.7875 32.8107 65.6402ZM32.9099 84.776C32.9099 85.9592 32.2804 87.0613 31.267 87.6522L19.6397 94.4335C18.6282 95.0235 17.3717 95.0235 16.3602 94.4335L4.73292 87.6522C3.71959 87.0612 3.09013 85.9592 3.09013 84.776V71.2239C3.09013 70.0409 3.71959 68.9388 4.733 68.3478L16.3602 61.5665C17.3718 60.9765 18.6287 60.9767 19.6398 61.5665L31.2671 68.3477C32.2804 68.9388 32.9099 70.0408 32.9099 71.2239V84.776Z" fill="#445964"/>
<path d="M76.8107 65.6402L65.1834 58.8588C63.2199 57.7137 60.7802 57.7138 58.8166 58.8588L47.1894 65.6402C45.2221 66.7874 44 68.927 44 71.2239V84.776C44 87.0729 45.2221 89.2125 47.1893 90.3598L58.8166 97.1411C60.7805 98.2865 63.2201 98.2861 65.1834 97.1411L76.8106 90.3598C78.7779 89.2125 80 87.0729 80 84.776V71.2239C80 68.9271 78.7779 66.7875 76.8107 65.6402ZM76.9099 84.776C76.9099 85.9592 76.2804 87.0613 75.267 87.6522L63.6397 94.4335C62.6282 95.0235 61.3717 95.0235 60.3602 94.4335L48.7329 87.6522C47.7196 87.0612 47.0901 85.9592 47.0901 84.776V71.2239C47.0901 70.0409 47.7196 68.9388 48.733 68.3478L60.3602 61.5665C61.3718 60.9765 62.6287 60.9767 63.6398 61.5665L75.2671 68.3477C76.2804 68.9388 76.9099 70.0408 76.9099 71.2239V84.776Z" fill="#445964"/>
<path d="M120.811 65.6402L109.183 58.8588C107.22 57.7137 104.78 57.7138 102.817 58.8588L91.1894 65.6402C89.2221 66.7874 88 68.927 88 71.2239V84.776C88 87.0729 89.2221 89.2125 91.1893 90.3598L102.817 97.1411C104.78 98.2865 107.22 98.2861 109.183 97.1411L120.811 90.3598C122.778 89.2125 124 87.0729 124 84.776V71.2239C124 68.9271 122.778 66.7875 120.811 65.6402ZM120.91 84.776C120.91 85.9592 120.28 87.0613 119.267 87.6522L107.64 94.4335C106.628 95.0235 105.372 95.0235 104.36 94.4335L92.7329 87.6522C91.7196 87.0612 91.0901 85.9592 91.0901 84.776V71.2239C91.0901 70.0409 91.7196 68.9388 92.733 68.3478L104.36 61.5665C105.372 60.9765 106.629 60.9767 107.64 61.5665L119.267 68.3477C120.28 68.9388 120.91 70.0408 120.91 71.2239V84.776Z" fill="#445964"/>
<path d="M164.811 65.6402L153.183 58.8588C151.22 57.7137 148.78 57.7138 146.817 58.8588L135.189 65.6402C133.222 66.7874 132 68.927 132 71.2239V84.776C132 87.0729 133.222 89.2125 135.189 90.3598L146.817 97.1411C148.78 98.2865 151.22 98.2861 153.183 97.1411L164.811 90.3598C166.778 89.2125 168 87.0729 168 84.776V71.2239C168 68.9271 166.778 66.7875 164.811 65.6402ZM164.91 84.776C164.91 85.9592 164.28 87.0613 163.267 87.6522L151.64 94.4335C150.628 95.0235 149.372 95.0235 148.36 94.4335L136.733 87.6522C135.72 87.0612 135.09 85.9592 135.09 84.776V71.2239C135.09 70.0409 135.72 68.9388 136.733 68.3478L148.36 61.5665C149.372 60.9765 150.629 60.9767 151.64 61.5665L163.267 68.3477C164.28 68.9388 164.91 70.0408 164.91 71.2239V84.776Z" fill="#445964" fill-opacity="0.29"/>
<path d="M208.811 65.6402L197.183 58.8588C195.22 57.7137 192.78 57.7138 190.817 58.8588L179.189 65.6402C177.222 66.7874 176 68.927 176 71.2239V84.776C176 87.0729 177.222 89.2125 179.189 90.3598L190.817 97.1411C192.78 98.2865 195.22 98.2861 197.183 97.1411L208.811 90.3598C210.778 89.2125 212 87.0729 212 84.776V71.2239C212 68.9271 210.778 66.7875 208.811 65.6402ZM208.91 84.776C208.91 85.9592 208.28 87.0613 207.267 87.6522L195.64 94.4335C194.628 95.0235 193.372 95.0235 192.36 94.4335L180.733 87.6522C179.72 87.0612 179.09 85.9592 179.09 84.776V71.2239C179.09 70.0409 179.72 68.9388 180.733 68.3478L192.36 61.5665C193.372 60.9765 194.629 60.9767 195.64 61.5665L207.267 68.3477C208.28 68.9388 208.91 70.0408 208.91 71.2239V84.776Z" fill="#445964" fill-opacity="0.23"/>
</svg>
