<svg width="446" height="198" viewBox="0 0 446 198" fill="none" xmlns="http://www.w3.org/2000/svg">
<path d="M9.73719 126.362C10.3845 125.108 9.89295 123.567 8.63937 122.92C7.38578 122.273 5.84484 122.764 5.19757 124.018L9.73719 126.362ZM260.468 131.226L260.056 133.747L260.468 131.226ZM335.8 152.663L337.127 154.846L335.8 152.663ZM422.17 123.849C422.914 122.651 422.547 121.076 421.349 120.331L401.825 108.191C400.627 107.446 399.052 107.813 398.307 109.011C397.562 110.209 397.929 111.784 399.127 112.529L416.482 123.321L405.691 140.675C404.946 141.873 405.313 143.449 406.511 144.194C407.709 144.939 409.285 144.571 410.03 143.373L422.17 123.849ZM5.19757 124.018C-1.42178 136.838 -3.93675 146.915 -2.38606 154.585C-0.764765 162.603 5.11805 167.307 13.3126 169.643C21.391 171.945 32.0853 172.091 44.3394 170.927C56.6471 169.758 70.7778 167.24 85.8488 164.042C100.926 160.843 117.01 156.95 133.223 153.018C149.449 149.083 165.806 145.108 181.487 141.73C212.984 134.944 241.276 130.68 260.056 133.747L260.88 128.704C241.004 125.459 211.79 129.975 180.411 136.736C164.654 140.131 148.23 144.122 132.018 148.053C115.792 151.988 99.7806 155.864 84.7884 159.044C69.7903 162.226 55.8789 164.699 43.8563 165.841C31.7802 166.988 21.8562 166.765 14.713 164.729C7.68588 162.726 3.74375 159.122 2.62164 153.572C1.42892 147.673 3.25206 138.922 9.73719 126.362L5.19757 124.018ZM260.056 133.747C308.408 141.642 343.752 149.894 362.417 158.547C367.063 160.701 370.54 162.82 372.899 164.873C375.274 166.939 376.292 168.74 376.512 170.24C376.718 171.653 376.29 173.323 374.559 175.365C372.795 177.446 369.82 179.725 365.377 182.154L367.828 186.637C372.53 184.067 376.116 181.429 378.456 178.669C380.828 175.87 382.046 172.777 381.567 169.501C381.101 166.313 379.102 163.498 376.253 161.018C373.387 158.525 369.433 156.168 364.566 153.912C345.18 144.924 309.17 136.59 260.88 128.704L260.056 133.747ZM365.377 182.154C347.788 191.771 334.565 187.856 328.948 180.836C326.104 177.282 325.009 172.779 326.104 168.236C327.2 163.688 330.563 158.837 337.127 154.846L334.473 150.48C326.994 155.028 322.613 160.912 321.137 167.039C319.659 173.171 321.163 179.284 324.958 184.028C332.62 193.604 348.843 197.017 367.828 186.637L365.377 182.154ZM337.127 154.846C348.106 148.171 364.253 141.793 380.118 136.518C395.941 131.257 411.298 127.153 420.58 124.988L419.42 120.012C409.998 122.209 394.49 126.356 378.506 131.67C362.565 136.971 345.965 143.493 334.473 150.48L337.127 154.846Z" fill="url(#paint0_linear_307_5223)"/>
<path d="M11.2305 7.09375H21.293L40.2051 57.541L59.0723 7.09375H69.1348L44.1582 72.5H36.1621L11.2305 7.09375ZM6.64844 7.09375H16.2168L17.8789 50.7578V72.5H6.64844V7.09375ZM64.1484 7.09375H73.7617V72.5H62.4863V50.7578L64.1484 7.09375ZM107.498 73.3984C103.904 73.3984 100.655 72.8145 97.75 71.6465C94.875 70.4486 92.4193 68.7865 90.3828 66.6602C88.3763 64.5339 86.834 62.0332 85.7559 59.1582C84.6777 56.2832 84.1387 53.1836 84.1387 49.8594V48.0625C84.1387 44.2591 84.6927 40.8151 85.8008 37.7305C86.9089 34.6458 88.4512 32.0104 90.4277 29.8242C92.4043 27.6081 94.7402 25.916 97.4355 24.748C100.131 23.5801 103.051 22.9961 106.195 22.9961C109.669 22.9961 112.709 23.5801 115.314 24.748C117.92 25.916 120.076 27.5632 121.783 29.6895C123.52 31.7858 124.808 34.2865 125.646 37.1914C126.515 40.0964 126.949 43.3008 126.949 46.8047V51.4316H89.3945V43.6602H116.258V42.8066C116.198 40.86 115.809 39.0332 115.09 37.3262C114.401 35.6191 113.338 34.2415 111.9 33.1934C110.463 32.1452 108.546 31.6211 106.15 31.6211C104.354 31.6211 102.751 32.0104 101.344 32.7891C99.9661 33.5378 98.8132 34.6309 97.8848 36.0684C96.9564 37.5059 96.2376 39.2428 95.7285 41.2793C95.2493 43.2858 95.0098 45.5469 95.0098 48.0625V49.8594C95.0098 51.9857 95.2943 53.9622 95.8633 55.7891C96.4622 57.5859 97.3307 59.1582 98.4688 60.5059C99.6068 61.8535 100.984 62.9167 102.602 63.6953C104.219 64.444 106.061 64.8184 108.127 64.8184C110.732 64.8184 113.053 64.2943 115.09 63.2461C117.126 62.1979 118.893 60.7155 120.391 58.7988L126.096 64.3242C125.048 65.8516 123.685 67.319 122.008 68.7266C120.331 70.1042 118.279 71.2272 115.854 72.0957C113.458 72.9642 110.673 73.3984 107.498 73.3984ZM164.639 61.0449V23.8945H175.51V72.5H165.268L164.639 61.0449ZM166.166 50.9375L169.805 50.8477C169.805 54.112 169.445 57.1217 168.727 59.877C168.008 62.6022 166.9 64.9831 165.402 67.0195C163.905 69.026 161.988 70.5983 159.652 71.7363C157.316 72.8444 154.516 73.3984 151.252 73.3984C148.886 73.3984 146.715 73.054 144.738 72.3652C142.762 71.6764 141.055 70.6133 139.617 69.1758C138.21 67.7383 137.117 65.8665 136.338 63.5605C135.559 61.2546 135.17 58.4993 135.17 55.2949V23.8945H145.996V55.3848C145.996 57.1517 146.206 58.6341 146.625 59.832C147.044 61 147.613 61.9434 148.332 62.6621C149.051 63.3809 149.889 63.89 150.848 64.1895C151.806 64.4889 152.824 64.6387 153.902 64.6387C156.987 64.6387 159.413 64.0397 161.18 62.8418C162.977 61.6139 164.249 59.9668 164.998 57.9004C165.777 55.834 166.166 53.513 166.166 50.9375ZM31.4902 130.107H14.4648V121.168H31.4902C34.4551 121.168 36.8509 120.689 38.6777 119.73C40.5046 118.772 41.8372 117.454 42.6758 115.777C43.5443 114.07 43.9785 112.124 43.9785 109.938C43.9785 107.871 43.5443 105.939 42.6758 104.143C41.8372 102.316 40.5046 100.848 38.6777 99.7402C36.8509 98.6322 34.4551 98.0781 31.4902 98.0781H17.9238V154.5H6.64844V89.0938H31.4902C36.5514 89.0938 40.849 89.9922 44.3828 91.7891C47.9466 93.556 50.6569 96.0117 52.5137 99.1562C54.3704 102.271 55.2988 105.835 55.2988 109.848C55.2988 114.07 54.3704 117.694 52.5137 120.719C50.6569 123.743 47.9466 126.064 44.3828 127.682C40.849 129.299 36.5514 130.107 31.4902 130.107ZM61.6328 130.736V129.703C61.6328 126.199 62.1419 122.95 63.1602 119.955C64.1784 116.93 65.6458 114.31 67.5625 112.094C69.5091 109.848 71.875 108.111 74.6602 106.883C77.4753 105.625 80.6497 104.996 84.1836 104.996C87.7474 104.996 90.9219 105.625 93.707 106.883C96.5221 108.111 98.903 109.848 100.85 112.094C102.796 114.31 104.279 116.93 105.297 119.955C106.315 122.95 106.824 126.199 106.824 129.703V130.736C106.824 134.24 106.315 137.49 105.297 140.484C104.279 143.479 102.796 146.1 100.85 148.346C98.903 150.562 96.5371 152.299 93.752 153.557C90.9668 154.785 87.8073 155.398 84.2734 155.398C80.7096 155.398 77.5202 154.785 74.7051 153.557C71.9199 152.299 69.554 150.562 67.6074 148.346C65.6608 146.1 64.1784 143.479 63.1602 140.484C62.1419 137.49 61.6328 134.24 61.6328 130.736ZM72.459 129.703V130.736C72.459 132.923 72.6836 134.989 73.1328 136.936C73.582 138.882 74.2858 140.589 75.2441 142.057C76.2025 143.524 77.4303 144.677 78.9277 145.516C80.4251 146.354 82.207 146.773 84.2734 146.773C86.2799 146.773 88.0169 146.354 89.4844 145.516C90.9818 144.677 92.2096 143.524 93.168 142.057C94.1263 140.589 94.8301 138.882 95.2793 136.936C95.7585 134.989 95.998 132.923 95.998 130.736V129.703C95.998 127.547 95.7585 125.51 95.2793 123.594C94.8301 121.647 94.1113 119.925 93.123 118.428C92.1647 116.93 90.9368 115.762 89.4395 114.924C87.972 114.055 86.2201 113.621 84.1836 113.621C82.1471 113.621 80.3802 114.055 78.8828 114.924C77.4154 115.762 76.2025 116.93 75.2441 118.428C74.2858 119.925 73.582 121.647 73.1328 123.594C72.6836 125.51 72.459 127.547 72.459 129.703ZM126.77 115.148V154.5H115.943V105.895H126.275L126.77 115.148ZM141.639 105.58L141.549 115.643C140.89 115.523 140.171 115.433 139.393 115.373C138.644 115.313 137.895 115.283 137.146 115.283C135.29 115.283 133.658 115.553 132.25 116.092C130.842 116.601 129.66 117.35 128.701 118.338C127.773 119.296 127.054 120.464 126.545 121.842C126.036 123.219 125.736 124.762 125.646 126.469L123.176 126.648C123.176 123.594 123.475 120.764 124.074 118.158C124.673 115.553 125.572 113.262 126.77 111.285C127.997 109.309 129.525 107.766 131.352 106.658C133.208 105.55 135.35 104.996 137.775 104.996C138.434 104.996 139.138 105.056 139.887 105.176C140.665 105.296 141.249 105.43 141.639 105.58ZM172.949 105.895V113.801H145.547V105.895H172.949ZM153.453 93.9902H164.279V141.068C164.279 142.566 164.489 143.719 164.908 144.527C165.357 145.306 165.971 145.83 166.75 146.1C167.529 146.369 168.442 146.504 169.49 146.504C170.239 146.504 170.958 146.459 171.646 146.369C172.335 146.279 172.889 146.189 173.309 146.1L173.354 154.365C172.455 154.635 171.407 154.874 170.209 155.084C169.041 155.294 167.693 155.398 166.166 155.398C163.68 155.398 161.479 154.964 159.562 154.096C157.646 153.197 156.148 151.745 155.07 149.738C153.992 147.732 153.453 145.066 153.453 141.742V93.9902ZM192.895 105.895V154.5H182.023V105.895H192.895ZM181.305 93.1367C181.305 91.4896 181.844 90.127 182.922 89.0488C184.03 87.9408 185.557 87.3867 187.504 87.3867C189.421 87.3867 190.933 87.9408 192.041 89.0488C193.149 90.127 193.703 91.4896 193.703 93.1367C193.703 94.7539 193.149 96.1016 192.041 97.1797C190.933 98.2578 189.421 98.7969 187.504 98.7969C185.557 98.7969 184.03 98.2578 182.922 97.1797C181.844 96.1016 181.305 94.7539 181.305 93.1367ZM219.398 154.5H208.572V101.223C208.572 97.599 209.246 94.5592 210.594 92.1035C211.971 89.6178 213.933 87.7461 216.479 86.4883C219.024 85.2005 222.034 84.5566 225.508 84.5566C226.586 84.5566 227.649 84.6315 228.697 84.7812C229.745 84.901 230.764 85.0957 231.752 85.3652L231.482 93.7207C230.883 93.571 230.225 93.4661 229.506 93.4062C228.817 93.3464 228.068 93.3164 227.26 93.3164C225.613 93.3164 224.19 93.6309 222.992 94.2598C221.824 94.8587 220.926 95.7422 220.297 96.9102C219.698 98.0781 219.398 99.5156 219.398 101.223V154.5ZM229.416 105.895V113.801H201.115V105.895H229.416ZM235.211 130.736V129.703C235.211 126.199 235.72 122.95 236.738 119.955C237.757 116.93 239.224 114.31 241.141 112.094C243.087 109.848 245.453 108.111 248.238 106.883C251.053 105.625 254.228 104.996 257.762 104.996C261.326 104.996 264.5 105.625 267.285 106.883C270.1 108.111 272.481 109.848 274.428 112.094C276.374 114.31 277.857 116.93 278.875 119.955C279.893 122.95 280.402 126.199 280.402 129.703V130.736C280.402 134.24 279.893 137.49 278.875 140.484C277.857 143.479 276.374 146.1 274.428 148.346C272.481 150.562 270.115 152.299 267.33 153.557C264.545 154.785 261.385 155.398 257.852 155.398C254.288 155.398 251.098 154.785 248.283 153.557C245.498 152.299 243.132 150.562 241.186 148.346C239.239 146.1 237.757 143.479 236.738 140.484C235.72 137.49 235.211 134.24 235.211 130.736ZM246.037 129.703V130.736C246.037 132.923 246.262 134.989 246.711 136.936C247.16 138.882 247.864 140.589 248.822 142.057C249.781 143.524 251.008 144.677 252.506 145.516C254.003 146.354 255.785 146.773 257.852 146.773C259.858 146.773 261.595 146.354 263.062 145.516C264.56 144.677 265.788 143.524 266.746 142.057C267.704 140.589 268.408 138.882 268.857 136.936C269.337 134.989 269.576 132.923 269.576 130.736V129.703C269.576 127.547 269.337 125.51 268.857 123.594C268.408 121.647 267.689 119.925 266.701 118.428C265.743 116.93 264.515 115.762 263.018 114.924C261.55 114.055 259.798 113.621 257.762 113.621C255.725 113.621 253.958 114.055 252.461 114.924C250.993 115.762 249.781 116.93 248.822 118.428C247.864 119.925 247.16 121.647 246.711 123.594C246.262 125.51 246.037 127.547 246.037 129.703ZM252.102 99.0215L260.861 85.5H273.08L260.861 99.0215H252.102ZM301.066 85.5V154.5H290.195V85.5H301.066ZM324.516 105.895V154.5H313.645V105.895H324.516ZM312.926 93.1367C312.926 91.4896 313.465 90.127 314.543 89.0488C315.651 87.9408 317.178 87.3867 319.125 87.3867C321.042 87.3867 322.554 87.9408 323.662 89.0488C324.77 90.127 325.324 91.4896 325.324 93.1367C325.324 94.7539 324.77 96.1016 323.662 97.1797C322.554 98.2578 321.042 98.7969 319.125 98.7969C317.178 98.7969 315.651 98.2578 314.543 97.1797C313.465 96.1016 312.926 94.7539 312.926 93.1367ZM334.309 130.736V129.703C334.309 126.199 334.818 122.95 335.836 119.955C336.854 116.93 338.322 114.31 340.238 112.094C342.185 109.848 344.551 108.111 347.336 106.883C350.151 105.625 353.326 104.996 356.859 104.996C360.423 104.996 363.598 105.625 366.383 106.883C369.198 108.111 371.579 109.848 373.525 112.094C375.472 114.31 376.954 116.93 377.973 119.955C378.991 122.95 379.5 126.199 379.5 129.703V130.736C379.5 134.24 378.991 137.49 377.973 140.484C376.954 143.479 375.472 146.1 373.525 148.346C371.579 150.562 369.213 152.299 366.428 153.557C363.643 154.785 360.483 155.398 356.949 155.398C353.385 155.398 350.196 154.785 347.381 153.557C344.596 152.299 342.23 150.562 340.283 148.346C338.337 146.1 336.854 143.479 335.836 140.484C334.818 137.49 334.309 134.24 334.309 130.736ZM345.135 129.703V130.736C345.135 132.923 345.359 134.989 345.809 136.936C346.258 138.882 346.962 140.589 347.92 142.057C348.878 143.524 350.106 144.677 351.604 145.516C353.101 146.354 354.883 146.773 356.949 146.773C358.956 146.773 360.693 146.354 362.16 145.516C363.658 144.677 364.885 143.524 365.844 142.057C366.802 140.589 367.506 138.882 367.955 136.936C368.434 134.989 368.674 132.923 368.674 130.736V129.703C368.674 127.547 368.434 125.51 367.955 123.594C367.506 121.647 366.787 119.925 365.799 118.428C364.84 116.93 363.613 115.762 362.115 114.924C360.648 114.055 358.896 113.621 356.859 113.621C354.823 113.621 353.056 114.055 351.559 114.924C350.091 115.762 348.878 116.93 347.92 118.428C346.962 119.925 346.258 121.647 345.809 123.594C345.359 125.51 345.135 127.547 345.135 129.703Z" fill="#111827"/>
<defs>
<linearGradient id="paint0_linear_307_5223" x1="-316.242" y1="207.883" x2="388.715" y2="64.4986" gradientUnits="userSpaceOnUse">
<stop stop-color="#FFF278"/>
<stop offset="1" stop-color="#F28D2F"/>
</linearGradient>
</defs>
</svg>
