<svg width="212" height="98" viewBox="0 0 212 98" fill="none" xmlns="http://www.w3.org/2000/svg">
<path d="M36.9512 7.40625H47.0234C48.9922 7.40625 50.7031 7.69922 52.1562 8.28516C53.6094 8.87109 54.7285 9.73828 55.5137 10.8867C56.3105 12.0352 56.709 13.4531 56.709 15.1406C56.709 16.6055 56.4805 17.8301 56.0234 18.8145C55.5664 19.7988 54.9277 20.6133 54.1074 21.2578C53.2988 21.8906 52.3555 22.4121 51.2773 22.8223L49.2559 23.9648H40.8008L40.7656 19.2012H47.0234C47.8086 19.2012 48.459 19.0605 48.9746 18.7793C49.4902 18.498 49.877 18.0996 50.1348 17.584C50.4043 17.0566 50.5391 16.4297 50.5391 15.7031C50.5391 14.9648 50.4043 14.332 50.1348 13.8047C49.8652 13.2773 49.4668 12.873 48.9395 12.5918C48.4238 12.3105 47.7852 12.1699 47.0234 12.1699H43.1211V33H36.9512V7.40625ZM50.9609 33L45.3008 21.6797L51.8398 21.6445L57.5703 32.7363V33H50.9609ZM69.3652 33.3516C67.8184 33.3516 66.4355 33.1113 65.2168 32.6309C63.998 32.1387 62.9668 31.4648 62.123 30.6094C61.291 29.7539 60.6523 28.7695 60.207 27.6562C59.7734 26.543 59.5566 25.3652 59.5566 24.123V23.4551C59.5566 22.0605 59.75 20.7715 60.1367 19.5879C60.5234 18.3926 61.0977 17.3496 61.8594 16.459C62.6211 15.5684 63.5762 14.877 64.7246 14.3848C65.873 13.8809 67.209 13.6289 68.7324 13.6289C70.0801 13.6289 71.2871 13.8457 72.3535 14.2793C73.4199 14.7129 74.3223 15.334 75.0605 16.1426C75.8105 16.9512 76.3789 17.9297 76.7656 19.0781C77.1641 20.2266 77.3633 21.5156 77.3633 22.9453V25.3535H61.8242V21.6445H71.5801V21.1875C71.5918 20.5547 71.4805 20.0156 71.2461 19.5703C71.0234 19.125 70.6953 18.7852 70.2617 18.5508C69.8281 18.3164 69.3008 18.1992 68.6797 18.1992C68.0352 18.1992 67.502 18.3398 67.0801 18.6211C66.6699 18.9023 66.3477 19.2891 66.1133 19.7812C65.8906 20.2617 65.7324 20.8184 65.6387 21.4512C65.5449 22.084 65.498 22.752 65.498 23.4551V24.123C65.498 24.8262 65.5918 25.4648 65.7793 26.0391C65.9785 26.6133 66.2598 27.1055 66.623 27.5156C66.998 27.9141 67.4434 28.2246 67.959 28.4473C68.4863 28.6699 69.084 28.7812 69.752 28.7812C70.5605 28.7812 71.3574 28.6289 72.1426 28.3242C72.9277 28.0195 73.6016 27.5156 74.1641 26.8125L76.8535 30.0117C76.4668 30.5625 75.916 31.0957 75.2012 31.6113C74.498 32.127 73.6543 32.5488 72.6699 32.877C71.6855 33.1934 70.584 33.3516 69.3652 33.3516ZM89.7383 27.6562C89.7383 27.3281 89.627 27.0469 89.4043 26.8125C89.1934 26.5664 88.8184 26.3438 88.2793 26.1445C87.7402 25.9336 86.9844 25.7227 86.0117 25.5117C85.0859 25.3125 84.2129 25.0488 83.3926 24.7207C82.584 24.3926 81.875 23.9941 81.2656 23.5254C80.6562 23.0566 80.1758 22.5 79.8242 21.8555C79.4844 21.2109 79.3145 20.4727 79.3145 19.6406C79.3145 18.832 79.4844 18.0703 79.8242 17.3555C80.1758 16.6289 80.6855 15.9902 81.3535 15.4395C82.0332 14.877 82.8594 14.4375 83.832 14.1211C84.8047 13.793 85.9121 13.6289 87.1543 13.6289C88.8652 13.6289 90.3418 13.8926 91.584 14.4199C92.8262 14.9355 93.7812 15.6621 94.4492 16.5996C95.1289 17.5254 95.4688 18.5977 95.4688 19.8164H89.5449C89.5449 19.3359 89.4629 18.9258 89.2988 18.5859C89.1465 18.2461 88.8945 17.9883 88.543 17.8125C88.1914 17.625 87.7227 17.5312 87.1367 17.5312C86.7266 17.5312 86.3516 17.6074 86.0117 17.7598C85.6836 17.9121 85.4199 18.123 85.2207 18.3926C85.0215 18.6621 84.9219 18.9785 84.9219 19.3418C84.9219 19.5996 84.9805 19.834 85.0977 20.0449C85.2266 20.2441 85.4199 20.4316 85.6777 20.6074C85.9355 20.7715 86.2637 20.9238 86.6621 21.0645C87.0605 21.1934 87.541 21.3105 88.1035 21.416C89.3809 21.6504 90.5762 21.9844 91.6895 22.418C92.8027 22.8516 93.7051 23.4668 94.3965 24.2637C95.0996 25.0605 95.4512 26.1328 95.4512 27.4805C95.4512 28.3242 95.2578 29.1035 94.8711 29.8184C94.4844 30.5215 93.9277 31.1426 93.2012 31.6816C92.4746 32.209 91.6016 32.6191 90.582 32.9121C89.5625 33.2051 88.4141 33.3516 87.1367 33.3516C85.3203 33.3516 83.7852 33.0293 82.5312 32.3848C81.2773 31.7285 80.3281 30.9082 79.6836 29.9238C79.0508 28.9277 78.7344 27.9199 78.7344 26.9004H84.2539C84.2773 27.4863 84.418 27.9668 84.6758 28.3418C84.9453 28.7168 85.3027 28.9922 85.748 29.168C86.1934 29.3438 86.709 29.4316 87.2949 29.4316C87.834 29.4316 88.2793 29.3555 88.6309 29.2031C88.9941 29.0508 89.2695 28.8457 89.457 28.5879C89.6445 28.3184 89.7383 28.0078 89.7383 27.6562ZM108.248 13.9805V18.0938H96.7871V13.9805H108.248ZM99.1953 9.25195H105.119V26.7949C105.119 27.2988 105.178 27.6914 105.295 27.9727C105.412 28.2422 105.611 28.4355 105.893 28.5527C106.186 28.6582 106.572 28.7109 107.053 28.7109C107.393 28.7109 107.674 28.7051 107.896 28.6934C108.119 28.6699 108.33 28.6406 108.529 28.6055V32.8418C108.025 33.0059 107.498 33.1289 106.947 33.2109C106.396 33.3047 105.811 33.3516 105.189 33.3516C103.924 33.3516 102.84 33.1523 101.938 32.7539C101.047 32.3555 100.367 31.7285 99.8984 30.873C99.4297 30.0176 99.1953 28.9043 99.1953 27.5332V9.25195ZM130.695 12.7852L124.455 33H117.828L127.232 7.40625H131.434L130.695 12.7852ZM135.863 33L129.605 12.7852L128.797 7.40625H133.051L142.508 33H135.863ZM135.617 23.4551V28.2188H122.486V23.4551H135.617ZM154.602 24.3164H148.238V19.5527H154.602C155.469 19.5527 156.172 19.4062 156.711 19.1133C157.25 18.8203 157.643 18.416 157.889 17.9004C158.146 17.373 158.275 16.7812 158.275 16.125C158.275 15.4219 158.146 14.7715 157.889 14.1738C157.643 13.5762 157.25 13.0957 156.711 12.7324C156.172 12.3574 155.469 12.1699 154.602 12.1699H150.559V33H144.389V7.40625H154.602C156.652 7.40625 158.416 7.78125 159.893 8.53125C161.381 9.28125 162.523 10.3125 163.32 11.625C164.117 12.9258 164.516 14.4141 164.516 16.0898C164.516 17.7422 164.117 19.1836 163.32 20.4141C162.523 21.6445 161.381 22.6055 159.893 23.2969C158.416 23.9766 156.652 24.3164 154.602 24.3164ZM174.395 7.40625V33H168.242V7.40625H174.395Z" fill="#445964"/>
<path d="M32.8107 65.6402L21.1834 58.8588C19.2199 57.7137 16.7802 57.7138 14.8166 58.8588L3.1894 65.6402C1.22207 66.7874 0 68.927 0 71.2239V84.776C0 87.0729 1.22207 89.2125 3.18932 90.3598L14.8166 97.1411C16.7805 98.2865 19.2201 98.2861 21.1834 97.1411L32.8106 90.3598C34.7779 89.2125 36 87.0729 36 84.776V71.2239C36 68.9271 34.7779 66.7875 32.8107 65.6402ZM32.9099 84.776C32.9099 85.9592 32.2804 87.0613 31.267 87.6522L19.6397 94.4335C18.6282 95.0235 17.3717 95.0235 16.3602 94.4335L4.73292 87.6522C3.71959 87.0612 3.09013 85.9592 3.09013 84.776V71.2239C3.09013 70.0409 3.71959 68.9388 4.733 68.3478L16.3602 61.5665C17.3718 60.9765 18.6287 60.9767 19.6398 61.5665L31.2671 68.3477C32.2804 68.9388 32.9099 70.0408 32.9099 71.2239V84.776Z" fill="#445964"/>
<path d="M76.8107 65.6402L65.1834 58.8588C63.2199 57.7137 60.7802 57.7138 58.8166 58.8588L47.1894 65.6402C45.2221 66.7874 44 68.927 44 71.2239V84.776C44 87.0729 45.2221 89.2125 47.1893 90.3598L58.8166 97.1411C60.7805 98.2865 63.2201 98.2861 65.1834 97.1411L76.8106 90.3598C78.7779 89.2125 80 87.0729 80 84.776V71.2239C80 68.9271 78.7779 66.7875 76.8107 65.6402ZM76.9099 84.776C76.9099 85.9592 76.2804 87.0613 75.267 87.6522L63.6397 94.4335C62.6282 95.0235 61.3717 95.0235 60.3602 94.4335L48.7329 87.6522C47.7196 87.0612 47.0901 85.9592 47.0901 84.776V71.2239C47.0901 70.0409 47.7196 68.9388 48.733 68.3478L60.3602 61.5665C61.3718 60.9765 62.6287 60.9767 63.6398 61.5665L75.2671 68.3477C76.2804 68.9388 76.9099 70.0408 76.9099 71.2239V84.776Z" fill="#445964"/>
<path d="M120.811 65.6402L109.183 58.8588C107.22 57.7137 104.78 57.7138 102.817 58.8588L91.1894 65.6402C89.2221 66.7874 88 68.927 88 71.2239V84.776C88 87.0729 89.2221 89.2125 91.1893 90.3598L102.817 97.1411C104.78 98.2865 107.22 98.2861 109.183 97.1411L120.811 90.3598C122.778 89.2125 124 87.0729 124 84.776V71.2239C124 68.9271 122.778 66.7875 120.811 65.6402ZM120.91 84.776C120.91 85.9592 120.28 87.0613 119.267 87.6522L107.64 94.4335C106.628 95.0235 105.372 95.0235 104.36 94.4335L92.7329 87.6522C91.7196 87.0612 91.0901 85.9592 91.0901 84.776V71.2239C91.0901 70.0409 91.7196 68.9388 92.733 68.3478L104.36 61.5665C105.372 60.9765 106.629 60.9767 107.64 61.5665L119.267 68.3477C120.28 68.9388 120.91 70.0408 120.91 71.2239V84.776Z" fill="#445964"/>
<path d="M164.811 65.6402L153.183 58.8588C151.22 57.7137 148.78 57.7138 146.817 58.8588L135.189 65.6402C133.222 66.7874 132 68.927 132 71.2239V84.776C132 87.0729 133.222 89.2125 135.189 90.3598L146.817 97.1411C148.78 98.2865 151.22 98.2861 153.183 97.1411L164.811 90.3598C166.778 89.2125 168 87.0729 168 84.776V71.2239C168 68.9271 166.778 66.7875 164.811 65.6402ZM164.91 84.776C164.91 85.9592 164.28 87.0613 163.267 87.6522L151.64 94.4335C150.628 95.0235 149.372 95.0235 148.36 94.4335L136.733 87.6522C135.72 87.0612 135.09 85.9592 135.09 84.776V71.2239C135.09 70.0409 135.72 68.9388 136.733 68.3478L148.36 61.5665C149.372 60.9765 150.629 60.9767 151.64 61.5665L163.267 68.3477C164.28 68.9388 164.91 70.0408 164.91 71.2239V84.776Z" fill="#445964" fill-opacity="0.2"/>
<path d="M208.811 65.6402L197.183 58.8588C195.22 57.7137 192.78 57.7138 190.817 58.8588L179.189 65.6402C177.222 66.7874 176 68.927 176 71.2239V84.776C176 87.0729 177.222 89.2125 179.189 90.3598L190.817 97.1411C192.78 98.2865 195.22 98.2861 197.183 97.1411L208.811 90.3598C210.778 89.2125 212 87.0729 212 84.776V71.2239C212 68.9271 210.778 66.7875 208.811 65.6402ZM208.91 84.776C208.91 85.9592 208.28 87.0613 207.267 87.6522L195.64 94.4335C194.628 95.0235 193.372 95.0235 192.36 94.4335L180.733 87.6522C179.72 87.0612 179.09 85.9592 179.09 84.776V71.2239C179.09 70.0409 179.72 68.9388 180.733 68.3478L192.36 61.5665C193.372 60.9765 194.629 60.9767 195.64 61.5665L207.267 68.3477C208.28 68.9388 208.91 70.0408 208.91 71.2239V84.776Z" fill="#445964" fill-opacity="0.2"/>
</svg>
