<svg width="278" height="198" viewBox="0 0 278 198" fill="none" xmlns="http://www.w3.org/2000/svg">
<path d="M7.84235 128.466C8.41592 127.177 7.83598 125.667 6.54701 125.094C5.25805 124.52 3.74816 125.1 3.17459 126.389L7.84235 128.466ZM158.308 125.802L157.9 128.323L158.308 125.802ZM203.331 139.916L204.888 141.941L203.331 139.916ZM257.235 116.624C257.877 115.368 257.379 113.829 256.123 113.187L235.65 102.727C234.393 102.085 232.855 102.583 232.213 103.839C231.571 105.095 232.069 106.634 233.325 107.276L251.523 116.575L242.225 134.773C241.583 136.029 242.081 137.568 243.338 138.21C244.594 138.852 246.133 138.354 246.775 137.097L257.235 116.624ZM3.17459 126.389C-1.14365 136.093 -2.92595 143.683 -2.16477 149.414C-1.77536 152.346 -0.713646 154.835 1.03996 156.817C2.78339 158.787 5.07486 160.102 7.68537 160.922C12.813 162.532 19.5227 162.34 27.0032 161.172C34.5536 159.993 43.2179 157.761 52.4235 155.016C61.6373 152.267 71.4736 148.978 81.3657 145.666C91.2743 142.347 101.241 139.004 110.783 136.12C120.328 133.234 129.385 130.828 137.463 129.375C145.577 127.915 152.518 127.452 157.9 128.323L158.716 123.28C152.49 122.272 144.883 122.849 136.559 124.347C128.199 125.851 118.928 128.32 109.304 131.229C99.6768 134.139 89.6346 137.508 79.7433 140.821C69.8355 144.139 60.0811 147.4 50.9631 150.12C41.837 152.842 33.4285 154.997 26.2149 156.124C18.9313 157.261 13.1855 157.294 9.21609 156.047C7.27807 155.439 5.86059 154.555 4.86588 153.431C3.88134 152.318 3.17571 150.819 2.8998 148.741C2.33032 144.453 3.62542 137.943 7.84235 128.466L3.17459 126.389ZM157.9 128.323C186.954 133.026 207.912 138.281 218.771 144.145C224.334 147.15 226.331 149.824 226.509 151.882C226.681 153.862 225.269 156.797 219.724 160.662L222.646 164.853C228.398 160.845 232.03 156.398 231.599 151.44C231.176 146.561 226.924 142.742 221.199 139.65C209.481 133.321 187.704 127.972 158.716 123.28L157.9 128.323ZM219.724 160.662C214.412 164.364 209.971 165.459 206.641 165.167C203.356 164.879 200.908 163.231 199.42 160.887C196.431 156.178 197.059 147.96 204.888 141.941L201.774 137.891C192.21 145.243 190.469 156.319 195.106 163.625C197.432 167.288 201.296 169.828 206.195 170.257C211.048 170.682 216.661 169.024 222.646 164.853L219.724 160.662ZM204.888 141.941C211.597 136.782 221.426 131.691 231.118 127.398C240.773 123.122 250.119 119.714 255.747 117.892L254.174 113.032C248.389 114.904 238.877 118.374 229.049 122.727C219.258 127.063 208.978 132.352 201.774 137.891L204.888 141.941Z" fill="url(#paint0_linear_307_5223)"/>
<path d="M41.0586 55.6543C41.0586 54.3066 40.849 53.1087 40.4297 52.0605C40.0404 51.0124 39.3366 50.054 38.3184 49.1855C37.3001 48.3171 35.8626 47.4785 34.0059 46.6699C32.179 45.8314 29.8431 44.9779 26.998 44.1094C23.8835 43.151 21.0085 42.0879 18.373 40.9199C15.7676 39.722 13.4915 38.3444 11.5449 36.7871C9.59831 35.1999 8.08594 33.388 7.00781 31.3516C5.92969 29.2852 5.39062 26.9043 5.39062 24.209C5.39062 21.5436 5.94466 19.1178 7.05273 16.9316C8.19076 14.7454 9.79297 12.8587 11.8594 11.2715C13.9557 9.6543 16.4264 8.41146 19.2715 7.54297C22.1165 6.64453 25.2611 6.19531 28.7051 6.19531C33.5566 6.19531 37.7344 7.09375 41.2383 8.89062C44.7721 10.6875 47.4824 13.0983 49.3691 16.123C51.2858 19.1478 52.2441 22.487 52.2441 26.1406H41.0586C41.0586 23.9844 40.5944 22.0827 39.666 20.4355C38.7676 18.7585 37.39 17.4408 35.5332 16.4824C33.7064 15.5241 31.3854 15.0449 28.5703 15.0449C25.9049 15.0449 23.6888 15.4492 21.9219 16.2578C20.1549 17.0664 18.8372 18.1595 17.9688 19.5371C17.1003 20.9147 16.666 22.472 16.666 24.209C16.666 25.4368 16.9505 26.5599 17.5195 27.5781C18.0885 28.5664 18.957 29.4948 20.125 30.3633C21.293 31.2018 22.7604 31.9954 24.5273 32.7441C26.2943 33.4928 28.3757 34.2116 30.7715 34.9004C34.3952 35.9785 37.5547 37.1764 40.25 38.4941C42.9453 39.7819 45.1914 41.2493 46.9883 42.8965C48.7852 44.5436 50.1328 46.4154 51.0312 48.5117C51.9297 50.5781 52.3789 52.929 52.3789 55.5645C52.3789 58.3197 51.8249 60.8053 50.7168 63.0215C49.6087 65.2077 48.0215 67.0794 45.9551 68.6367C43.9186 70.1641 41.4629 71.347 38.5879 72.1855C35.7428 72.9941 32.5684 73.3984 29.0645 73.3984C25.9199 73.3984 22.8203 72.9792 19.7656 72.1406C16.7409 71.3021 13.9857 70.0293 11.5 68.3223C9.01432 66.5853 7.03776 64.429 5.57031 61.8535C4.10286 59.248 3.36914 56.2083 3.36914 52.7344H14.6445C14.6445 54.8607 15.0039 56.6725 15.7227 58.1699C16.4714 59.6673 17.5046 60.8952 18.8223 61.8535C20.14 62.7819 21.6673 63.4707 23.4043 63.9199C25.1712 64.3691 27.0579 64.5938 29.0645 64.5938C31.6999 64.5938 33.901 64.2194 35.668 63.4707C37.4648 62.722 38.8125 61.6738 39.7109 60.3262C40.6094 58.9785 41.0586 57.4212 41.0586 55.6543ZM59.207 48.7363V47.7031C59.207 44.1992 59.7161 40.9499 60.7344 37.9551C61.7526 34.9303 63.2201 32.3099 65.1367 30.0938C67.0833 27.8477 69.4492 26.1107 72.2344 24.8828C75.0495 23.625 78.224 22.9961 81.7578 22.9961C85.3216 22.9961 88.4961 23.625 91.2812 24.8828C94.0964 26.1107 96.4772 27.8477 98.4238 30.0938C100.37 32.3099 101.853 34.9303 102.871 37.9551C103.889 40.9499 104.398 44.1992 104.398 47.7031V48.7363C104.398 52.2402 103.889 55.4896 102.871 58.4844C101.853 61.4792 100.37 64.0996 98.4238 66.3457C96.4772 68.5618 94.1113 70.2988 91.3262 71.5566C88.541 72.7845 85.3815 73.3984 81.8477 73.3984C78.2839 73.3984 75.0944 72.7845 72.2793 71.5566C69.4941 70.2988 67.1283 68.5618 65.1816 66.3457C63.235 64.0996 61.7526 61.4792 60.7344 58.4844C59.7161 55.4896 59.207 52.2402 59.207 48.7363ZM70.0332 47.7031V48.7363C70.0332 50.9225 70.2578 52.9889 70.707 54.9355C71.1562 56.8822 71.86 58.5892 72.8184 60.0566C73.7767 61.5241 75.0046 62.6771 76.502 63.5156C77.9993 64.3542 79.7812 64.7734 81.8477 64.7734C83.8542 64.7734 85.5911 64.3542 87.0586 63.5156C88.556 62.6771 89.7839 61.5241 90.7422 60.0566C91.7005 58.5892 92.4043 56.8822 92.8535 54.9355C93.3327 52.9889 93.5723 50.9225 93.5723 48.7363V47.7031C93.5723 45.5469 93.3327 43.5104 92.8535 41.5938C92.4043 39.6471 91.6855 37.9251 90.6973 36.4277C89.7389 34.9303 88.5111 33.7624 87.0137 32.9238C85.5462 32.0553 83.7943 31.6211 81.7578 31.6211C79.7214 31.6211 77.9544 32.0553 76.457 32.9238C74.9896 33.7624 73.7767 34.9303 72.8184 36.4277C71.86 37.9251 71.1562 39.6471 70.707 41.5938C70.2578 43.5104 70.0332 45.5469 70.0332 47.7031ZM113.518 3.5H124.344V62.123L123.311 72.5H113.518V3.5ZM156.059 47.748V48.6914C156.059 52.2852 155.654 55.5944 154.846 58.6191C154.067 61.6139 152.869 64.2194 151.252 66.4355C149.665 68.6517 147.688 70.3737 145.322 71.6016C142.986 72.7995 140.276 73.3984 137.191 73.3984C134.167 73.3984 131.531 72.8294 129.285 71.6914C127.039 70.5534 125.152 68.9362 123.625 66.8398C122.128 64.7435 120.915 62.2428 119.986 59.3379C119.058 56.4329 118.399 53.2285 118.01 49.7246V46.7148C118.399 43.181 119.058 39.9766 119.986 37.1016C120.915 34.1966 122.128 31.696 123.625 29.5996C125.152 27.4733 127.024 25.8411 129.24 24.7031C131.486 23.5651 134.107 22.9961 137.102 22.9961C140.216 22.9961 142.956 23.5951 145.322 24.793C147.718 25.9909 149.71 27.6979 151.297 29.9141C152.884 32.1003 154.067 34.7057 154.846 37.7305C155.654 40.7552 156.059 44.0944 156.059 47.748ZM145.232 48.6914V47.748C145.232 45.5618 145.053 43.5104 144.693 41.5938C144.334 39.6471 143.735 37.9401 142.896 36.4727C142.088 35.0052 140.98 33.8522 139.572 33.0137C138.195 32.1452 136.473 31.7109 134.406 31.7109C132.49 31.7109 130.842 32.0404 129.465 32.6992C128.087 33.3581 126.934 34.2565 126.006 35.3945C125.077 36.5326 124.344 37.8503 123.805 39.3477C123.296 40.8451 122.951 42.4622 122.771 44.1992V52.3301C123.041 54.5762 123.61 56.6426 124.479 58.5293C125.377 60.3861 126.635 61.8835 128.252 63.0215C129.869 64.1296 131.951 64.6836 134.496 64.6836C136.503 64.6836 138.195 64.2793 139.572 63.4707C140.95 62.6621 142.043 61.5391 142.852 60.1016C143.69 58.6341 144.289 56.9271 144.648 54.9805C145.038 53.0339 145.232 50.9375 145.232 48.6914ZM176.094 33.1484V72.5H165.268V23.8945H175.6L176.094 33.1484ZM190.963 23.5801L190.873 33.6426C190.214 33.5228 189.495 33.4329 188.717 33.373C187.968 33.3132 187.219 33.2832 186.471 33.2832C184.614 33.2832 182.982 33.5527 181.574 34.0918C180.167 34.6009 178.984 35.3496 178.025 36.3379C177.097 37.2962 176.378 38.4642 175.869 39.8418C175.36 41.2194 175.061 42.7617 174.971 44.4688L172.5 44.6484C172.5 41.5938 172.799 38.7637 173.398 36.1582C173.997 33.5527 174.896 31.2617 176.094 29.2852C177.322 27.3086 178.849 25.7663 180.676 24.6582C182.533 23.5501 184.674 22.9961 187.1 22.9961C187.758 22.9961 188.462 23.056 189.211 23.1758C189.99 23.2956 190.574 23.4303 190.963 23.5801ZM218.275 73.3984C214.682 73.3984 211.432 72.8145 208.527 71.6465C205.652 70.4486 203.197 68.7865 201.16 66.6602C199.154 64.5339 197.611 62.0332 196.533 59.1582C195.455 56.2832 194.916 53.1836 194.916 49.8594V48.0625C194.916 44.2591 195.47 40.8151 196.578 37.7305C197.686 34.6458 199.229 32.0104 201.205 29.8242C203.182 27.6081 205.518 25.916 208.213 24.748C210.908 23.5801 213.828 22.9961 216.973 22.9961C220.447 22.9961 223.486 23.5801 226.092 24.748C228.697 25.916 230.854 27.5632 232.561 29.6895C234.298 31.7858 235.585 34.2865 236.424 37.1914C237.292 40.0964 237.727 43.3008 237.727 46.8047V51.4316H200.172V43.6602H227.035V42.8066C226.975 40.86 226.586 39.0332 225.867 37.3262C225.178 35.6191 224.115 34.2415 222.678 33.1934C221.24 32.1452 219.324 31.6211 216.928 31.6211C215.131 31.6211 213.529 32.0104 212.121 32.7891C210.743 33.5378 209.59 34.6309 208.662 36.0684C207.734 37.5059 207.015 39.2428 206.506 41.2793C206.027 43.2858 205.787 45.5469 205.787 48.0625V49.8594C205.787 51.9857 206.072 53.9622 206.641 55.7891C207.24 57.5859 208.108 59.1582 209.246 60.5059C210.384 61.8535 211.762 62.9167 213.379 63.6953C214.996 64.444 216.838 64.8184 218.904 64.8184C221.51 64.8184 223.831 64.2943 225.867 63.2461C227.904 62.1979 229.671 60.7155 231.168 58.7988L236.873 64.3242C235.825 65.8516 234.462 67.319 232.785 68.7266C231.108 70.1042 229.057 71.2272 226.631 72.0957C224.235 72.9642 221.45 73.3984 218.275 73.3984ZM11.2305 89.0938H21.293L40.2051 139.541L59.0723 89.0938H69.1348L44.1582 154.5H36.1621L11.2305 89.0938ZM6.64844 89.0938H16.2168L17.8789 132.758V154.5H6.64844V89.0938ZM64.1484 89.0938H73.7617V154.5H62.4863V132.758L64.1484 89.0938ZM97.6602 105.895V154.5H86.7891V105.895H97.6602ZM86.0703 93.1367C86.0703 91.4896 86.6094 90.127 87.6875 89.0488C88.7956 87.9408 90.3229 87.3867 92.2695 87.3867C94.1862 87.3867 95.6986 87.9408 96.8066 89.0488C97.9147 90.127 98.4688 91.4896 98.4688 93.1367C98.4688 94.7539 97.9147 96.1016 96.8066 97.1797C95.6986 98.2578 94.1862 98.7969 92.2695 98.7969C90.3229 98.7969 88.7956 98.2578 87.6875 97.1797C86.6094 96.1016 86.0703 94.7539 86.0703 93.1367ZM120.346 115.777V154.5H109.52V105.895H119.717L120.346 115.777ZM118.594 128.4L114.91 128.355C114.91 125.001 115.329 121.902 116.168 119.057C117.007 116.212 118.234 113.741 119.852 111.645C121.469 109.518 123.475 107.886 125.871 106.748C128.297 105.58 131.097 104.996 134.271 104.996C136.488 104.996 138.509 105.326 140.336 105.984C142.193 106.613 143.795 107.617 145.143 108.994C146.52 110.372 147.568 112.139 148.287 114.295C149.036 116.451 149.41 119.057 149.41 122.111V154.5H138.584V123.055C138.584 120.689 138.225 118.832 137.506 117.484C136.817 116.137 135.814 115.178 134.496 114.609C133.208 114.01 131.666 113.711 129.869 113.711C127.833 113.711 126.096 114.1 124.658 114.879C123.251 115.658 122.098 116.721 121.199 118.068C120.301 119.416 119.642 120.973 119.223 122.74C118.803 124.507 118.594 126.394 118.594 128.4ZM148.736 125.525L143.66 126.648C143.66 123.714 144.064 120.943 144.873 118.338C145.712 115.702 146.924 113.396 148.512 111.42C150.129 109.413 152.12 107.841 154.486 106.703C156.852 105.565 159.562 104.996 162.617 104.996C165.103 104.996 167.319 105.34 169.266 106.029C171.242 106.688 172.919 107.736 174.297 109.174C175.674 110.611 176.723 112.483 177.441 114.789C178.16 117.065 178.52 119.82 178.52 123.055V154.5H167.648V123.01C167.648 120.554 167.289 118.652 166.57 117.305C165.882 115.957 164.893 115.029 163.605 114.52C162.318 113.98 160.775 113.711 158.979 113.711C157.301 113.711 155.819 114.025 154.531 114.654C153.273 115.253 152.21 116.107 151.342 117.215C150.473 118.293 149.814 119.536 149.365 120.943C148.946 122.351 148.736 123.878 148.736 125.525Z" fill="#111827"/>
<defs>
<linearGradient id="paint0_linear_307_5223" x1="-192.18" y1="196.712" x2="246.141" y2="138.062" gradientUnits="userSpaceOnUse">
<stop stop-color="#FFF278"/>
<stop offset="1" stop-color="#F28D2F"/>
</linearGradient>
</defs>
</svg>
