<svg width="310" height="164" viewBox="0 0 310 164" fill="none" xmlns="http://www.w3.org/2000/svg">
<path d="M6.76284 134.044C7.31384 132.745 6.70764 131.246 5.40886 130.695C4.11008 130.144 2.61054 130.75 2.05955 132.049L6.76284 134.044ZM153.525 129.44L153.118 131.962L153.525 129.44ZM197.279 143.661L198.91 145.627L197.279 143.661ZM250.271 118.499C250.873 117.223 250.327 115.7 249.051 115.098L228.26 105.284C226.985 104.682 225.462 105.228 224.86 106.504C224.258 107.78 224.804 109.302 226.08 109.905L244.561 118.628L235.837 137.109C235.235 138.385 235.781 139.907 237.057 140.509C238.333 141.111 239.855 140.565 240.458 139.29L250.271 118.499ZM2.05955 132.049C-2.26976 142.253 -4.0754 150.158 -3.41333 156.068C-3.07564 159.082 -2.08732 161.652 -0.401371 163.705C1.28321 165.756 3.52743 167.124 6.10441 167.963C11.1477 169.605 17.7461 169.311 25.0636 167.994C32.4583 166.662 40.9488 164.215 49.9667 161.224C58.9938 158.23 68.6346 154.663 78.3275 151.07C88.0375 147.471 97.8025 143.846 107.146 140.708C116.494 137.568 125.354 134.938 133.245 133.317C141.175 131.688 147.921 131.124 153.118 131.962L153.931 126.918C147.825 125.934 140.363 126.639 132.217 128.312C124.031 129.994 114.947 132.698 105.519 135.865C96.0867 139.033 86.2442 142.687 76.552 146.279C66.8428 149.878 57.2865 153.414 48.3584 156.375C39.4213 159.339 31.1985 161.698 24.1585 162.965C17.0414 164.246 11.4837 164.342 7.68617 163.105C5.84274 162.505 4.49537 161.617 3.54676 160.462C2.59952 159.309 1.91305 157.723 1.66395 155.499C1.15242 150.933 2.52514 144.033 6.76284 134.044L2.05955 132.049ZM153.118 131.962C181.41 136.525 201.754 141.763 212.238 147.747C217.563 150.787 219.527 153.552 219.684 155.817C219.84 158.07 218.299 161.232 212.878 165.32L215.954 169.4C221.653 165.102 225.127 160.471 224.781 155.465C224.436 150.472 220.384 146.515 214.771 143.31C203.378 136.807 182.156 131.471 153.931 126.918L153.118 131.962ZM212.878 165.32C207.635 169.274 203.321 170.445 200.152 170.187C197.053 169.934 194.718 168.296 193.286 165.845C190.367 160.846 191.148 152.068 198.91 145.627L195.648 141.695C186.273 149.474 184.501 160.932 188.875 168.421C191.089 172.213 194.862 174.882 199.738 175.279C204.545 175.67 210.076 173.832 215.954 169.4L212.878 165.32ZM198.91 145.627C205.525 140.138 215.178 134.684 224.683 130.07C234.155 125.473 243.314 121.789 248.824 119.813L247.099 115.004C241.427 117.038 232.099 120.792 222.453 125.474C212.84 130.14 202.743 135.807 195.648 141.695L198.91 145.627Z" fill="url(#paint0_linear_307_5223)"/>
<path d="M41.0586 55.1543C41.0586 53.8066 40.849 52.6087 40.4297 51.5605C40.0404 50.5124 39.3366 49.554 38.3184 48.6855C37.3001 47.8171 35.8626 46.9785 34.0059 46.1699C32.179 45.3314 29.8431 44.4779 26.998 43.6094C23.8835 42.651 21.0085 41.5879 18.373 40.4199C15.7676 39.222 13.4915 37.8444 11.5449 36.2871C9.59831 34.6999 8.08594 32.888 7.00781 30.8516C5.92969 28.7852 5.39062 26.4043 5.39062 23.709C5.39062 21.0436 5.94466 18.6178 7.05273 16.4316C8.19076 14.2454 9.79297 12.3587 11.8594 10.7715C13.9557 9.1543 16.4264 7.91146 19.2715 7.04297C22.1165 6.14453 25.2611 5.69531 28.7051 5.69531C33.5566 5.69531 37.7344 6.59375 41.2383 8.39062C44.7721 10.1875 47.4824 12.5983 49.3691 15.623C51.2858 18.6478 52.2441 21.987 52.2441 25.6406H41.0586C41.0586 23.4844 40.5944 21.5827 39.666 19.9355C38.7676 18.2585 37.39 16.9408 35.5332 15.9824C33.7064 15.0241 31.3854 14.5449 28.5703 14.5449C25.9049 14.5449 23.6888 14.9492 21.9219 15.7578C20.1549 16.5664 18.8372 17.6595 17.9688 19.0371C17.1003 20.4147 16.666 21.972 16.666 23.709C16.666 24.9368 16.9505 26.0599 17.5195 27.0781C18.0885 28.0664 18.957 28.9948 20.125 29.8633C21.293 30.7018 22.7604 31.4954 24.5273 32.2441C26.2943 32.9928 28.3757 33.7116 30.7715 34.4004C34.3952 35.4785 37.5547 36.6764 40.25 37.9941C42.9453 39.2819 45.1914 40.7493 46.9883 42.3965C48.7852 44.0436 50.1328 45.9154 51.0312 48.0117C51.9297 50.0781 52.3789 52.429 52.3789 55.0645C52.3789 57.8197 51.8249 60.3053 50.7168 62.5215C49.6087 64.7077 48.0215 66.5794 45.9551 68.1367C43.9186 69.6641 41.4629 70.847 38.5879 71.6855C35.7428 72.4941 32.5684 72.8984 29.0645 72.8984C25.9199 72.8984 22.8203 72.4792 19.7656 71.6406C16.7409 70.8021 13.9857 69.5293 11.5 67.8223C9.01432 66.0853 7.03776 63.929 5.57031 61.3535C4.10286 58.748 3.36914 55.7083 3.36914 52.2344H14.6445C14.6445 54.3607 15.0039 56.1725 15.7227 57.6699C16.4714 59.1673 17.5046 60.3952 18.8223 61.3535C20.14 62.2819 21.6673 62.9707 23.4043 63.4199C25.1712 63.8691 27.0579 64.0938 29.0645 64.0938C31.6999 64.0938 33.901 63.7194 35.668 62.9707C37.4648 62.222 38.8125 61.1738 39.7109 59.8262C40.6094 58.4785 41.0586 56.9212 41.0586 55.1543ZM59.207 48.2363V47.2031C59.207 43.6992 59.7161 40.4499 60.7344 37.4551C61.7526 34.4303 63.2201 31.8099 65.1367 29.5938C67.0833 27.3477 69.4492 25.6107 72.2344 24.3828C75.0495 23.125 78.224 22.4961 81.7578 22.4961C85.3216 22.4961 88.4961 23.125 91.2812 24.3828C94.0964 25.6107 96.4772 27.3477 98.4238 29.5938C100.37 31.8099 101.853 34.4303 102.871 37.4551C103.889 40.4499 104.398 43.6992 104.398 47.2031V48.2363C104.398 51.7402 103.889 54.9896 102.871 57.9844C101.853 60.9792 100.37 63.5996 98.4238 65.8457C96.4772 68.0618 94.1113 69.7988 91.3262 71.0566C88.541 72.2845 85.3815 72.8984 81.8477 72.8984C78.2839 72.8984 75.0944 72.2845 72.2793 71.0566C69.4941 69.7988 67.1283 68.0618 65.1816 65.8457C63.235 63.5996 61.7526 60.9792 60.7344 57.9844C59.7161 54.9896 59.207 51.7402 59.207 48.2363ZM70.0332 47.2031V48.2363C70.0332 50.4225 70.2578 52.4889 70.707 54.4355C71.1562 56.3822 71.86 58.0892 72.8184 59.5566C73.7767 61.0241 75.0046 62.1771 76.502 63.0156C77.9993 63.8542 79.7812 64.2734 81.8477 64.2734C83.8542 64.2734 85.5911 63.8542 87.0586 63.0156C88.556 62.1771 89.7839 61.0241 90.7422 59.5566C91.7005 58.0892 92.4043 56.3822 92.8535 54.4355C93.3327 52.4889 93.5723 50.4225 93.5723 48.2363V47.2031C93.5723 45.0469 93.3327 43.0104 92.8535 41.0938C92.4043 39.1471 91.6855 37.4251 90.6973 35.9277C89.7389 34.4303 88.5111 33.2624 87.0137 32.4238C85.5462 31.5553 83.7943 31.1211 81.7578 31.1211C79.7214 31.1211 77.9544 31.5553 76.457 32.4238C74.9896 33.2624 73.7767 34.4303 72.8184 35.9277C71.86 37.4251 71.1562 39.1471 70.707 41.0938C70.2578 43.0104 70.0332 45.0469 70.0332 47.2031ZM113.518 3H124.344V61.623L123.311 72H113.518V3ZM156.059 47.248V48.1914C156.059 51.7852 155.654 55.0944 154.846 58.1191C154.067 61.1139 152.869 63.7194 151.252 65.9355C149.665 68.1517 147.688 69.8737 145.322 71.1016C142.986 72.2995 140.276 72.8984 137.191 72.8984C134.167 72.8984 131.531 72.3294 129.285 71.1914C127.039 70.0534 125.152 68.4362 123.625 66.3398C122.128 64.2435 120.915 61.7428 119.986 58.8379C119.058 55.9329 118.399 52.7285 118.01 49.2246V46.2148C118.399 42.681 119.058 39.4766 119.986 36.6016C120.915 33.6966 122.128 31.196 123.625 29.0996C125.152 26.9733 127.024 25.3411 129.24 24.2031C131.486 23.0651 134.107 22.4961 137.102 22.4961C140.216 22.4961 142.956 23.0951 145.322 24.293C147.718 25.4909 149.71 27.1979 151.297 29.4141C152.884 31.6003 154.067 34.2057 154.846 37.2305C155.654 40.2552 156.059 43.5944 156.059 47.248ZM145.232 48.1914V47.248C145.232 45.0618 145.053 43.0104 144.693 41.0938C144.334 39.1471 143.735 37.4401 142.896 35.9727C142.088 34.5052 140.98 33.3522 139.572 32.5137C138.195 31.6452 136.473 31.2109 134.406 31.2109C132.49 31.2109 130.842 31.5404 129.465 32.1992C128.087 32.8581 126.934 33.7565 126.006 34.8945C125.077 36.0326 124.344 37.3503 123.805 38.8477C123.296 40.3451 122.951 41.9622 122.771 43.6992V51.8301C123.041 54.0762 123.61 56.1426 124.479 58.0293C125.377 59.8861 126.635 61.3835 128.252 62.5215C129.869 63.6296 131.951 64.1836 134.496 64.1836C136.503 64.1836 138.195 63.7793 139.572 62.9707C140.95 62.1621 142.043 61.0391 142.852 59.6016C143.69 58.1341 144.289 56.4271 144.648 54.4805C145.038 52.5339 145.232 50.4375 145.232 48.1914ZM176.094 32.6484V72H165.268V23.3945H175.6L176.094 32.6484ZM190.963 23.0801L190.873 33.1426C190.214 33.0228 189.495 32.9329 188.717 32.873C187.968 32.8132 187.219 32.7832 186.471 32.7832C184.614 32.7832 182.982 33.0527 181.574 33.5918C180.167 34.1009 178.984 34.8496 178.025 35.8379C177.097 36.7962 176.378 37.9642 175.869 39.3418C175.36 40.7194 175.061 42.2617 174.971 43.9688L172.5 44.1484C172.5 41.0938 172.799 38.2637 173.398 35.6582C173.997 33.0527 174.896 30.7617 176.094 28.7852C177.322 26.8086 178.849 25.2663 180.676 24.1582C182.533 23.0501 184.674 22.4961 187.1 22.4961C187.758 22.4961 188.462 22.556 189.211 22.6758C189.99 22.7956 190.574 22.9303 190.963 23.0801ZM218.275 72.8984C214.682 72.8984 211.432 72.3145 208.527 71.1465C205.652 69.9486 203.197 68.2865 201.16 66.1602C199.154 64.0339 197.611 61.5332 196.533 58.6582C195.455 55.7832 194.916 52.6836 194.916 49.3594V47.5625C194.916 43.7591 195.47 40.3151 196.578 37.2305C197.686 34.1458 199.229 31.5104 201.205 29.3242C203.182 27.1081 205.518 25.416 208.213 24.248C210.908 23.0801 213.828 22.4961 216.973 22.4961C220.447 22.4961 223.486 23.0801 226.092 24.248C228.697 25.416 230.854 27.0632 232.561 29.1895C234.298 31.2858 235.585 33.7865 236.424 36.6914C237.292 39.5964 237.727 42.8008 237.727 46.3047V50.9316H200.172V43.1602H227.035V42.3066C226.975 40.36 226.586 38.5332 225.867 36.8262C225.178 35.1191 224.115 33.7415 222.678 32.6934C221.24 31.6452 219.324 31.1211 216.928 31.1211C215.131 31.1211 213.529 31.5104 212.121 32.2891C210.743 33.0378 209.59 34.1309 208.662 35.5684C207.734 37.0059 207.015 38.7428 206.506 40.7793C206.027 42.7858 205.787 45.0469 205.787 47.5625V49.3594C205.787 51.4857 206.072 53.4622 206.641 55.2891C207.24 57.0859 208.108 58.6582 209.246 60.0059C210.384 61.3535 211.762 62.4167 213.379 63.1953C214.996 63.944 216.838 64.3184 218.904 64.3184C221.51 64.3184 223.831 63.7943 225.867 62.7461C227.904 61.6979 229.671 60.2155 231.168 58.2988L236.873 63.8242C235.825 65.3516 234.462 66.819 232.785 68.2266C231.108 69.6042 229.057 70.7272 226.631 71.5957C224.235 72.4642 221.45 72.8984 218.275 72.8984ZM16.3965 115.277V154H5.57031V105.395H15.7676L16.3965 115.277ZM14.6445 127.9L10.9609 127.855C10.9609 124.501 11.3802 121.402 12.2188 118.557C13.0573 115.712 14.2852 113.241 15.9023 111.145C17.5195 109.018 19.526 107.386 21.9219 106.248C24.3477 105.08 27.1478 104.496 30.3223 104.496C32.5384 104.496 34.5599 104.826 36.3867 105.484C38.2435 106.113 39.8457 107.117 41.1934 108.494C42.571 109.872 43.6191 111.639 44.3379 113.795C45.0866 115.951 45.4609 118.557 45.4609 121.611V154H34.6348V122.555C34.6348 120.189 34.2754 118.332 33.5566 116.984C32.8678 115.637 31.8646 114.678 30.5469 114.109C29.2591 113.51 27.7168 113.211 25.9199 113.211C23.8835 113.211 22.1465 113.6 20.709 114.379C19.3014 115.158 18.1484 116.221 17.25 117.568C16.3516 118.916 15.6927 120.473 15.2734 122.24C14.8542 124.007 14.6445 125.894 14.6445 127.9ZM44.7871 125.025L39.7109 126.148C39.7109 123.214 40.1152 120.443 40.9238 117.838C41.7624 115.202 42.9753 112.896 44.5625 110.92C46.1797 108.913 48.1712 107.341 50.5371 106.203C52.903 105.065 55.6133 104.496 58.668 104.496C61.1536 104.496 63.3698 104.84 65.3164 105.529C67.293 106.188 68.9701 107.236 70.3477 108.674C71.7253 110.111 72.7734 111.983 73.4922 114.289C74.2109 116.565 74.5703 119.32 74.5703 122.555V154H63.6992V122.51C63.6992 120.054 63.3398 118.152 62.6211 116.805C61.9323 115.457 60.944 114.529 59.6562 114.02C58.3685 113.48 56.8262 113.211 55.0293 113.211C53.3522 113.211 51.8698 113.525 50.582 114.154C49.3242 114.753 48.2611 115.607 47.3926 116.715C46.5241 117.793 45.8652 119.036 45.416 120.443C44.9967 121.851 44.7871 123.378 44.7871 125.025ZM97.3008 105.395V154H86.4297V105.395H97.3008ZM85.7109 92.6367C85.7109 90.9896 86.25 89.627 87.3281 88.5488C88.4362 87.4408 89.9635 86.8867 91.9102 86.8867C93.8268 86.8867 95.3392 87.4408 96.4473 88.5488C97.5553 89.627 98.1094 90.9896 98.1094 92.6367C98.1094 94.2539 97.5553 95.6016 96.4473 96.6797C95.3392 97.7578 93.8268 98.2969 91.9102 98.2969C89.9635 98.2969 88.4362 97.7578 87.3281 96.6797C86.25 95.6016 85.7109 94.2539 85.7109 92.6367ZM119.986 115.277V154H109.16V105.395H119.357L119.986 115.277ZM118.234 127.9L114.551 127.855C114.551 124.501 114.97 121.402 115.809 118.557C116.647 115.712 117.875 113.241 119.492 111.145C121.109 109.018 123.116 107.386 125.512 106.248C127.938 105.08 130.738 104.496 133.912 104.496C136.128 104.496 138.15 104.826 139.977 105.484C141.833 106.113 143.436 107.117 144.783 108.494C146.161 109.872 147.209 111.639 147.928 113.795C148.676 115.951 149.051 118.557 149.051 121.611V154H138.225V122.555C138.225 120.189 137.865 118.332 137.146 116.984C136.458 115.637 135.454 114.678 134.137 114.109C132.849 113.51 131.307 113.211 129.51 113.211C127.473 113.211 125.736 113.6 124.299 114.379C122.891 115.158 121.738 116.221 120.84 117.568C119.941 118.916 119.283 120.473 118.863 122.24C118.444 124.007 118.234 125.894 118.234 127.9ZM148.377 125.025L143.301 126.148C143.301 123.214 143.705 120.443 144.514 117.838C145.352 115.202 146.565 112.896 148.152 110.92C149.77 108.913 151.761 107.341 154.127 106.203C156.493 105.065 159.203 104.496 162.258 104.496C164.743 104.496 166.96 104.84 168.906 105.529C170.883 106.188 172.56 107.236 173.938 108.674C175.315 110.111 176.363 111.983 177.082 114.289C177.801 116.565 178.16 119.32 178.16 122.555V154H167.289V122.51C167.289 120.054 166.93 118.152 166.211 116.805C165.522 115.457 164.534 114.529 163.246 114.02C161.958 113.48 160.416 113.211 158.619 113.211C156.942 113.211 155.46 113.525 154.172 114.154C152.914 114.753 151.851 115.607 150.982 116.715C150.114 117.793 149.455 119.036 149.006 120.443C148.587 121.851 148.377 123.378 148.377 125.025Z" fill="#111827"/>
<defs>
<linearGradient id="paint0_linear_307_5223" x1="-189.345" y1="208.068" x2="241.136" y2="159.443" gradientUnits="userSpaceOnUse">
<stop stop-color="#FFF278"/>
<stop offset="1" stop-color="#F28D2F"/>
</linearGradient>
</defs>
</svg>
