<svg width="310" height="164" viewBox="0 0 310 164" fill="none" xmlns="http://www.w3.org/2000/svg">
<path d="M6.76284 134.044C7.31384 132.745 6.70764 131.246 5.40886 130.695C4.11008 130.144 2.61054 130.75 2.05955 132.049L6.76284 134.044ZM153.525 129.44L153.118 131.962L153.525 129.44ZM197.279 143.661L198.91 145.627L197.279 143.661ZM250.271 118.499C250.873 117.223 250.327 115.7 249.051 115.098L228.26 105.284C226.985 104.682 225.462 105.228 224.86 106.504C224.258 107.78 224.804 109.302 226.08 109.905L244.561 118.628L235.837 137.109C235.235 138.385 235.781 139.907 237.057 140.509C238.333 141.111 239.855 140.565 240.458 139.29L250.271 118.499ZM2.05955 132.049C-2.26976 142.253 -4.0754 150.158 -3.41333 156.068C-3.07564 159.082 -2.08732 161.652 -0.401371 163.705C1.28321 165.756 3.52743 167.124 6.10441 167.963C11.1477 169.605 17.7461 169.311 25.0636 167.994C32.4583 166.662 40.9488 164.215 49.9667 161.224C58.9938 158.23 68.6346 154.663 78.3275 151.07C88.0376 147.471 97.8025 143.846 107.146 140.708C116.494 137.568 125.354 134.938 133.245 133.317C141.175 131.688 147.921 131.124 153.118 131.962L153.931 126.918C147.825 125.934 140.363 126.639 132.217 128.312C124.031 129.994 114.947 132.698 105.519 135.865C96.0867 139.033 86.2442 142.687 76.552 146.279C66.8428 149.878 57.2865 153.414 48.3584 156.375C39.4213 159.339 31.1985 161.698 24.1585 162.965C17.0414 164.246 11.4837 164.342 7.68617 163.105C5.84274 162.505 4.49537 161.617 3.54676 160.462C2.59952 159.309 1.91305 157.723 1.66395 155.499C1.15242 150.933 2.52514 144.033 6.76284 134.044L2.05955 132.049ZM153.118 131.962C181.41 136.525 201.754 141.763 212.238 147.747C217.563 150.787 219.527 153.552 219.684 155.817C219.84 158.07 218.299 161.232 212.878 165.32L215.954 169.4C221.653 165.102 225.127 160.471 224.781 155.465C224.436 150.472 220.384 146.515 214.771 143.31C203.378 136.807 182.156 131.471 153.931 126.918L153.118 131.962ZM212.878 165.32C207.635 169.274 203.321 170.445 200.152 170.187C197.053 169.934 194.718 168.296 193.286 165.845C190.367 160.846 191.148 152.068 198.91 145.627L195.648 141.695C186.273 149.474 184.501 160.932 188.875 168.421C191.089 172.213 194.862 174.882 199.738 175.279C204.545 175.67 210.076 173.832 215.954 169.4L212.878 165.32ZM198.91 145.627C205.525 140.138 215.178 134.684 224.683 130.07C234.155 125.473 243.314 121.789 248.824 119.813L247.099 115.004C241.427 117.038 232.099 120.792 222.453 125.474C212.84 130.14 202.743 135.807 195.648 141.695L198.91 145.627Z" fill="url(#paint0_linear_307_5223)"/>
<path d="M27.968 73.644C23.6747 73.644 19.8107 72.908 16.376 71.436C12.9413 69.9027 10.2427 67.756 8.28 64.996C6.31733 62.236 5.336 59.016 5.336 55.336H16.56C16.8053 58.096 17.8787 60.3653 19.78 62.144C21.7427 63.9227 24.472 64.812 27.968 64.812C31.5867 64.812 34.408 63.9533 36.432 62.236C38.456 60.4573 39.468 58.188 39.468 55.428C39.468 53.2813 38.824 51.5333 37.536 50.184C36.3093 48.8347 34.7453 47.792 32.844 47.056C31.004 46.32 28.428 45.5227 25.116 44.664C20.9453 43.56 17.5413 42.456 14.904 41.352C12.328 40.1867 10.12 38.408 8.28 36.016C6.44 33.624 5.52 30.4347 5.52 26.448C5.52 22.768 6.44 19.548 8.28 16.788C10.12 14.028 12.696 11.912 16.008 10.44C19.32 8.968 23.1533 8.23199 27.508 8.23199C33.7027 8.23199 38.7627 9.79599 42.688 12.924C46.6747 15.9907 48.8827 20.2227 49.312 25.62H37.72C37.536 23.2893 36.432 21.296 34.408 19.64C32.384 17.984 29.716 17.156 26.404 17.156C23.3987 17.156 20.9453 17.9227 19.044 19.456C17.1427 20.9893 16.192 23.1973 16.192 26.08C16.192 28.0427 16.7747 29.668 17.94 30.956C19.1667 32.1827 20.7 33.164 22.54 33.9C24.38 34.636 26.8947 35.4333 30.084 36.292C34.316 37.4573 37.7507 38.6227 40.388 39.788C43.0867 40.9533 45.356 42.7627 47.196 45.216C49.0973 47.608 50.048 50.828 50.048 54.876C50.048 58.1267 49.1587 61.1933 47.38 64.076C45.6627 66.9587 43.1173 69.2893 39.744 71.068C36.432 72.7853 32.5067 73.644 27.968 73.644ZM84.4114 73.828C79.6274 73.828 75.3034 72.7547 71.4394 70.608C67.5754 68.4 64.5394 65.3333 62.3314 61.408C60.1234 57.4213 59.0194 52.8213 59.0194 47.608C59.0194 42.456 60.1541 37.8867 62.4234 33.9C64.6928 29.9133 67.7901 26.8467 71.7154 24.7C75.6408 22.5533 80.0261 21.48 84.8714 21.48C89.7168 21.48 94.1021 22.5533 98.0274 24.7C101.953 26.8467 105.05 29.9133 107.319 33.9C109.589 37.8867 110.723 42.456 110.723 47.608C110.723 52.76 109.558 57.3293 107.227 61.316C104.897 65.3027 101.707 68.4 97.6594 70.608C93.6728 72.7547 89.2568 73.828 84.4114 73.828ZM84.4114 64.72C87.1101 64.72 89.6248 64.076 91.9554 62.788C94.3474 61.5 96.2794 59.568 97.7514 56.992C99.2234 54.416 99.9594 51.288 99.9594 47.608C99.9594 43.928 99.2541 40.8307 97.8434 38.316C96.4328 35.74 94.5621 33.808 92.2314 32.52C89.9008 31.232 87.3861 30.588 84.6874 30.588C81.9888 30.588 79.4741 31.232 77.1434 32.52C74.8741 33.808 73.0648 35.74 71.7154 38.316C70.3661 40.8307 69.6914 43.928 69.6914 47.608C69.6914 53.0667 71.0714 57.2987 73.8314 60.304C76.6528 63.248 80.1794 64.72 84.4114 64.72ZM131.579 29.852C133.358 27.3987 135.781 25.4053 138.847 23.872C141.975 22.2773 145.441 21.48 149.243 21.48C153.721 21.48 157.769 22.5533 161.387 24.7C165.006 26.8467 167.858 29.9133 169.943 33.9C172.029 37.8253 173.071 42.3333 173.071 47.424C173.071 52.5147 172.029 57.084 169.943 61.132C167.858 65.1187 164.975 68.2467 161.295 70.516C157.677 72.724 153.659 73.828 149.243 73.828C145.318 73.828 141.822 73.0613 138.755 71.528C135.75 69.9947 133.358 68.032 131.579 65.64V73H121.091V4.92H131.579V29.852ZM162.399 47.424C162.399 43.928 161.663 40.9227 160.191 38.408C158.781 35.832 156.879 33.9 154.487 32.612C152.157 31.2627 149.642 30.588 146.943 30.588C144.306 30.588 141.791 31.2627 139.399 32.612C137.069 33.9613 135.167 35.924 133.695 38.5C132.285 41.076 131.579 44.112 131.579 47.608C131.579 51.104 132.285 54.1707 133.695 56.808C135.167 59.384 137.069 61.3467 139.399 62.696C141.791 64.0453 144.306 64.72 146.943 64.72C149.642 64.72 152.157 64.0453 154.487 62.696C156.879 61.2853 158.781 59.2613 160.191 56.624C161.663 53.9867 162.399 50.92 162.399 47.424ZM193.931 29.668C195.464 27.092 197.488 25.0987 200.003 23.688C202.579 22.216 205.615 21.48 209.111 21.48V32.336H206.443C202.334 32.336 199.206 33.3787 197.059 35.464C194.974 37.5493 193.931 41.168 193.931 46.32V73H183.443V22.308H193.931V29.668ZM265.212 46.412C265.212 48.3133 265.089 50.0307 264.844 51.564H226.112C226.418 55.612 227.921 58.8627 230.62 61.316C233.318 63.7693 236.63 64.996 240.556 64.996C246.198 64.996 250.185 62.6347 252.516 57.912H263.832C262.298 62.5733 259.508 66.4067 255.46 69.412C251.473 72.356 246.505 73.828 240.556 73.828C235.71 73.828 231.356 72.7547 227.492 70.608C223.689 68.4 220.684 65.3333 218.476 61.408C216.329 57.4213 215.256 52.8213 215.256 47.608C215.256 42.3947 216.298 37.8253 218.384 33.9C220.53 29.9133 223.505 26.8467 227.308 24.7C231.172 22.5533 235.588 21.48 240.556 21.48C245.34 21.48 249.602 22.5227 253.344 24.608C257.085 26.6933 259.998 29.6373 262.084 33.44C264.169 37.1813 265.212 41.5053 265.212 46.412ZM254.264 43.1C254.202 39.236 252.822 36.1387 250.124 33.808C247.425 31.4773 244.082 30.312 240.096 30.312C236.477 30.312 233.38 31.4773 230.804 33.808C228.228 36.0773 226.694 39.1747 226.204 43.1H254.264ZM68.264 103.48C72.2507 103.48 75.808 104.308 78.936 105.964C82.1253 107.62 84.6093 110.073 86.388 113.324C88.228 116.575 89.148 120.5 89.148 125.1V155H78.752V126.664C78.752 122.125 77.6173 118.66 75.348 116.268C73.0787 113.815 69.9813 112.588 66.056 112.588C62.1307 112.588 59.0027 113.815 56.672 116.268C54.4027 118.66 53.268 122.125 53.268 126.664V155H42.872V126.664C42.872 122.125 41.7373 118.66 39.468 116.268C37.1987 113.815 34.1013 112.588 30.176 112.588C26.2507 112.588 23.1227 113.815 20.792 116.268C18.5227 118.66 17.388 122.125 17.388 126.664V155H6.9V104.308H17.388V110.104C19.1053 108.019 21.2827 106.393 23.92 105.228C26.5573 104.063 29.3787 103.48 32.384 103.48C36.432 103.48 40.0507 104.339 43.24 106.056C46.4293 107.773 48.8827 110.257 50.6 113.508C52.1333 110.441 54.5253 108.019 57.776 106.24C61.0267 104.4 64.5227 103.48 68.264 103.48ZM107.83 97.592C105.928 97.592 104.334 96.948 103.046 95.66C101.758 94.372 101.114 92.7773 101.114 90.876C101.114 88.9747 101.758 87.38 103.046 86.092C104.334 84.804 105.928 84.16 107.83 84.16C109.67 84.16 111.234 84.804 112.522 86.092C113.81 87.38 114.454 88.9747 114.454 90.876C114.454 92.7773 113.81 94.372 112.522 95.66C111.234 96.948 109.67 97.592 107.83 97.592ZM112.982 104.308V155H102.494V104.308H112.982ZM188.116 103.48C192.102 103.48 195.66 104.308 198.788 105.964C201.977 107.62 204.461 110.073 206.24 113.324C208.08 116.575 209 120.5 209 125.1V155H198.604V126.664C198.604 122.125 197.469 118.66 195.2 116.268C192.93 113.815 189.833 112.588 185.908 112.588C181.982 112.588 178.854 113.815 176.524 116.268C174.254 118.66 173.12 122.125 173.12 126.664V155H162.724V126.664C162.724 122.125 161.589 118.66 159.32 116.268C157.05 113.815 153.953 112.588 150.028 112.588C146.102 112.588 142.974 113.815 140.644 116.268C138.374 118.66 137.24 122.125 137.24 126.664V155H126.752V104.308H137.24V110.104C138.957 108.019 141.134 106.393 143.772 105.228C146.409 104.063 149.23 103.48 152.236 103.48C156.284 103.48 159.902 104.339 163.092 106.056C166.281 107.773 168.734 110.257 170.452 113.508C171.985 110.441 174.377 108.019 177.628 106.24C180.878 104.4 184.374 103.48 188.116 103.48Z" fill="#111827"/>
<defs>
<linearGradient id="paint0_linear_307_5223" x1="-189.345" y1="208.068" x2="241.136" y2="159.443" gradientUnits="userSpaceOnUse">
<stop stop-color="#FFF278"/>
<stop offset="1" stop-color="#F28D2F"/>
</linearGradient>
</defs>
</svg>
