<svg width="217" height="98" viewBox="0 0 217 98" fill="none" xmlns="http://www.w3.org/2000/svg">
<path d="M15.1348 26.1973C15.1348 25.7988 15.0762 25.4414 14.959 25.125C14.8418 24.7969 14.625 24.4922 14.3086 24.2109C13.9922 23.9297 13.5352 23.6484 12.9375 23.3672C12.3516 23.0742 11.5781 22.7695 10.6172 22.4531C9.49219 22.0781 8.4082 21.6562 7.36523 21.1875C6.32227 20.707 5.39062 20.1504 4.57031 19.5176C3.75 18.873 3.09961 18.123 2.61914 17.2676C2.13867 16.4004 1.89844 15.3926 1.89844 14.2441C1.89844 13.1426 2.14453 12.1523 2.63672 11.2734C3.12891 10.3828 3.81445 9.62695 4.69336 9.00586C5.58398 8.37305 6.62695 7.89258 7.82227 7.56445C9.01758 7.22461 10.3242 7.05469 11.7422 7.05469C13.6172 7.05469 15.2695 7.38281 16.6992 8.03906C18.1406 8.68359 19.2656 9.60352 20.0742 10.7988C20.8945 11.9824 21.3047 13.3828 21.3047 15H15.1699C15.1699 14.3555 15.0352 13.7871 14.7656 13.2949C14.5078 12.8027 14.1152 12.416 13.5879 12.1348C13.0605 11.8535 12.3984 11.7129 11.6016 11.7129C10.8281 11.7129 10.1777 11.8301 9.65039 12.0645C9.12305 12.2988 8.72461 12.6152 8.45508 13.0137C8.18555 13.4004 8.05078 13.8281 8.05078 14.2969C8.05078 14.6836 8.15625 15.0352 8.36719 15.3516C8.58984 15.6562 8.90039 15.9434 9.29883 16.2129C9.70898 16.4824 10.2012 16.7402 10.7754 16.9863C11.3613 17.2324 12.0176 17.4727 12.7441 17.707C14.1035 18.1406 15.3105 18.627 16.3652 19.166C17.4316 19.6934 18.3281 20.2969 19.0547 20.9766C19.793 21.6445 20.3496 22.4062 20.7246 23.2617C21.1113 24.1172 21.3047 25.084 21.3047 26.1621C21.3047 27.3105 21.082 28.3301 20.6367 29.2207C20.1914 30.1113 19.5527 30.8672 18.7207 31.4883C17.8887 32.0977 16.8926 32.5605 15.7324 32.877C14.5723 33.1934 13.2773 33.3516 11.8477 33.3516C10.5352 33.3516 9.24023 33.1875 7.96289 32.8594C6.69727 32.5195 5.54883 32.0039 4.51758 31.3125C3.48633 30.6094 2.66016 29.7129 2.03906 28.623C1.42969 27.5215 1.125 26.2148 1.125 24.7031H7.3125C7.3125 25.4531 7.41211 26.0859 7.61133 26.6016C7.81055 27.1172 8.10352 27.5332 8.49023 27.8496C8.87695 28.1543 9.35156 28.377 9.91406 28.5176C10.4766 28.6465 11.1211 28.7109 11.8477 28.7109C12.6328 28.7109 13.2656 28.5996 13.7461 28.377C14.2266 28.1426 14.5781 27.8379 14.8008 27.4629C15.0234 27.0762 15.1348 26.6543 15.1348 26.1973ZM34.2246 13.9805V18.0938H22.7637V13.9805H34.2246ZM25.1719 9.25195H31.0957V26.7949C31.0957 27.2988 31.1543 27.6914 31.2715 27.9727C31.3887 28.2422 31.5879 28.4355 31.8691 28.5527C32.1621 28.6582 32.5488 28.7109 33.0293 28.7109C33.3691 28.7109 33.6504 28.7051 33.873 28.6934C34.0957 28.6699 34.3066 28.6406 34.5059 28.6055V32.8418C34.002 33.0059 33.4746 33.1289 32.9238 33.2109C32.373 33.3047 31.7871 33.3516 31.166 33.3516C29.9004 33.3516 28.8164 33.1523 27.9141 32.7539C27.0234 32.3555 26.3438 31.7285 25.875 30.873C25.4062 30.0176 25.1719 28.9043 25.1719 27.5332V9.25195ZM42.416 30.7676L47.3379 13.9805H53.7012L46.0547 35.8301C45.8906 36.3105 45.6738 36.8262 45.4043 37.377C45.1348 37.9395 44.7656 38.4727 44.2969 38.9766C43.8281 39.4805 43.2246 39.8906 42.4863 40.207C41.7598 40.5234 40.8574 40.6816 39.7793 40.6816C39.2051 40.6816 38.7832 40.6523 38.5137 40.5938C38.2559 40.5469 37.8574 40.459 37.3184 40.3301V36.0938C37.4707 36.0938 37.5996 36.0938 37.7051 36.0938C37.8223 36.0938 37.9512 36.0938 38.0918 36.0938C38.7246 36.0938 39.2285 36.0293 39.6035 35.9004C39.9902 35.7715 40.2832 35.584 40.4824 35.3379C40.6934 35.0918 40.8574 34.793 40.9746 34.4414L42.416 30.7676ZM41.168 13.9805L44.9121 27.2871L45.5625 33.5625H41.5898L34.8223 13.9805H41.168ZM61.5059 6V33H55.5645V6H61.5059ZM74.373 33.3516C72.8262 33.3516 71.4434 33.1113 70.2246 32.6309C69.0059 32.1387 67.9746 31.4648 67.1309 30.6094C66.2988 29.7539 65.6602 28.7695 65.2148 27.6562C64.7812 26.543 64.5645 25.3652 64.5645 24.123V23.4551C64.5645 22.0605 64.7578 20.7715 65.1445 19.5879C65.5312 18.3926 66.1055 17.3496 66.8672 16.459C67.6289 15.5684 68.584 14.877 69.7324 14.3848C70.8809 13.8809 72.2168 13.6289 73.7402 13.6289C75.0879 13.6289 76.2949 13.8457 77.3613 14.2793C78.4277 14.7129 79.3301 15.334 80.0684 16.1426C80.8184 16.9512 81.3867 17.9297 81.7734 19.0781C82.1719 20.2266 82.3711 21.5156 82.3711 22.9453V25.3535H66.832V21.6445H76.5879V21.1875C76.5996 20.5547 76.4883 20.0156 76.2539 19.5703C76.0312 19.125 75.7031 18.7852 75.2695 18.5508C74.8359 18.3164 74.3086 18.1992 73.6875 18.1992C73.043 18.1992 72.5098 18.3398 72.0879 18.6211C71.6777 18.9023 71.3555 19.2891 71.1211 19.7812C70.8984 20.2617 70.7402 20.8184 70.6465 21.4512C70.5527 22.084 70.5059 22.752 70.5059 23.4551V24.123C70.5059 24.8262 70.5996 25.4648 70.7871 26.0391C70.9863 26.6133 71.2676 27.1055 71.6309 27.5156C72.0059 27.9141 72.4512 28.2246 72.9668 28.4473C73.4941 28.6699 74.0918 28.7812 74.7598 28.7812C75.5684 28.7812 76.3652 28.6289 77.1504 28.3242C77.9355 28.0195 78.6094 27.5156 79.1719 26.8125L81.8613 30.0117C81.4746 30.5625 80.9238 31.0957 80.209 31.6113C79.5059 32.127 78.6621 32.5488 77.6777 32.877C76.6934 33.1934 75.5918 33.3516 74.373 33.3516ZM95.7129 28.6406V6H101.672V33H96.3281L95.7129 28.6406ZM84.041 23.7188V23.3496C84.041 21.9082 84.1992 20.5957 84.5156 19.4121C84.832 18.2168 85.3008 17.1914 85.9219 16.3359C86.543 15.4688 87.3164 14.8008 88.2422 14.332C89.168 13.8633 90.2344 13.6289 91.4414 13.6289C92.5195 13.6289 93.4629 13.8809 94.2715 14.3848C95.0801 14.877 95.7715 15.5684 96.3457 16.459C96.9199 17.3496 97.3887 18.3926 97.752 19.5879C98.1152 20.7715 98.3906 22.0488 98.5781 23.4199V23.8594C98.3906 25.1484 98.1152 26.3672 97.752 27.5156C97.3887 28.6523 96.9199 29.6602 96.3457 30.5391C95.7715 31.418 95.0742 32.1094 94.2539 32.6133C93.4453 33.1055 92.4961 33.3516 91.4062 33.3516C90.1992 33.3516 89.1328 33.1113 88.207 32.6309C87.293 32.1504 86.5254 31.4766 85.9043 30.6094C85.2949 29.7422 84.832 28.7227 84.5156 27.5508C84.1992 26.3789 84.041 25.1016 84.041 23.7188ZM89.9648 23.3496V23.7188C89.9648 24.4336 90.0117 25.0957 90.1055 25.7051C90.1992 26.3145 90.3574 26.8535 90.5801 27.3223C90.8145 27.7793 91.1191 28.1367 91.4941 28.3945C91.8809 28.6523 92.3555 28.7812 92.918 28.7812C93.6797 28.7812 94.3066 28.5996 94.7988 28.2363C95.3027 27.873 95.6719 27.3574 95.9062 26.6895C96.1523 26.0215 96.2578 25.2363 96.2227 24.334V22.9453C96.2461 22.1719 96.1934 21.4922 96.0645 20.9062C95.9355 20.3086 95.7305 19.8105 95.4492 19.4121C95.1797 19.0137 94.834 18.7148 94.4121 18.5156C94.002 18.3047 93.5156 18.1992 92.9531 18.1992C92.4023 18.1992 91.9336 18.3281 91.5469 18.5859C91.1719 18.8438 90.8672 19.207 90.6328 19.6758C90.3984 20.1328 90.2285 20.6777 90.123 21.3105C90.0176 21.9316 89.9648 22.6113 89.9648 23.3496ZM116.596 19.6758V24.2637H106.031V19.6758H116.596ZM136.072 24.334H142.225C142.143 26.1152 141.662 27.6855 140.783 29.0449C139.904 30.4043 138.686 31.4648 137.127 32.2266C135.58 32.9766 133.752 33.3516 131.643 33.3516C129.932 33.3516 128.402 33.0645 127.055 32.4902C125.719 31.916 124.582 31.0898 123.645 30.0117C122.719 28.9336 122.01 27.627 121.518 26.0918C121.037 24.5566 120.797 22.8281 120.797 20.9062V19.5176C120.797 17.5957 121.049 15.8672 121.553 14.332C122.068 12.7852 122.795 11.4727 123.732 10.3945C124.682 9.30469 125.818 8.47266 127.143 7.89844C128.467 7.32422 129.938 7.03711 131.555 7.03711C133.781 7.03711 135.662 7.43555 137.197 8.23242C138.732 9.0293 139.922 10.125 140.766 11.5195C141.609 12.9023 142.107 14.4785 142.26 16.248H136.107C136.084 15.2871 135.92 14.4844 135.615 13.8398C135.311 13.1836 134.83 12.6914 134.174 12.3633C133.518 12.0352 132.645 11.8711 131.555 11.8711C130.793 11.8711 130.131 12.0117 129.568 12.293C129.006 12.5742 128.537 13.0195 128.162 13.6289C127.787 14.2383 127.506 15.0293 127.318 16.002C127.143 16.9629 127.055 18.123 127.055 19.4824V20.9062C127.055 22.2656 127.137 23.4258 127.301 24.3867C127.465 25.3477 127.729 26.1328 128.092 26.7422C128.455 27.3516 128.924 27.8027 129.498 28.0957C130.084 28.377 130.799 28.5176 131.643 28.5176C132.58 28.5176 133.371 28.3711 134.016 28.0781C134.66 27.7734 135.158 27.3164 135.51 26.707C135.861 26.0859 136.049 25.2949 136.072 24.334ZM144.123 23.6836V23.3145C144.123 21.9199 144.322 20.6367 144.721 19.4648C145.119 18.2812 145.705 17.2559 146.479 16.3887C147.252 15.5215 148.207 14.8477 149.344 14.3672C150.48 13.875 151.793 13.6289 153.281 13.6289C154.781 13.6289 156.1 13.875 157.236 14.3672C158.385 14.8477 159.346 15.5215 160.119 16.3887C160.893 17.2559 161.479 18.2812 161.877 19.4648C162.275 20.6367 162.475 21.9199 162.475 23.3145V23.6836C162.475 25.0664 162.275 26.3496 161.877 27.5332C161.479 28.7051 160.893 29.7305 160.119 30.6094C159.346 31.4766 158.391 32.1504 157.254 32.6309C156.117 33.1113 154.805 33.3516 153.316 33.3516C151.828 33.3516 150.51 33.1113 149.361 32.6309C148.213 32.1504 147.252 31.4766 146.479 30.6094C145.705 29.7305 145.119 28.7051 144.721 27.5332C144.322 26.3496 144.123 25.0664 144.123 23.6836ZM150.047 23.3145V23.6836C150.047 24.3984 150.1 25.0664 150.205 25.6875C150.311 26.3086 150.486 26.8535 150.732 27.3223C150.979 27.7793 151.312 28.1367 151.734 28.3945C152.156 28.6523 152.684 28.7812 153.316 28.7812C153.938 28.7812 154.453 28.6523 154.863 28.3945C155.285 28.1367 155.619 27.7793 155.865 27.3223C156.111 26.8535 156.287 26.3086 156.393 25.6875C156.498 25.0664 156.551 24.3984 156.551 23.6836V23.3145C156.551 22.623 156.498 21.9727 156.393 21.3633C156.287 20.7422 156.111 20.1973 155.865 19.7285C155.619 19.248 155.285 18.873 154.863 18.6035C154.441 18.334 153.914 18.1992 153.281 18.1992C152.66 18.1992 152.139 18.334 151.717 18.6035C151.307 18.873 150.979 19.248 150.732 19.7285C150.486 20.1973 150.311 20.7422 150.205 21.3633C150.1 21.9727 150.047 22.623 150.047 23.3145ZM171.088 18.0059V33H165.164V13.9805H170.719L171.088 18.0059ZM170.367 22.8398L169.014 22.875C169.014 21.5391 169.172 20.3086 169.488 19.1836C169.805 18.0586 170.273 17.0801 170.895 16.248C171.516 15.416 172.277 14.7715 173.18 14.3145C174.094 13.8574 175.148 13.6289 176.344 13.6289C177.176 13.6289 177.932 13.7578 178.611 14.0156C179.291 14.2617 179.877 14.6543 180.369 15.1934C180.861 15.7207 181.236 16.4121 181.494 17.2676C181.764 18.1113 181.898 19.125 181.898 20.3086V33H175.975V21.0645C175.975 20.2559 175.881 19.6465 175.693 19.2363C175.518 18.8262 175.26 18.5508 174.92 18.4102C174.58 18.2695 174.164 18.1992 173.672 18.1992C173.156 18.1992 172.693 18.3164 172.283 18.5508C171.873 18.7852 171.521 19.1133 171.229 19.5352C170.947 19.9453 170.73 20.4316 170.578 20.9941C170.438 21.5566 170.367 22.1719 170.367 22.8398ZM181.23 22.8398L179.578 22.875C179.578 21.5391 179.725 20.3086 180.018 19.1836C180.322 18.0586 180.773 17.0801 181.371 16.248C181.98 15.416 182.736 14.7715 183.639 14.3145C184.541 13.8574 185.59 13.6289 186.785 13.6289C187.652 13.6289 188.449 13.7578 189.176 14.0156C189.902 14.2734 190.529 14.6895 191.057 15.2637C191.584 15.8379 191.994 16.5996 192.287 17.5488C192.58 18.4863 192.727 19.6465 192.727 21.0293V33H186.785V21.0293C186.785 20.2441 186.691 19.6523 186.504 19.2539C186.328 18.8438 186.07 18.5684 185.73 18.4277C185.391 18.2754 184.986 18.1992 184.518 18.1992C183.955 18.1992 183.469 18.3164 183.059 18.5508C182.648 18.7852 182.303 19.1133 182.021 19.5352C181.752 19.9453 181.553 20.4316 181.424 20.9941C181.295 21.5566 181.23 22.1719 181.23 22.8398ZM202.096 17.6367V40.3125H196.172V13.9805H201.691L202.096 17.6367ZM213.768 23.2617V23.6309C213.768 25.0137 213.609 26.2969 213.293 27.4805C212.977 28.6641 212.508 29.6953 211.887 30.5742C211.266 31.4531 210.492 32.1387 209.566 32.6309C208.652 33.1113 207.592 33.3516 206.385 33.3516C205.248 33.3516 204.27 33.0996 203.449 32.5957C202.629 32.0918 201.943 31.3945 201.393 30.5039C200.842 29.6133 200.396 28.5938 200.057 27.4453C199.717 26.2969 199.447 25.084 199.248 23.8066V23.332C199.447 21.9609 199.717 20.6895 200.057 19.5176C200.396 18.334 200.842 17.3027 201.393 16.4238C201.943 15.5449 202.623 14.8594 203.432 14.3672C204.252 13.875 205.23 13.6289 206.367 13.6289C207.574 13.6289 208.635 13.8574 209.549 14.3145C210.475 14.7715 211.248 15.4277 211.869 16.2832C212.502 17.127 212.977 18.1406 213.293 19.3242C213.609 20.5078 213.768 21.8203 213.768 23.2617ZM207.844 23.6309V23.2617C207.844 22.5234 207.791 21.8496 207.686 21.2402C207.58 20.6191 207.41 20.0801 207.176 19.623C206.953 19.166 206.654 18.8145 206.279 18.5684C205.904 18.3223 205.441 18.1992 204.891 18.1992C204.258 18.1992 203.725 18.2988 203.291 18.498C202.869 18.6855 202.529 18.9785 202.271 19.377C202.025 19.7637 201.85 20.25 201.744 20.8359C201.65 21.4102 201.609 22.084 201.621 22.8574V24.2988C201.598 25.1895 201.686 25.9746 201.885 26.6543C202.084 27.3223 202.43 27.8438 202.922 28.2188C203.414 28.5938 204.082 28.7812 204.926 28.7812C205.488 28.7812 205.957 28.6523 206.332 28.3945C206.707 28.125 207.006 27.7559 207.229 27.2871C207.451 26.8066 207.609 26.2559 207.703 25.6348C207.797 25.0137 207.844 24.3457 207.844 23.6309Z" fill="#445964"/>
<path d="M37.8107 65.6402L26.1834 58.8588C24.2199 57.7137 21.7802 57.7138 19.8166 58.8588L8.1894 65.6402C6.22207 66.7874 5 68.927 5 71.2239V84.776C5 87.0729 6.22207 89.2125 8.18932 90.3598L19.8166 97.1411C21.7805 98.2865 24.2201 98.2861 26.1834 97.1411L37.8106 90.3598C39.7779 89.2125 41 87.0729 41 84.776V71.2239C41 68.9271 39.7779 66.7875 37.8107 65.6402ZM37.9099 84.776C37.9099 85.9592 37.2804 87.0613 36.267 87.6522L24.6397 94.4335C23.6282 95.0235 22.3717 95.0235 21.3602 94.4335L9.73292 87.6522C8.71959 87.0612 8.09013 85.9592 8.09013 84.776V71.2239C8.09013 70.0409 8.71959 68.9388 9.733 68.3478L21.3602 61.5665C22.3718 60.9765 23.6287 60.9767 24.6398 61.5665L36.2671 68.3477C37.2804 68.9388 37.9099 70.0408 37.9099 71.2239V84.776Z" fill="#445964"/>
<path d="M81.8107 65.6402L70.1834 58.8588C68.2199 57.7137 65.7802 57.7138 63.8166 58.8588L52.1894 65.6402C50.2221 66.7874 49 68.927 49 71.2239V84.776C49 87.0729 50.2221 89.2125 52.1893 90.3598L63.8166 97.1411C65.7805 98.2865 68.2201 98.2861 70.1834 97.1411L81.8106 90.3598C83.7779 89.2125 85 87.0729 85 84.776V71.2239C85 68.9271 83.7779 66.7875 81.8107 65.6402ZM81.9099 84.776C81.9099 85.9592 81.2804 87.0613 80.267 87.6522L68.6397 94.4335C67.6282 95.0235 66.3717 95.0235 65.3602 94.4335L53.7329 87.6522C52.7196 87.0612 52.0901 85.9592 52.0901 84.776V71.2239C52.0901 70.0409 52.7196 68.9388 53.733 68.3478L65.3602 61.5665C66.3718 60.9765 67.6287 60.9767 68.6398 61.5665L80.2671 68.3477C81.2804 68.9388 81.9099 70.0408 81.9099 71.2239V84.776Z" fill="#445964"/>
<path d="M125.811 65.6402L114.183 58.8588C112.22 57.7137 109.78 57.7138 107.817 58.8588L96.1894 65.6402C94.2221 66.7874 93 68.927 93 71.2239V84.776C93 87.0729 94.2221 89.2125 96.1893 90.3598L107.817 97.1411C109.78 98.2865 112.22 98.2861 114.183 97.1411L125.811 90.3598C127.778 89.2125 129 87.0729 129 84.776V71.2239C129 68.9271 127.778 66.7875 125.811 65.6402ZM125.91 84.776C125.91 85.9592 125.28 87.0613 124.267 87.6522L112.64 94.4335C111.628 95.0235 110.372 95.0235 109.36 94.4335L97.7329 87.6522C96.7196 87.0612 96.0901 85.9592 96.0901 84.776V71.2239C96.0901 70.0409 96.7196 68.9388 97.733 68.3478L109.36 61.5665C110.372 60.9765 111.629 60.9767 112.64 61.5665L124.267 68.3477C125.28 68.9388 125.91 70.0408 125.91 71.2239V84.776Z" fill="#445964"/>
<path d="M169.811 65.6402L158.183 58.8588C156.22 57.7137 153.78 57.7138 151.817 58.8588L140.189 65.6402C138.222 66.7874 137 68.927 137 71.2239V84.776C137 87.0729 138.222 89.2125 140.189 90.3598L151.817 97.1411C153.78 98.2865 156.22 98.2861 158.183 97.1411L169.811 90.3598C171.778 89.2125 173 87.0729 173 84.776V71.2239C173 68.9271 171.778 66.7875 169.811 65.6402ZM169.91 84.776C169.91 85.9592 169.28 87.0613 168.267 87.6522L156.64 94.4335C155.628 95.0235 154.372 95.0235 153.36 94.4335L141.733 87.6522C140.72 87.0612 140.09 85.9592 140.09 84.776V71.2239C140.09 70.0409 140.72 68.9388 141.733 68.3478L153.36 61.5665C154.372 60.9765 155.629 60.9767 156.64 61.5665L168.267 68.3477C169.28 68.9388 169.91 70.0408 169.91 71.2239V84.776Z" fill="#445964" fill-opacity="0.2"/>
<path d="M213.811 65.6402L202.183 58.8588C200.22 57.7137 197.78 57.7138 195.817 58.8588L184.189 65.6402C182.222 66.7874 181 68.927 181 71.2239V84.776C181 87.0729 182.222 89.2125 184.189 90.3598L195.817 97.1411C197.78 98.2865 200.22 98.2861 202.183 97.1411L213.811 90.3598C215.778 89.2125 217 87.0729 217 84.776V71.2239C217 68.9271 215.778 66.7875 213.811 65.6402ZM213.91 84.776C213.91 85.9592 213.28 87.0613 212.267 87.6522L200.64 94.4335C199.628 95.0235 198.372 95.0235 197.36 94.4335L185.733 87.6522C184.72 87.0612 184.09 85.9592 184.09 84.776V71.2239C184.09 70.0409 184.72 68.9388 185.733 68.3478L197.36 61.5665C198.372 60.9765 199.629 60.9767 200.64 61.5665L212.267 68.3477C213.28 68.9388 213.91 70.0408 213.91 71.2239V84.776Z" fill="#445964" fill-opacity="0.2"/>
</svg>
